<?xml version="1.0" encoding="utf-8"?>
<!-- Generator: Adobe Illustrator 16.0.0, SVG Export Plug-In . SVG Version: 6.00 Build 0)  -->
<!DOCTYPE svg PUBLIC "-//W3C//DTD SVG 1.1//EN" "http://www.w3.org/Graphics/SVG/1.1/DTD/svg11.dtd">
<svg version="1.1" xmlns="http://www.w3.org/2000/svg" xmlns:xlink="http://www.w3.org/1999/xlink" x="0px" y="0px" width="40px"
	 height="8px" viewBox="0 0 40 8" enable-background="new 0 0 40 8" xml:space="preserve">
<g id="Arrow_Left">
	<g>
		<polygon opacity="0.15" points="7.5,4 6.5,4 5.5,4 5.5,3 5.5,2 5.5,1 4.5,1 4.5,2 3.5,2 3.5,3 2.5,3 2.5,4 1.5,4 1.5,5 2.5,5 
			2.5,6 3.5,6 3.5,7 4.5,7 4.5,8 5.5,8 5.5,7 5.5,6 5.5,5 6.5,5 7.5,5 8.5,5 8.5,4 		"/>
		<polygon fill="#FFFFFF" points="7.5,3 6.5,3 5.5,3 5.5,2 5.5,1 5.5,0 4.5,0 4.5,1 3.5,1 3.5,2 2.5,2 2.5,3 1.5,3 1.5,4 2.5,4 
			2.5,5 3.5,5 3.5,6 4.5,6 4.5,7 5.5,7 5.5,6 5.5,5 5.5,4 6.5,4 7.5,4 8.5,4 8.5,3 		"/>
	</g>
</g>
<g id="Arrow_Right">
	<g>
		<polygon opacity="0.15" points="12.5,5 13.5,5 14.5,5 14.5,6 14.5,7 14.5,8 15.5,8 15.5,7 16.5,7 16.5,6 17.5,6 17.5,5 18.5,5 
			18.5,4 17.5,4 17.5,3 16.5,3 16.5,2 15.5,2 15.5,1 14.5,1 14.5,2 14.5,3 14.5,4 13.5,4 12.5,4 11.5,4 11.5,5 		"/>
		<polygon fill="#FFFFFF" points="12.5,4 13.5,4 14.5,4 14.5,5 14.5,6 14.5,7 15.5,7 15.5,6 16.5,6 16.5,5 17.5,5 17.5,4 18.5,4 
			18.5,3 17.5,3 17.5,2 16.5,2 16.5,1 15.5,1 15.5,0 14.5,0 14.5,1 14.5,2 14.5,3 13.5,3 12.5,3 11.5,3 11.5,4 		"/>
	</g>
</g>
<g id="Arrow_Up">
	<g>
		<polygon opacity="0.15" points="25.5,7 25.5,6 25.5,5 26.5,5 27.5,5 28.5,5 28.5,4 27.5,4 27.5,3 26.5,3 26.5,2 25.5,2 25.5,1 
			24.5,1 24.5,2 23.5,2 23.5,3 22.5,3 22.5,4 21.5,4 21.5,5 22.5,5 23.5,5 24.5,5 24.5,6 24.5,7 24.5,8 25.5,8 		"/>
		<polygon fill="#FFFFFF" points="25.5,6 25.5,5 25.5,4 26.5,4 27.5,4 28.5,4 28.5,3 27.5,3 27.5,2 26.5,2 26.5,1 25.5,1 25.5,0 
			24.5,0 24.5,1 23.5,1 23.5,2 22.5,2 22.5,3 21.5,3 21.5,4 22.5,4 23.5,4 24.5,4 24.5,5 24.5,6 24.5,7 25.5,7 		"/>
	</g>
</g>
<g id="Arrow_Down">
	<g>
		<polygon opacity="0.15" points="34.5,2 34.5,3 34.5,4 33.5,4 32.5,4 31.5,4 31.5,5 32.5,5 32.5,6 33.5,6 33.5,7 34.5,7 34.5,8 
			35.5,8 35.5,7 36.5,7 36.5,6 37.5,6 37.5,5 38.5,5 38.5,4 37.5,4 36.5,4 35.5,4 35.5,3 35.5,2 35.5,1 34.5,1 		"/>
		<polygon fill="#FFFFFF" points="34.5,1 34.5,2 34.5,3.001 33.5,3.001 32.5,3.001 31.5,3.001 31.5,4 32.5,4 32.5,5 33.5,5 33.5,6 
			34.5,6 34.5,7 35.5,7 35.5,6 36.5,6 36.5,5 37.5,5 37.5,4 38.5,4 38.5,3.001 37.5,3.001 36.5,3.001 35.5,3.001 35.5,2 35.5,1 
			35.5,0 34.5,0 		"/>
	</g>
</g>
<g id="Rulers">
</g>
</svg>
