<?xml version="1.0" encoding="utf-8"?>
<!-- Generator: Adobe Illustrator 16.0.0, SVG Export Plug-In . SVG Version: 6.00 Build 0)  -->
<!DOCTYPE svg PUBLIC "-//W3C//DTD SVG 1.1//EN" "http://www.w3.org/Graphics/SVG/1.1/DTD/svg11.dtd">
<svg version="1.1" id="Layer_1" xmlns="http://www.w3.org/2000/svg" xmlns:xlink="http://www.w3.org/1999/xlink" x="0px" y="0px"
	 width="7px" height="7px" viewBox="0 0 7 7" enable-background="new 0 0 7 7" xml:space="preserve">
<g>
	<polygon points="4,0 3,0 2,0 1,0 1,1 2,1 3,1 4,1 5,1 5,0 	"/>
	<polygon points="5,1 5,2 5,3 6,3 6,2 6,1 	"/>
	<rect x="4" y="3" width="1" height="1"/>
	<polygon points="2,4 2,5 3,5 4,5 4,4 3,4 	"/>
	<polygon points="1,6 1,7 2,7 3,7 4,7 5,7 6,7 6,6 5,6 4,6 3,6 2,6 2,5 1,5 	"/>
</g>
</svg>
