<?xml version="1.0" encoding="utf-8"?>
<!-- Generator: Adobe Illustrator 16.0.0, SVG Export Plug-In . SVG Version: 6.00 Build 0)  -->
<!DOCTYPE svg PUBLIC "-//W3C//DTD SVG 1.1//EN" "http://www.w3.org/Graphics/SVG/1.1/DTD/svg11.dtd">
<svg version="1.1" id="Layer_1" xmlns="http://www.w3.org/2000/svg" xmlns:xlink="http://www.w3.org/1999/xlink" x="0px" y="0px"
	 width="7px" height="7px" viewBox="0 0 7 7" enable-background="new 0 0 7 7" xml:space="preserve">
<polygon points="0.999,4 1.999,4 2.999,4 2.999,5 2.999,6.001 2.999,7.001 3.999,7.001 3.999,6.001 4.999,6.001 4.999,5 5.999,5 
	5.999,4 6.999,4 6.999,3 5.999,3 5.999,2 4.999,2 4.999,1 3.999,1 3.999,0 2.999,0 2.999,1 2.999,2 2.999,3 1.999,3 0.999,3 
	-0.001,3 -0.001,4 "/>
</svg>
