<?xml version="1.0" encoding="utf-8"?>
<!-- Generator: Adobe Illustrator 16.0.0, SVG Export Plug-In . SVG Version: 6.00 Build 0)  -->
<!DOCTYPE svg PUBLIC "-//W3C//DTD SVG 1.1//EN" "http://www.w3.org/Graphics/SVG/1.1/DTD/svg11.dtd">
<svg version="1.1" id="Layer_1" xmlns="http://www.w3.org/2000/svg" xmlns:xlink="http://www.w3.org/1999/xlink" x="0px" y="0px"
	 width="7px" height="7px" viewBox="0 0 7 7" enable-background="new 0 0 7 7" xml:space="preserve">
<polygon points="4,6 4,5 4,4 5,4 6,4 7,4 7,3 6,3 6,2 5,2 5,1 4,1 4,0 3,0 3,1 2,1 2,2 1,2 1,3 0,3 0,4 1,4 2,4 3,4 3,5 3,6 3,7 
	4,7 "/>
</svg>
