<?xml version="1.0" encoding="utf-8"?>
<!-- Generator: Adobe Illustrator 16.0.0, SVG Export Plug-In . SVG Version: 6.00 Build 0)  -->
<!DOCTYPE svg PUBLIC "-//W3C//DTD SVG 1.1//EN" "http://www.w3.org/Graphics/SVG/1.1/DTD/svg11.dtd">
<svg version="1.1" id="Layer_1" xmlns="http://www.w3.org/2000/svg" xmlns:xlink="http://www.w3.org/1999/xlink" x="0px" y="0px"
	 width="7px" height="7px" viewBox="0 0 7 7" enable-background="new 0 0 7 7" xml:space="preserve">
<g>
	<polygon points="1.5,1 1.5,0 0.5,0 0.5,1 0.5,2 0.5,3 1.5,3 1.5,2 	"/>
	<polygon points="2.5,4 2.5,3 1.5,3 1.5,4 1.5,5 1.5,6 2.5,6 2.5,5 	"/>
	<polygon points="2.5,6 2.5,7 3.5,7 4.5,7 4.5,6 3.5,6 	"/>
	<polygon points="4.5,4 4.5,5 4.5,6 5.5,6 5.5,5 5.5,4 5.5,3 4.5,3 	"/>
	<polygon points="5.5,0 5.5,1 5.5,2 5.5,3 6.5,3 6.5,2 6.5,1 6.5,0 	"/>
</g>
</svg>
