<?xml version="1.0" encoding="utf-8"?>
<!-- Generator: Adobe Illustrator 16.0.0, SVG Export Plug-In . SVG Version: 6.00 Build 0)  -->
<!DOCTYPE svg PUBLIC "-//W3C//DTD SVG 1.1//EN" "http://www.w3.org/Graphics/SVG/1.1/DTD/svg11.dtd">
<svg version="1.1" id="Layer_1" xmlns="http://www.w3.org/2000/svg" xmlns:xlink="http://www.w3.org/1999/xlink" x="0px" y="0px"
	 width="7px" height="7px" viewBox="0 0 7 7" enable-background="new 0 0 7 7" xml:space="preserve">
<polygon points="2.5,1 3.5,1 4.5,1 5.5,1 5.5,0 4.5,0 3.5,0 2.5,0 1.5,0 1.5,1 1.5,2 1.5,3 1.5,4 1.5,5 1.5,6 1.5,7 2.5,7 3.5,7 
	4.5,7 5.5,7 5.5,6 4.5,6 3.5,6 2.5,6 2.5,5 2.5,4 3.5,4 4.5,4 5.5,4 5.5,3 4.5,3 3.5,3 2.5,3 2.5,2 "/>
</svg>
