<?xml version="1.0" standalone="no"?><!DOCTYPE svg PUBLIC "-//W3C//DTD SVG 1.1//EN" "http://www.w3.org/Graphics/SVG/1.1/DTD/svg11.dtd" ><svg xmlns="http://www.w3.org/2000/svg"><metadata>Generated by Glyphter</metadata><defs><font id="megafont-thin-caps" horiz-adv-x="0"><font-face units-per-em="1024" ascent="1024" descent="0" font-family="megafont-thin-caps" font-weight="normal" /><missing-glyph horiz-adv-x="0" /><glyph unicode="&#x0041;" d="M585.357,877.714C585.357,877.714,731.643,877.714,731.643,877.714C731.643,877.714,731.643,1024,731.643,1024C731.643,1024,585.357,1024,585.357,1024C585.357,1024,439.071,1024,439.071,1024C439.071,1024,292.786,1024,292.786,1024C292.786,1024,292.786,877.714,292.786,877.714C292.786,877.714,439.071,877.714,439.071,877.714C439.071,877.714,585.357,877.714,585.357,877.714M731.643,877.714C731.643,877.714,731.643,731.429,731.643,731.429C731.643,731.429,731.643,585.143,731.643,585.143C731.643,585.143,585.357,585.143,585.357,585.143C585.357,585.143,439.071,585.143,439.071,585.143C439.071,585.143,292.786,585.143,292.786,585.143C292.786,585.143,292.786,731.429,292.786,731.429C292.786,731.429,292.786,877.714,292.786,877.714C292.786,877.714,146.5,877.714,146.5,877.714C146.5,877.714,146.5,731.429,146.5,731.429C146.5,731.429,146.5,585.143,146.5,585.143C146.5,585.143,146.5,438.857,146.5,438.857C146.5,438.857,146.5,292.571,146.5,292.571C146.5,292.571,146.5,146.286,146.5,146.286C146.5,146.286,146.5,0,146.5,0C146.5,0,292.786,0,292.786,0C292.786,0,292.786,146.286,292.786,146.286C292.786,146.286,292.786,292.571,292.786,292.571C292.786,292.571,292.786,438.857,292.786,438.857C292.786,438.857,439.071,438.857,439.071,438.857C439.071,438.857,585.357,438.857,585.357,438.857C585.357,438.857,731.643,438.857,731.643,438.857C731.643,438.857,731.643,292.571,731.643,292.571C731.643,292.571,731.643,146.286,731.643,146.286C731.643,146.286,731.643,0,731.643,0C731.643,0,877.929,0,877.929,0C877.929,0,877.929,146.286,877.929,146.286C877.929,146.286,877.929,292.571,877.929,292.571C877.929,292.571,877.929,438.857,877.929,438.857C877.929,438.857,877.929,585.143,877.929,585.143C877.929,585.143,877.929,731.429,877.929,731.429C877.929,731.429,877.929,877.714,877.929,877.714C877.929,877.714,731.643,877.714,731.643,877.714" class="icon-megafont-thin-A"/><glyph unicode="&#x0042;" d="M731.643,146.286C731.643,146.286,877.929,146.286,877.929,146.286C877.929,146.286,877.929,292.571,877.929,292.571C877.929,292.571,877.929,438.857,877.929,438.857C877.929,438.857,731.643,438.857,731.643,438.857C731.643,438.857,731.643,292.571,731.643,292.571C731.643,292.571,731.643,146.286,731.643,146.286M439.071,585.143C439.071,585.143,292.786,585.143,292.786,585.143C292.786,585.143,292.786,731.429,292.786,731.429C292.786,731.429,292.786,877.714,292.786,877.714C292.786,877.714,439.071,877.714,439.071,877.714C439.071,877.714,585.357,877.714,585.357,877.714C585.357,877.714,731.643,877.714,731.643,877.714C731.643,877.714,731.643,1024,731.643,1024C731.643,1024,585.357,1024,585.357,1024C585.357,1024,439.071,1024,439.071,1024C439.071,1024,292.786,1024,292.786,1024C292.786,1024,146.5,1024,146.5,1024C146.5,1024,146.5,877.714,146.5,877.714C146.5,877.714,146.5,731.429,146.5,731.429C146.5,731.429,146.5,585.143,146.5,585.143C146.5,585.143,146.5,438.857,146.5,438.857C146.5,438.857,146.5,292.571,146.5,292.571C146.5,292.571,146.5,146.286,146.5,146.286C146.5,146.286,146.5,0,146.5,0C146.5,0,292.786,0,292.786,0C292.786,0,439.071,0,439.071,0C439.071,0,585.357,0,585.357,0C585.357,0,731.643,0,731.643,0C731.643,0,731.643,146.286,731.643,146.286C731.643,146.286,585.357,146.286,585.357,146.286C585.357,146.286,439.071,146.286,439.071,146.286C439.071,146.286,292.786,146.286,292.786,146.286C292.786,146.286,292.786,292.571,292.786,292.571C292.786,292.571,292.786,438.857,292.786,438.857C292.786,438.857,439.071,438.857,439.071,438.857C439.071,438.857,585.357,438.857,585.357,438.857C585.357,438.857,731.643,438.857,731.643,438.857C731.643,438.857,731.643,585.143,731.643,585.143C731.643,585.143,585.357,585.143,585.357,585.143C585.357,585.143,439.071,585.143,439.071,585.143M731.643,877.714C731.643,877.714,731.643,731.429,731.643,731.429C731.643,731.429,731.643,585.143,731.643,585.143C731.643,585.143,877.929,585.143,877.929,585.143C877.929,585.143,877.929,731.429,877.929,731.429C877.929,731.429,877.929,877.714,877.929,877.714C877.929,877.714,731.643,877.714,731.643,877.714" class="icon-megafont-thin-B"/><glyph unicode="&#x0043;" d="M585.357,877.714C585.357,877.714,731.643,877.714,731.643,877.714C731.643,877.714,877.929,877.714,877.929,877.714C877.929,877.714,877.929,1024,877.929,1024C877.929,1024,731.643,1024,731.643,1024C731.643,1024,585.357,1024,585.357,1024C585.357,1024,439.071,1024,439.071,1024C439.071,1024,292.786,1024,292.786,1024C292.786,1024,292.786,877.714,292.786,877.714C292.786,877.714,439.071,877.714,439.071,877.714C439.071,877.714,585.357,877.714,585.357,877.714M292.786,438.857C292.786,438.857,292.786,585.143,292.786,585.143C292.786,585.143,292.786,731.429,292.786,731.429C292.786,731.429,292.786,877.714,292.786,877.714C292.786,877.714,146.5,877.714,146.5,877.714C146.5,877.714,146.5,731.429,146.5,731.429C146.5,731.429,146.5,585.143,146.5,585.143C146.5,585.143,146.5,438.857,146.5,438.857C146.5,438.857,146.5,292.571,146.5,292.571C146.5,292.571,146.5,146.286,146.5,146.286C146.5,146.286,292.786,146.286,292.786,146.286C292.786,146.286,292.786,292.571,292.786,292.571C292.786,292.571,292.786,438.857,292.786,438.857M439.071,0C439.071,0,585.357,0,585.357,0C585.357,0,731.643,0,731.643,0C731.643,0,877.929,0,877.929,0C877.929,0,877.929,146.286,877.929,146.286C877.929,146.286,731.643,146.286,731.643,146.286C731.643,146.286,585.357,146.286,585.357,146.286C585.357,146.286,439.071,146.286,439.071,146.286C439.071,146.286,292.786,146.286,292.786,146.286C292.786,146.286,292.786,0,292.786,0C292.786,0,439.071,0,439.071,0" class="icon-megafont-thin-C"/><glyph unicode="&#x0044;" d="M439.071,146.286C439.071,146.286,292.786,146.286,292.786,146.286C292.786,146.286,292.786,292.571,292.786,292.571C292.786,292.571,292.786,438.857,292.786,438.857C292.786,438.857,292.786,585.143,292.786,585.143C292.786,585.143,292.786,731.429,292.786,731.429C292.786,731.429,292.786,877.714,292.786,877.714C292.786,877.714,439.071,877.714,439.071,877.714C439.071,877.714,585.357,877.714,585.357,877.714C585.357,877.714,731.643,877.714,731.643,877.714C731.643,877.714,731.643,1024,731.643,1024C731.643,1024,585.357,1024,585.357,1024C585.357,1024,439.071,1024,439.071,1024C439.071,1024,292.786,1024,292.786,1024C292.786,1024,146.5,1024,146.5,1024C146.5,1024,146.5,877.714,146.5,877.714C146.5,877.714,146.5,731.429,146.5,731.429C146.5,731.429,146.5,585.143,146.5,585.143C146.5,585.143,146.5,438.857,146.5,438.857C146.5,438.857,146.5,292.571,146.5,292.571C146.5,292.571,146.5,146.286,146.5,146.286C146.5,146.286,146.5,0,146.5,0C146.5,0,292.786,0,292.786,0C292.786,0,439.071,0,439.071,0C439.071,0,585.357,0,585.357,0C585.357,0,731.643,0,731.643,0C731.643,0,731.643,146.286,731.643,146.286C731.643,146.286,585.357,146.286,585.357,146.286C585.357,146.286,439.071,146.286,439.071,146.286M731.643,877.714C731.643,877.714,731.643,731.429,731.643,731.429C731.643,731.429,731.643,585.143,731.643,585.143C731.643,585.143,731.643,438.857,731.643,438.857C731.643,438.857,731.643,292.571,731.643,292.571C731.643,292.571,731.643,146.286,731.643,146.286C731.643,146.286,877.929,146.286,877.929,146.286C877.929,146.286,877.929,292.571,877.929,292.571C877.929,292.571,877.929,438.857,877.929,438.857C877.929,438.857,877.929,585.143,877.929,585.143C877.929,585.143,877.929,731.429,877.929,731.429C877.929,731.429,877.929,877.714,877.929,877.714C877.929,877.714,731.643,877.714,731.643,877.714" class="icon-megafont-thin-D"/><glyph unicode="&#x0045;" d="M365.786,877.714C365.786,877.714,512.071,877.714,512.071,877.714C512.071,877.714,658.357,877.714,658.357,877.714C658.357,877.714,804.643,877.714,804.643,877.714C804.643,877.714,804.643,1024,804.643,1024C804.643,1024,658.357,1024,658.357,1024C658.357,1024,512.071,1024,512.071,1024C512.071,1024,365.786,1024,365.786,1024C365.786,1024,219.5,1024,219.5,1024C219.5,1024,219.5,877.714,219.5,877.714C219.5,877.714,219.5,731.429,219.5,731.429C219.5,731.429,219.5,585.143,219.5,585.143C219.5,585.143,219.5,438.857,219.5,438.857C219.5,438.857,219.5,292.571,219.5,292.571C219.5,292.571,219.5,146.286,219.5,146.286C219.5,146.286,219.5,0,219.5,0C219.5,0,365.786,0,365.786,0C365.786,0,512.071,0,512.071,0C512.071,0,658.357,0,658.357,0C658.357,0,804.643,0,804.643,0C804.643,0,804.643,146.286,804.643,146.286C804.643,146.286,658.357,146.286,658.357,146.286C658.357,146.286,512.071,146.286,512.071,146.286C512.071,146.286,365.786,146.286,365.786,146.286C365.786,146.286,365.786,292.571,365.786,292.571C365.786,292.571,365.786,438.857,365.786,438.857C365.786,438.857,512.071,438.857,512.071,438.857C512.071,438.857,658.357,438.857,658.357,438.857C658.357,438.857,804.643,438.857,804.643,438.857C804.643,438.857,804.643,585.143,804.643,585.143C804.643,585.143,658.357,585.143,658.357,585.143C658.357,585.143,512.071,585.143,512.071,585.143C512.071,585.143,365.786,585.143,365.786,585.143C365.786,585.143,365.786,731.429,365.786,731.429C365.786,731.429,365.786,877.714,365.786,877.714" class="icon-megafont-thin-E"/><glyph unicode="&#x0046;" d="M365.786,877.714C365.786,877.714,512.071,877.714,512.071,877.714C512.071,877.714,658.357,877.714,658.357,877.714C658.357,877.714,804.643,877.714,804.643,877.714C804.643,877.714,804.643,1024,804.643,1024C804.643,1024,658.357,1024,658.357,1024C658.357,1024,512.071,1024,512.071,1024C512.071,1024,365.786,1024,365.786,1024C365.786,1024,219.5,1024,219.5,1024C219.5,1024,219.5,877.714,219.5,877.714C219.5,877.714,219.5,731.429,219.5,731.429C219.5,731.429,219.5,585.143,219.5,585.143C219.5,585.143,219.5,438.857,219.5,438.857C219.5,438.857,219.5,292.571,219.5,292.571C219.5,292.571,219.5,146.286,219.5,146.286C219.5,146.286,219.5,0,219.5,0C219.5,0,365.786,0,365.786,0C365.786,0,365.786,146.286,365.786,146.286C365.786,146.286,365.786,292.571,365.786,292.571C365.786,292.571,365.786,438.857,365.786,438.857C365.786,438.857,512.071,438.857,512.071,438.857C512.071,438.857,658.357,438.857,658.357,438.857C658.357,438.857,804.643,438.857,804.643,438.857C804.643,438.857,804.643,585.143,804.643,585.143C804.643,585.143,658.357,585.143,658.357,585.143C658.357,585.143,512.071,585.143,512.071,585.143C512.071,585.143,365.786,585.143,365.786,585.143C365.786,585.143,365.786,731.429,365.786,731.429C365.786,731.429,365.786,877.714,365.786,877.714" class="icon-megafont-thin-F"/><glyph unicode="&#x0047;" d="M292.786,438.857C292.786,438.857,292.786,585.143,292.786,585.143C292.786,585.143,292.786,731.429,292.786,731.429C292.786,731.429,292.786,877.714,292.786,877.714C292.786,877.714,146.5,877.714,146.5,877.714C146.5,877.714,146.5,731.429,146.5,731.429C146.5,731.429,146.5,585.143,146.5,585.143C146.5,585.143,146.5,438.857,146.5,438.857C146.5,438.857,146.5,292.571,146.5,292.571C146.5,292.571,146.5,146.286,146.5,146.286C146.5,146.286,292.786,146.286,292.786,146.286C292.786,146.286,292.786,292.571,292.786,292.571C292.786,292.571,292.786,438.857,292.786,438.857M439.071,0C439.071,0,585.357,0,585.357,0C585.357,0,731.643,0,731.643,0C731.643,0,731.643,146.286,731.643,146.286C731.643,146.286,585.357,146.286,585.357,146.286C585.357,146.286,439.071,146.286,439.071,146.286C439.071,146.286,292.786,146.286,292.786,146.286C292.786,146.286,292.786,0,292.786,0C292.786,0,439.071,0,439.071,0M877.929,292.571C877.929,292.571,877.929,438.857,877.929,438.857C877.929,438.857,877.929,585.143,877.929,585.143C877.929,585.143,731.643,585.143,731.643,585.143C731.643,585.143,585.357,585.143,585.357,585.143C585.357,585.143,585.357,438.857,585.357,438.857C585.357,438.857,731.643,438.857,731.643,438.857C731.643,438.857,731.643,292.571,731.643,292.571C731.643,292.571,731.643,146.286,731.643,146.286C731.643,146.286,877.929,146.286,877.929,146.286C877.929,146.286,877.929,292.571,877.929,292.571M585.357,877.714C585.357,877.714,731.643,877.714,731.643,877.714C731.643,877.714,877.929,877.714,877.929,877.714C877.929,877.714,877.929,1024,877.929,1024C877.929,1024,731.643,1024,731.643,1024C731.643,1024,585.357,1024,585.357,1024C585.357,1024,439.071,1024,439.071,1024C439.071,1024,292.786,1024,292.786,1024C292.786,1024,292.786,877.714,292.786,877.714C292.786,877.714,439.071,877.714,439.071,877.714C439.071,877.714,585.357,877.714,585.357,877.714" class="icon-megafont-thin-G"/><glyph unicode="&#x0048;" d="M731.643,1024C731.643,1024,731.643,877.714,731.643,877.714C731.643,877.714,731.643,731.429,731.643,731.429C731.643,731.429,731.643,585.143,731.643,585.143C731.643,585.143,585.357,585.143,585.357,585.143C585.357,585.143,439.071,585.143,439.071,585.143C439.071,585.143,292.786,585.143,292.786,585.143C292.786,585.143,292.786,731.429,292.786,731.429C292.786,731.429,292.786,877.714,292.786,877.714C292.786,877.714,292.786,1024,292.786,1024C292.786,1024,146.5,1024,146.5,1024C146.5,1024,146.5,877.714,146.5,877.714C146.5,877.714,146.5,731.429,146.5,731.429C146.5,731.429,146.5,585.143,146.5,585.143C146.5,585.143,146.5,438.857,146.5,438.857C146.5,438.857,146.5,292.571,146.5,292.571C146.5,292.571,146.5,146.286,146.5,146.286C146.5,146.286,146.5,0,146.5,0C146.5,0,292.786,0,292.786,0C292.786,0,292.786,146.286,292.786,146.286C292.786,146.286,292.786,292.571,292.786,292.571C292.786,292.571,292.786,438.857,292.786,438.857C292.786,438.857,439.071,438.857,439.071,438.857C439.071,438.857,585.357,438.857,585.357,438.857C585.357,438.857,731.643,438.857,731.643,438.857C731.643,438.857,731.643,292.571,731.643,292.571C731.643,292.571,731.643,146.286,731.643,146.286C731.643,146.286,731.643,0,731.643,0C731.643,0,877.929,0,877.929,0C877.929,0,877.929,146.286,877.929,146.286C877.929,146.286,877.929,292.571,877.929,292.571C877.929,292.571,877.929,438.857,877.929,438.857C877.929,438.857,877.929,585.143,877.929,585.143C877.929,585.143,877.929,731.429,877.929,731.429C877.929,731.429,877.929,877.714,877.929,877.714C877.929,877.714,877.929,1024,877.929,1024C877.929,1024,731.643,1024,731.643,1024" class="icon-megafont-thin-H"/><glyph unicode="&#x0049;" d="M439,1024C439,1024,439,877.714,439,877.714C439,877.714,439,877.714,439,877.714C439,877.714,439,731.429,439,731.429C439,731.429,439,731.429,439,731.429C439,731.429,439,585.143,439,585.143C439,585.143,439,585.143,439,585.143C439,585.143,439,438.857,439,438.857C439,438.857,439,292.571,439,292.571C439,292.571,439,146.286,439,146.286C439,146.286,439,0,439,0C439,0,585.286,0,585.286,0C585.286,0,585.286,146.286,585.286,146.286C585.286,146.286,585.286,292.571,585.286,292.571C585.286,292.571,585.286,438.857,585.286,438.857C585.286,438.857,585.286,585.143,585.286,585.143C585.286,585.143,585.286,585.143,585.286,585.143C585.286,585.143,585.286,731.429,585.286,731.429C585.286,731.429,585.286,731.429,585.286,731.429C585.286,731.429,585.286,877.714,585.286,877.714C585.286,877.714,585.286,877.714,585.286,877.714C585.286,877.714,585.286,1024,585.286,1024C585.286,1024,439,1024,439,1024" class="icon-megafont-thin-I"/><glyph unicode="&#x004a;" d="M292.786,438.857C292.786,438.857,146.5,438.857,146.5,438.857C146.5,438.857,146.5,292.571,146.5,292.571C146.5,292.571,146.5,146.286,146.5,146.286C146.5,146.286,292.786,146.286,292.786,146.286C292.786,146.286,292.786,292.571,292.786,292.571C292.786,292.571,292.786,438.857,292.786,438.857M439.071,146.286C439.071,146.286,292.786,146.286,292.786,146.286C292.786,146.286,292.786,0,292.786,0C292.786,0,439.071,0,439.071,0C439.071,0,585.357,0,585.357,0C585.357,0,731.643,0,731.643,0C731.643,0,731.643,146.286,731.643,146.286C731.643,146.286,585.357,146.286,585.357,146.286C585.357,146.286,439.071,146.286,439.071,146.286M731.643,1024C731.643,1024,731.643,877.714,731.643,877.714C731.643,877.714,731.643,731.429,731.643,731.429C731.643,731.429,731.643,585.143,731.643,585.143C731.643,585.143,731.643,438.857,731.643,438.857C731.643,438.857,731.643,292.571,731.643,292.571C731.643,292.571,731.643,146.286,731.643,146.286C731.643,146.286,877.929,146.286,877.929,146.286C877.929,146.286,877.929,292.571,877.929,292.571C877.929,292.571,877.929,438.857,877.929,438.857C877.929,438.857,877.929,585.143,877.929,585.143C877.929,585.143,877.929,731.429,877.929,731.429C877.929,731.429,877.929,877.714,877.929,877.714C877.929,877.714,877.929,1024,877.929,1024C877.929,1024,731.643,1024,731.643,1024" class="icon-megafont-thin-J"/><glyph unicode="&#x004b;" d="M439.071,585.143C439.071,585.143,292.786,585.143,292.786,585.143C292.786,585.143,292.786,731.429,292.786,731.429C292.786,731.429,292.786,877.714,292.786,877.714C292.786,877.714,292.786,1024,292.786,1024C292.786,1024,146.5,1024,146.5,1024C146.5,1024,146.5,877.714,146.5,877.714C146.5,877.714,146.5,731.429,146.5,731.429C146.5,731.429,146.5,585.143,146.5,585.143C146.5,585.143,146.5,438.857,146.5,438.857C146.5,438.857,146.5,292.571,146.5,292.571C146.5,292.571,146.5,146.286,146.5,146.286C146.5,146.286,146.5,0,146.5,0C146.5,0,292.786,0,292.786,0C292.786,0,292.786,146.286,292.786,146.286C292.786,146.286,292.786,292.571,292.786,292.571C292.786,292.571,292.786,438.857,292.786,438.857C292.786,438.857,439.071,438.857,439.071,438.857C439.071,438.857,585.357,438.857,585.357,438.857C585.357,438.857,731.643,438.857,731.643,438.857C731.643,438.857,731.643,585.143,731.643,585.143C731.643,585.143,585.357,585.143,585.357,585.143C585.357,585.143,439.071,585.143,439.071,585.143M731.643,1024C731.643,1024,731.643,877.714,731.643,877.714C731.643,877.714,731.643,731.429,731.643,731.429C731.643,731.429,731.643,585.143,731.643,585.143C731.643,585.143,877.929,585.143,877.929,585.143C877.929,585.143,877.929,731.429,877.929,731.429C877.929,731.429,877.929,877.714,877.929,877.714C877.929,877.714,877.929,1024,877.929,1024C877.929,1024,731.643,1024,731.643,1024M731.643,146.286C731.643,146.286,731.643,0,731.643,0C731.643,0,877.929,0,877.929,0C877.929,0,877.929,146.286,877.929,146.286C877.929,146.286,877.929,292.571,877.929,292.571C877.929,292.571,877.929,438.857,877.929,438.857C877.929,438.857,731.643,438.857,731.643,438.857C731.643,438.857,731.643,292.571,731.643,292.571C731.643,292.571,731.643,146.286,731.643,146.286" class="icon-megafont-thin-K"/><glyph unicode="&#x004c;" d="M658.357,146.286C658.357,146.286,512.071,146.286,512.071,146.286C512.071,146.286,365.786,146.286,365.786,146.286C365.786,146.286,365.786,292.571,365.786,292.571C365.786,292.571,365.786,438.857,365.786,438.857C365.786,438.857,365.786,585.143,365.786,585.143C365.786,585.143,365.786,731.429,365.786,731.429C365.786,731.429,365.786,877.714,365.786,877.714C365.786,877.714,365.786,1024,365.786,1024C365.786,1024,219.5,1024,219.5,1024C219.5,1024,219.5,877.714,219.5,877.714C219.5,877.714,219.5,731.429,219.5,731.429C219.5,731.429,219.5,585.143,219.5,585.143C219.5,585.143,219.5,438.857,219.5,438.857C219.5,438.857,219.5,292.571,219.5,292.571C219.5,292.571,219.5,146.286,219.5,146.286C219.5,146.286,219.5,0,219.5,0C219.5,0,365.786,0,365.786,0C365.786,0,512.071,0,512.071,0C512.071,0,658.357,0,658.357,0C658.357,0,804.643,0,804.643,0C804.643,0,804.643,146.286,804.643,146.286C804.643,146.286,658.357,146.286,658.357,146.286" class="icon-megafont-thin-L"/><glyph unicode="&#x004d;" d="M146.286,877.714C146.286,877.714,146.286,1024,146.286,1024C146.286,1024,0,1024,0,1024C0,1024,0,877.714,0,877.714C0,877.714,0,731.429,0,731.429C0,731.429,0,585.143,0,585.143C0,585.143,0,438.857,0,438.857C0,438.857,0,292.571,0,292.571C0,292.571,0,146.286,0,146.286C0,146.286,0,0,0,0C0,0,146.286,0,146.286,0C146.286,0,146.286,146.286,146.286,146.286C146.286,146.286,146.286,292.571,146.286,292.571C146.286,292.571,146.286,438.857,146.286,438.857C146.286,438.857,146.286,585.143,146.286,585.143C146.286,585.143,146.286,731.429,146.286,731.429C146.286,731.429,292.571,731.429,292.571,731.429C292.571,731.429,292.571,877.714,292.571,877.714C292.571,877.714,146.286,877.714,146.286,877.714M292.571,731.429C292.571,731.429,292.571,585.143,292.571,585.143C292.571,585.143,438.857,585.143,438.857,585.143C438.857,585.143,438.857,731.429,438.857,731.429C438.857,731.429,292.571,731.429,292.571,731.429M438.857,585.143C438.857,585.143,438.857,438.857,438.857,438.857C438.857,438.857,585.143,438.857,585.143,438.857C585.143,438.857,585.143,585.143,585.143,585.143C585.143,585.143,438.857,585.143,438.857,585.143M585.143,731.429C585.143,731.429,585.143,585.143,585.143,585.143C585.143,585.143,731.429,585.143,731.429,585.143C731.429,585.143,731.429,731.429,731.429,731.429C731.429,731.429,585.143,731.429,585.143,731.429M877.714,1024C877.714,1024,877.714,877.714,877.714,877.714C877.714,877.714,731.429,877.714,731.429,877.714C731.429,877.714,731.429,731.429,731.429,731.429C731.429,731.429,877.714,731.429,877.714,731.429C877.714,731.429,877.714,585.143,877.714,585.143C877.714,585.143,877.714,438.857,877.714,438.857C877.714,438.857,877.714,292.571,877.714,292.571C877.714,292.571,877.714,146.286,877.714,146.286C877.714,146.286,877.714,0,877.714,0C877.714,0,1024,0,1024,0C1024,0,1024,146.286,1024,146.286C1024,146.286,1024,292.571,1024,292.571C1024,292.571,1024,438.857,1024,438.857C1024,438.857,1024,585.143,1024,585.143C1024,585.143,1024,731.429,1024,731.429C1024,731.429,1024,877.714,1024,877.714C1024,877.714,1024,1024,1024,1024C1024,1024,877.714,1024,877.714,1024" class="icon-megafont-thin-M"/><glyph unicode="&#x004e;" d="M292.786,877.714C292.786,877.714,292.786,1024,292.786,1024C292.786,1024,146.5,1024,146.5,1024C146.5,1024,146.5,877.714,146.5,877.714C146.5,877.714,146.5,731.429,146.5,731.429C146.5,731.429,146.5,585.143,146.5,585.143C146.5,585.143,146.5,438.857,146.5,438.857C146.5,438.857,146.5,292.571,146.5,292.571C146.5,292.571,146.5,146.286,146.5,146.286C146.5,146.286,146.5,0,146.5,0C146.5,0,292.786,0,292.786,0C292.786,0,292.786,146.286,292.786,146.286C292.786,146.286,292.786,292.571,292.786,292.571C292.786,292.571,292.786,438.857,292.786,438.857C292.786,438.857,292.786,585.143,292.786,585.143C292.786,585.143,292.786,731.429,292.786,731.429C292.786,731.429,439.071,731.429,439.071,731.429C439.071,731.429,439.071,877.714,439.071,877.714C439.071,877.714,292.786,877.714,292.786,877.714M439.071,731.429C439.071,731.429,439.071,585.143,439.071,585.143C439.071,585.143,585.357,585.143,585.357,585.143C585.357,585.143,585.357,731.429,585.357,731.429C585.357,731.429,439.071,731.429,439.071,731.429M731.643,1024C731.643,1024,731.643,877.714,731.643,877.714C731.643,877.714,731.643,731.429,731.643,731.429C731.643,731.429,731.643,585.143,731.643,585.143C731.643,585.143,585.357,585.143,585.357,585.143C585.357,585.143,585.357,438.857,585.357,438.857C585.357,438.857,731.643,438.857,731.643,438.857C731.643,438.857,731.643,292.571,731.643,292.571C731.643,292.571,731.643,146.286,731.643,146.286C731.643,146.286,731.643,0,731.643,0C731.643,0,877.929,0,877.929,0C877.929,0,877.929,146.286,877.929,146.286C877.929,146.286,877.929,292.571,877.929,292.571C877.929,292.571,877.929,438.857,877.929,438.857C877.929,438.857,877.929,585.143,877.929,585.143C877.929,585.143,877.929,731.429,877.929,731.429C877.929,731.429,877.929,877.714,877.929,877.714C877.929,877.714,877.929,1024,877.929,1024C877.929,1024,731.643,1024,731.643,1024" class="icon-megafont-thin-N"/><glyph unicode="&#x004f;" d="M292.786,438.857C292.786,438.857,292.786,585.143,292.786,585.143C292.786,585.143,292.786,731.429,292.786,731.429C292.786,731.429,292.786,877.714,292.786,877.714C292.786,877.714,146.5,877.714,146.5,877.714C146.5,877.714,146.5,731.429,146.5,731.429C146.5,731.429,146.5,585.143,146.5,585.143C146.5,585.143,146.5,438.857,146.5,438.857C146.5,438.857,146.5,292.571,146.5,292.571C146.5,292.571,146.5,146.286,146.5,146.286C146.5,146.286,292.786,146.286,292.786,146.286C292.786,146.286,292.786,292.571,292.786,292.571C292.786,292.571,292.786,438.857,292.786,438.857M439.071,146.286C439.071,146.286,292.786,146.286,292.786,146.286C292.786,146.286,292.786,0,292.786,0C292.786,0,439.071,0,439.071,0C439.071,0,585.357,0,585.357,0C585.357,0,731.643,0,731.643,0C731.643,0,731.643,146.286,731.643,146.286C731.643,146.286,585.357,146.286,585.357,146.286C585.357,146.286,439.071,146.286,439.071,146.286M731.643,877.714C731.643,877.714,731.643,731.429,731.643,731.429C731.643,731.429,731.643,585.143,731.643,585.143C731.643,585.143,731.643,438.857,731.643,438.857C731.643,438.857,731.643,292.571,731.643,292.571C731.643,292.571,731.643,146.286,731.643,146.286C731.643,146.286,877.929,146.286,877.929,146.286C877.929,146.286,877.929,292.571,877.929,292.571C877.929,292.571,877.929,438.857,877.929,438.857C877.929,438.857,877.929,585.143,877.929,585.143C877.929,585.143,877.929,731.429,877.929,731.429C877.929,731.429,877.929,877.714,877.929,877.714C877.929,877.714,731.643,877.714,731.643,877.714M585.357,877.714C585.357,877.714,731.643,877.714,731.643,877.714C731.643,877.714,731.643,1024,731.643,1024C731.643,1024,585.357,1024,585.357,1024C585.357,1024,439.071,1024,439.071,1024C439.071,1024,292.786,1024,292.786,1024C292.786,1024,292.786,877.714,292.786,877.714C292.786,877.714,439.071,877.714,439.071,877.714C439.071,877.714,585.357,877.714,585.357,877.714" class="icon-megafont-thin-O"/><glyph unicode="&#x0050;" d="M731.643,877.714C731.643,877.714,731.643,731.429,731.643,731.429C731.643,731.429,731.643,585.143,731.643,585.143C731.643,585.143,877.929,585.143,877.929,585.143C877.929,585.143,877.929,731.429,877.929,731.429C877.929,731.429,877.929,877.714,877.929,877.714C877.929,877.714,731.643,877.714,731.643,877.714M439.071,585.143C439.071,585.143,292.786,585.143,292.786,585.143C292.786,585.143,292.786,731.429,292.786,731.429C292.786,731.429,292.786,877.714,292.786,877.714C292.786,877.714,439.071,877.714,439.071,877.714C439.071,877.714,585.357,877.714,585.357,877.714C585.357,877.714,731.643,877.714,731.643,877.714C731.643,877.714,731.643,1024,731.643,1024C731.643,1024,585.357,1024,585.357,1024C585.357,1024,439.071,1024,439.071,1024C439.071,1024,292.786,1024,292.786,1024C292.786,1024,146.5,1024,146.5,1024C146.5,1024,146.5,877.714,146.5,877.714C146.5,877.714,146.5,731.429,146.5,731.429C146.5,731.429,146.5,585.143,146.5,585.143C146.5,585.143,146.5,438.857,146.5,438.857C146.5,438.857,146.5,292.571,146.5,292.571C146.5,292.571,146.5,146.286,146.5,146.286C146.5,146.286,146.5,0,146.5,0C146.5,0,292.786,0,292.786,0C292.786,0,292.786,146.286,292.786,146.286C292.786,146.286,292.786,292.571,292.786,292.571C292.786,292.571,292.786,438.857,292.786,438.857C292.786,438.857,439.071,438.857,439.071,438.857C439.071,438.857,585.357,438.857,585.357,438.857C585.357,438.857,731.643,438.857,731.643,438.857C731.643,438.857,731.643,585.143,731.643,585.143C731.643,585.143,585.357,585.143,585.357,585.143C585.357,585.143,439.071,585.143,439.071,585.143" class="icon-megafont-thin-P"/><glyph unicode="&#x0051;" d="M320,512C320,512,320,640,320,640C320,640,320,768,320,768C320,768,320,896,320,896C320,896,192,896,192,896C192,896,192,768,192,768C192,768,192,640,192,640C192,640,192,512,192,512C192,512,192,384,192,384C192,384,192,256,192,256C192,256,320,256,320,256C320,256,320,384,320,384C320,384,320,512,320,512M448,256C448,256,320,256,320,256C320,256,320,128,320,128C320,128,448,128,448,128C448,128,576,128,576,128C576,128,704,128,704,128C704,128,704,256,704,256C704,256,576,256,576,256C576,256,448,256,448,256M704,128C704,128,704,0,704,0C704,0,832,0,832,0C832,0,832,128,832,128C832,128,704,128,704,128M704,896C704,896,704,768,704,768C704,768,704,640,704,640C704,640,704,512,704,512C704,512,704,384,704,384C704,384,704,256,704,256C704,256,832,256,832,256C832,256,832,384,832,384C832,384,832,512,832,512C832,512,832,640,832,640C832,640,832,768,832,768C832,768,832,896,832,896C832,896,704,896,704,896M576,896C576,896,704,896,704,896C704,896,704,1024,704,1024C704,1024,576,1024,576,1024C576,1024,448,1024,448,1024C448,1024,320,1024,320,1024C320,1024,320,896,320,896C320,896,448,896,448,896C448,896,576,896,576,896" class="icon-megafont-thin-Q"/><glyph unicode="&#x0052;" d="M731.643,877.714C731.643,877.714,731.643,731.429,731.643,731.429C731.643,731.429,731.643,585.143,731.643,585.143C731.643,585.143,877.929,585.143,877.929,585.143C877.929,585.143,877.929,731.429,877.929,731.429C877.929,731.429,877.929,877.714,877.929,877.714C877.929,877.714,731.643,877.714,731.643,877.714M439.071,585.143C439.071,585.143,292.786,585.143,292.786,585.143C292.786,585.143,292.786,731.429,292.786,731.429C292.786,731.429,292.786,877.714,292.786,877.714C292.786,877.714,439.071,877.714,439.071,877.714C439.071,877.714,585.357,877.714,585.357,877.714C585.357,877.714,731.643,877.714,731.643,877.714C731.643,877.714,731.643,1024,731.643,1024C731.643,1024,585.357,1024,585.357,1024C585.357,1024,439.071,1024,439.071,1024C439.071,1024,292.786,1024,292.786,1024C292.786,1024,146.5,1024,146.5,1024C146.5,1024,146.5,877.714,146.5,877.714C146.5,877.714,146.5,731.429,146.5,731.429C146.5,731.429,146.5,585.143,146.5,585.143C146.5,585.143,146.5,438.857,146.5,438.857C146.5,438.857,146.5,292.571,146.5,292.571C146.5,292.571,146.5,146.286,146.5,146.286C146.5,146.286,146.5,0,146.5,0C146.5,0,292.786,0,292.786,0C292.786,0,292.786,146.286,292.786,146.286C292.786,146.286,292.786,292.571,292.786,292.571C292.786,292.571,292.786,438.857,292.786,438.857C292.786,438.857,439.071,438.857,439.071,438.857C439.071,438.857,585.357,438.857,585.357,438.857C585.357,438.857,731.643,438.857,731.643,438.857C731.643,438.857,731.643,585.143,731.643,585.143C731.643,585.143,585.357,585.143,585.357,585.143C585.357,585.143,439.071,585.143,439.071,585.143M731.643,146.286C731.643,146.286,731.643,0,731.643,0C731.643,0,877.929,0,877.929,0C877.929,0,877.929,146.286,877.929,146.286C877.929,146.286,877.929,292.571,877.929,292.571C877.929,292.571,877.929,438.857,877.929,438.857C877.929,438.857,731.643,438.857,731.643,438.857C731.643,438.857,731.643,292.571,731.643,292.571C731.643,292.571,731.643,146.286,731.643,146.286" class="icon-megafont-thin-R"/><glyph unicode="&#x0053;" d="M292.786,877.714C292.786,877.714,146.5,877.714,146.5,877.714C146.5,877.714,146.5,731.429,146.5,731.429C146.5,731.429,146.5,585.143,146.5,585.143C146.5,585.143,292.786,585.143,292.786,585.143C292.786,585.143,292.786,731.429,292.786,731.429C292.786,731.429,292.786,877.714,292.786,877.714M585.357,877.714C585.357,877.714,731.643,877.714,731.643,877.714C731.643,877.714,877.929,877.714,877.929,877.714C877.929,877.714,877.929,1024,877.929,1024C877.929,1024,731.643,1024,731.643,1024C731.643,1024,585.357,1024,585.357,1024C585.357,1024,439.071,1024,439.071,1024C439.071,1024,292.786,1024,292.786,1024C292.786,1024,292.786,877.714,292.786,877.714C292.786,877.714,439.071,877.714,439.071,877.714C439.071,877.714,585.357,877.714,585.357,877.714M439.071,438.857C439.071,438.857,585.357,438.857,585.357,438.857C585.357,438.857,731.643,438.857,731.643,438.857C731.643,438.857,731.643,585.143,731.643,585.143C731.643,585.143,585.357,585.143,585.357,585.143C585.357,585.143,439.071,585.143,439.071,585.143C439.071,585.143,292.786,585.143,292.786,585.143C292.786,585.143,292.786,438.857,292.786,438.857C292.786,438.857,439.071,438.857,439.071,438.857M731.643,146.286C731.643,146.286,877.929,146.286,877.929,146.286C877.929,146.286,877.929,292.571,877.929,292.571C877.929,292.571,877.929,438.857,877.929,438.857C877.929,438.857,731.643,438.857,731.643,438.857C731.643,438.857,731.643,292.571,731.643,292.571C731.643,292.571,731.643,146.286,731.643,146.286M439.071,146.286C439.071,146.286,292.786,146.286,292.786,146.286C292.786,146.286,146.5,146.286,146.5,146.286C146.5,146.286,146.5,0,146.5,0C146.5,0,292.786,0,292.786,0C292.786,0,439.071,0,439.071,0C439.071,0,585.357,0,585.357,0C585.357,0,731.643,0,731.643,0C731.643,0,731.643,146.286,731.643,146.286C731.643,146.286,585.357,146.286,585.357,146.286C585.357,146.286,439.071,146.286,439.071,146.286" class="icon-megafont-thin-S"/><glyph unicode="&#x0054;" d="M731.643,1024C731.643,1024,585.357,1024,585.357,1024C585.357,1024,439.071,1024,439.071,1024C439.071,1024,292.786,1024,292.786,1024C292.786,1024,146.5,1024,146.5,1024C146.5,1024,146.5,877.714,146.5,877.714C146.5,877.714,292.786,877.714,292.786,877.714C292.786,877.714,439.071,877.714,439.071,877.714C439.071,877.714,439.071,731.429,439.071,731.429C439.071,731.429,439.071,585.143,439.071,585.143C439.071,585.143,439.071,438.857,439.071,438.857C439.071,438.857,439.071,292.571,439.071,292.571C439.071,292.571,439.071,146.286,439.071,146.286C439.071,146.286,439.071,0,439.071,0C439.071,0,585.357,0,585.357,0C585.357,0,585.357,146.286,585.357,146.286C585.357,146.286,585.357,292.571,585.357,292.571C585.357,292.571,585.357,438.857,585.357,438.857C585.357,438.857,585.357,585.143,585.357,585.143C585.357,585.143,585.357,731.429,585.357,731.429C585.357,731.429,585.357,877.714,585.357,877.714C585.357,877.714,731.643,877.714,731.643,877.714C731.643,877.714,877.929,877.714,877.929,877.714C877.929,877.714,877.929,1024,877.929,1024C877.929,1024,731.643,1024,731.643,1024" class="icon-megafont-thin-T"/><glyph unicode="&#x0055;" d="M292.786,438.857C292.786,438.857,292.786,585.143,292.786,585.143C292.786,585.143,292.786,731.429,292.786,731.429C292.786,731.429,292.786,877.714,292.786,877.714C292.786,877.714,292.786,1024,292.786,1024C292.786,1024,146.5,1024,146.5,1024C146.5,1024,146.5,877.714,146.5,877.714C146.5,877.714,146.5,731.429,146.5,731.429C146.5,731.429,146.5,585.143,146.5,585.143C146.5,585.143,146.5,438.857,146.5,438.857C146.5,438.857,146.5,292.571,146.5,292.571C146.5,292.571,146.5,146.286,146.5,146.286C146.5,146.286,292.786,146.286,292.786,146.286C292.786,146.286,292.786,292.571,292.786,292.571C292.786,292.571,292.786,438.857,292.786,438.857M439.071,146.286C439.071,146.286,292.786,146.286,292.786,146.286C292.786,146.286,292.786,0,292.786,0C292.786,0,439.071,0,439.071,0C439.071,0,585.357,0,585.357,0C585.357,0,731.643,0,731.643,0C731.643,0,731.643,146.286,731.643,146.286C731.643,146.286,585.357,146.286,585.357,146.286C585.357,146.286,439.071,146.286,439.071,146.286M731.643,1024C731.643,1024,731.643,877.714,731.643,877.714C731.643,877.714,731.643,731.429,731.643,731.429C731.643,731.429,731.643,585.143,731.643,585.143C731.643,585.143,731.643,438.857,731.643,438.857C731.643,438.857,731.643,292.571,731.643,292.571C731.643,292.571,731.643,146.286,731.643,146.286C731.643,146.286,877.929,146.286,877.929,146.286C877.929,146.286,877.929,292.571,877.929,292.571C877.929,292.571,877.929,438.857,877.929,438.857C877.929,438.857,877.929,585.143,877.929,585.143C877.929,585.143,877.929,731.429,877.929,731.429C877.929,731.429,877.929,877.714,877.929,877.714C877.929,877.714,877.929,1024,877.929,1024C877.929,1024,731.643,1024,731.643,1024" class="icon-megafont-thin-U"/><glyph unicode="&#x0056;" d="M219.786,877.714C219.786,877.714,219.786,1024,219.786,1024C219.786,1024,73.5,1024,73.5,1024C73.5,1024,73.5,877.714,73.5,877.714C73.5,877.714,73.5,731.429,73.5,731.429C73.5,731.429,73.5,585.143,73.5,585.143C73.5,585.143,219.786,585.143,219.786,585.143C219.786,585.143,219.786,731.429,219.786,731.429C219.786,731.429,219.786,877.714,219.786,877.714M366.071,438.857C366.071,438.857,366.071,585.143,366.071,585.143C366.071,585.143,219.786,585.143,219.786,585.143C219.786,585.143,219.786,438.857,219.786,438.857C219.786,438.857,219.786,292.571,219.786,292.571C219.786,292.571,219.786,146.286,219.786,146.286C219.786,146.286,366.071,146.286,366.071,146.286C366.071,146.286,366.071,292.571,366.071,292.571C366.071,292.571,366.071,438.857,366.071,438.857M366.071,146.286C366.071,146.286,366.071,0,366.071,0C366.071,0,512.357,0,512.357,0C512.357,0,658.643,0,658.643,0C658.643,0,658.643,146.286,658.643,146.286C658.643,146.286,512.357,146.286,512.357,146.286C512.357,146.286,366.071,146.286,366.071,146.286M658.643,438.857C658.643,438.857,658.643,292.571,658.643,292.571C658.643,292.571,658.643,146.286,658.643,146.286C658.643,146.286,804.929,146.286,804.929,146.286C804.929,146.286,804.929,292.571,804.929,292.571C804.929,292.571,804.929,438.857,804.929,438.857C804.929,438.857,804.929,585.143,804.929,585.143C804.929,585.143,658.643,585.143,658.643,585.143C658.643,585.143,658.643,438.857,658.643,438.857M804.929,1024C804.929,1024,804.929,877.714,804.929,877.714C804.929,877.714,804.929,731.429,804.929,731.429C804.929,731.429,804.929,585.143,804.929,585.143C804.929,585.143,951.214,585.143,951.214,585.143C951.214,585.143,951.214,731.429,951.214,731.429C951.214,731.429,951.214,877.714,951.214,877.714C951.214,877.714,951.214,1024,951.214,1024C951.214,1024,804.929,1024,804.929,1024" class="icon-megafont-thin-V"/><glyph unicode="&#x0057;" d="M146.286,438.857C146.286,438.857,146.286,585.143,146.286,585.143C146.286,585.143,146.286,731.429,146.286,731.429C146.286,731.429,146.286,877.714,146.286,877.714C146.286,877.714,146.286,1024,146.286,1024C146.286,1024,0,1024,0,1024C0,1024,0,877.714,0,877.714C0,877.714,0,731.429,0,731.429C0,731.429,0,585.143,0,585.143C0,585.143,0,438.857,0,438.857C0,438.857,0,292.571,0,292.571C0,292.571,0,146.286,0,146.286C0,146.286,146.286,146.286,146.286,146.286C146.286,146.286,146.286,292.571,146.286,292.571C146.286,292.571,146.286,438.857,146.286,438.857M146.286,146.286C146.286,146.286,146.286,0,146.286,0C146.286,0,292.571,0,292.571,0C292.571,0,292.571,146.286,292.571,146.286C292.571,146.286,146.286,146.286,146.286,146.286M292.571,292.571C292.571,292.571,292.571,146.286,292.571,146.286C292.571,146.286,438.857,146.286,438.857,146.286C438.857,146.286,438.857,292.571,438.857,292.571C438.857,292.571,292.571,292.571,292.571,292.571M438.857,438.857C438.857,438.857,438.857,292.571,438.857,292.571C438.857,292.571,585.143,292.571,585.143,292.571C585.143,292.571,585.143,438.857,585.143,438.857C585.143,438.857,438.857,438.857,438.857,438.857M585.143,292.571C585.143,292.571,585.143,146.286,585.143,146.286C585.143,146.286,731.429,146.286,731.429,146.286C731.429,146.286,731.429,292.571,731.429,292.571C731.429,292.571,585.143,292.571,585.143,292.571M731.429,146.286C731.429,146.286,731.429,0,731.429,0C731.429,0,877.714,0,877.714,0C877.714,0,877.714,146.286,877.714,146.286C877.714,146.286,731.429,146.286,731.429,146.286M877.714,1024C877.714,1024,877.714,877.714,877.714,877.714C877.714,877.714,877.714,731.429,877.714,731.429C877.714,731.429,877.714,585.143,877.714,585.143C877.714,585.143,877.714,438.857,877.714,438.857C877.714,438.857,877.714,292.571,877.714,292.571C877.714,292.571,877.714,146.286,877.714,146.286C877.714,146.286,1024,146.286,1024,146.286C1024,146.286,1024,292.571,1024,292.571C1024,292.571,1024,438.857,1024,438.857C1024,438.857,1024,585.143,1024,585.143C1024,585.143,1024,731.429,1024,731.429C1024,731.429,1024,877.714,1024,877.714C1024,877.714,1024,1024,1024,1024C1024,1024,877.714,1024,877.714,1024" class="icon-megafont-thin-W"/><glyph unicode="&#x0058;" d="M219.786,1024C219.786,1024,73.5,1024,73.5,1024C73.5,1024,73.5,877.714,73.5,877.714C73.5,877.714,73.5,731.429,73.5,731.429C73.5,731.429,219.786,731.429,219.786,731.429C219.786,731.429,219.786,877.714,219.786,877.714C219.786,877.714,219.786,1024,219.786,1024M219.786,731.429C219.786,731.429,219.786,585.143,219.786,585.143C219.786,585.143,366.071,585.143,366.071,585.143C366.071,585.143,366.071,731.429,366.071,731.429C366.071,731.429,219.786,731.429,219.786,731.429M366.071,585.143C366.071,585.143,366.071,438.857,366.071,438.857C366.071,438.857,512.357,438.857,512.357,438.857C512.357,438.857,658.643,438.857,658.643,438.857C658.643,438.857,658.643,585.143,658.643,585.143C658.643,585.143,512.357,585.143,512.357,585.143C512.357,585.143,366.071,585.143,366.071,585.143M658.643,731.429C658.643,731.429,658.643,585.143,658.643,585.143C658.643,585.143,804.929,585.143,804.929,585.143C804.929,585.143,804.929,731.429,804.929,731.429C804.929,731.429,658.643,731.429,658.643,731.429M219.786,438.857C219.786,438.857,219.786,292.571,219.786,292.571C219.786,292.571,366.071,292.571,366.071,292.571C366.071,292.571,366.071,438.857,366.071,438.857C366.071,438.857,219.786,438.857,219.786,438.857M73.5,146.286C73.5,146.286,73.5,0,73.5,0C73.5,0,219.786,0,219.786,0C219.786,0,219.786,146.286,219.786,146.286C219.786,146.286,219.786,292.571,219.786,292.571C219.786,292.571,73.5,292.571,73.5,292.571C73.5,292.571,73.5,146.286,73.5,146.286M658.643,438.857C658.643,438.857,658.643,292.571,658.643,292.571C658.643,292.571,804.929,292.571,804.929,292.571C804.929,292.571,804.929,438.857,804.929,438.857C804.929,438.857,658.643,438.857,658.643,438.857M804.929,0C804.929,0,951.214,0,951.214,0C951.214,0,951.214,146.286,951.214,146.286C951.214,146.286,951.214,292.571,951.214,292.571C951.214,292.571,804.929,292.571,804.929,292.571C804.929,292.571,804.929,146.286,804.929,146.286C804.929,146.286,804.929,0,804.929,0M804.929,1024C804.929,1024,804.929,877.714,804.929,877.714C804.929,877.714,804.929,731.429,804.929,731.429C804.929,731.429,951.214,731.429,951.214,731.429C951.214,731.429,951.214,877.714,951.214,877.714C951.214,877.714,951.214,1024,951.214,1024C951.214,1024,804.929,1024,804.929,1024" class="icon-megafont-thin-X"/><glyph unicode="&#x0059;" d="M146.286,1024C146.286,1024,0,1024,0,1024C0,1024,0,877.714,0,877.714C0,877.714,0,731.429,0,731.429C0,731.429,146.286,731.429,146.286,731.429C146.286,731.429,146.286,877.714,146.286,877.714C146.286,877.714,146.286,1024,146.286,1024M146.286,731.429C146.286,731.429,146.286,585.143,146.286,585.143C146.286,585.143,292.571,585.143,292.571,585.143C292.571,585.143,292.571,731.429,292.571,731.429C292.571,731.429,146.286,731.429,146.286,731.429M438.857,585.143C438.857,585.143,292.571,585.143,292.571,585.143C292.571,585.143,292.571,438.857,292.571,438.857C292.571,438.857,438.857,438.857,438.857,438.857C438.857,438.857,438.857,292.571,438.857,292.571C438.857,292.571,438.857,146.286,438.857,146.286C438.857,146.286,438.857,0,438.857,0C438.857,0,585.143,0,585.143,0C585.143,0,585.143,146.286,585.143,146.286C585.143,146.286,585.143,292.571,585.143,292.571C585.143,292.571,585.143,438.857,585.143,438.857C585.143,438.857,731.429,438.857,731.429,438.857C731.429,438.857,731.429,585.143,731.429,585.143C731.429,585.143,585.143,585.143,585.143,585.143C585.143,585.143,438.857,585.143,438.857,585.143M731.429,731.429C731.429,731.429,731.429,585.143,731.429,585.143C731.429,585.143,877.714,585.143,877.714,585.143C877.714,585.143,877.714,731.429,877.714,731.429C877.714,731.429,731.429,731.429,731.429,731.429M877.714,1024C877.714,1024,877.714,877.714,877.714,877.714C877.714,877.714,877.714,731.429,877.714,731.429C877.714,731.429,1024,731.429,1024,731.429C1024,731.429,1024,877.714,1024,877.714C1024,877.714,1024,1024,1024,1024C1024,1024,877.714,1024,877.714,1024" class="icon-megafont-thin-Y"/><glyph unicode="&#x005a;" d="M731.643,1024C731.643,1024,585.357,1024,585.357,1024C585.357,1024,439.071,1024,439.071,1024C439.071,1024,292.786,1024,292.786,1024C292.786,1024,146.5,1024,146.5,1024C146.5,1024,146.5,877.714,146.5,877.714C146.5,877.714,292.786,877.714,292.786,877.714C292.786,877.714,439.071,877.714,439.071,877.714C439.071,877.714,585.357,877.714,585.357,877.714C585.357,877.714,731.643,877.714,731.643,877.714C731.643,877.714,731.643,731.429,731.643,731.429C731.643,731.429,877.929,731.429,877.929,731.429C877.929,731.429,877.929,877.714,877.929,877.714C877.929,877.714,877.929,1024,877.929,1024C877.929,1024,731.643,1024,731.643,1024M585.357,731.429C585.357,731.429,585.357,585.143,585.357,585.143C585.357,585.143,731.643,585.143,731.643,585.143C731.643,585.143,731.643,731.429,731.643,731.429C731.643,731.429,585.357,731.429,585.357,731.429M439.071,585.143C439.071,585.143,439.071,438.857,439.071,438.857C439.071,438.857,585.357,438.857,585.357,438.857C585.357,438.857,585.357,585.143,585.357,585.143C585.357,585.143,439.071,585.143,439.071,585.143M292.786,438.857C292.786,438.857,292.786,292.571,292.786,292.571C292.786,292.571,439.071,292.571,439.071,292.571C439.071,292.571,439.071,438.857,439.071,438.857C439.071,438.857,292.786,438.857,292.786,438.857M146.5,146.286C146.5,146.286,146.5,0,146.5,0C146.5,0,292.786,0,292.786,0C292.786,0,439.071,0,439.071,0C439.071,0,585.357,0,585.357,0C585.357,0,731.643,0,731.643,0C731.643,0,877.929,0,877.929,0C877.929,0,877.929,146.286,877.929,146.286C877.929,146.286,731.643,146.286,731.643,146.286C731.643,146.286,585.357,146.286,585.357,146.286C585.357,146.286,439.071,146.286,439.071,146.286C439.071,146.286,292.786,146.286,292.786,146.286C292.786,146.286,292.786,292.571,292.786,292.571C292.786,292.571,146.5,292.571,146.5,292.571C146.5,292.571,146.5,146.286,146.5,146.286" class="icon-megafont-thin-Z"/><glyph unicode="&#x0064;" d="M438.857,878.068C438.857,878.068,438.857,731.782,438.857,731.782C438.857,731.782,438.857,585.497,438.857,585.497C438.857,585.497,292.571,585.497,292.571,585.497C292.571,585.497,146.286,585.497,146.286,585.497C146.286,585.497,0,585.497,0,585.497C0,585.497,0,439.211,0,439.211C0,439.211,146.286,439.211,146.286,439.211C146.286,439.211,146.286,292.925,146.286,292.925C146.286,292.925,292.571,292.925,292.571,292.925C292.571,292.925,292.571,146.639,292.571,146.639C292.571,146.639,438.857,146.639,438.857,146.639C438.857,146.639,438.857,0.5,438.857,0.5C438.857,0.5,585.143,0.5,585.143,0.5C585.143,0.5,585.143,146.639,585.143,146.639C585.143,146.639,731.429,146.639,731.429,146.639C731.429,146.639,731.429,292.925,731.429,292.925C731.429,292.925,877.714,292.925,877.714,292.925C877.714,292.925,877.714,439.211,877.714,439.211C877.714,439.211,1024,439.211,1024,439.211C1024,439.211,1024,585.497,1024,585.497C1024,585.497,877.714,585.497,877.714,585.497C877.714,585.497,731.429,585.497,731.429,585.497C731.429,585.497,585.143,585.497,585.143,585.497C585.143,585.497,585.143,731.782,585.143,731.782C585.143,731.782,585.143,878.068,585.143,878.068C585.143,878.068,585.143,1024.354,585.143,1024.354C585.143,1024.354,438.857,1024.354,438.857,1024.354C438.857,1024.354,438.857,878.068,438.857,878.068" class="icon-megafont-icon-arrow-down"/><glyph unicode="&#x006c;" d="M877.714,585.143C877.714,585.143,731.429,585.143,731.429,585.143C731.429,585.143,585.143,585.143,585.143,585.143C585.143,585.143,585.143,731.429,585.143,731.429C585.143,731.429,585.143,877.714,585.143,877.714C585.143,877.714,585.143,1024,585.143,1024C585.143,1024,438.857,1024,438.857,1024C438.857,1024,438.857,877.714,438.857,877.714C438.857,877.714,292.571,877.714,292.571,877.714C292.571,877.714,292.571,731.429,292.571,731.429C292.571,731.429,146.286,731.429,146.286,731.429C146.286,731.429,146.286,585.143,146.286,585.143C146.286,585.143,0,585.143,0,585.143C0,585.143,0,438.857,0,438.857C0,438.857,146.286,438.857,146.286,438.857C146.286,438.857,146.286,292.571,146.286,292.571C146.286,292.571,292.571,292.571,292.571,292.571C292.571,292.571,292.571,146.286,292.571,146.286C292.571,146.286,438.857,146.286,438.857,146.286C438.857,146.286,438.857,0,438.857,0C438.857,0,585.143,0,585.143,0C585.143,0,585.143,146.286,585.143,146.286C585.143,146.286,585.143,292.571,585.143,292.571C585.143,292.571,585.143,438.857,585.143,438.857C585.143,438.857,731.429,438.857,731.429,438.857C731.429,438.857,877.714,438.857,877.714,438.857C877.714,438.857,1024,438.857,1024,438.857C1024,438.857,1024,585.143,1024,585.143C1024,585.143,877.714,585.143,877.714,585.143" class="icon-megafont-icon-arrow-left"/><glyph unicode="&#x0072;" d="M146.765,438.941C146.765,438.941,293.03,438.941,293.03,438.941C293.03,438.941,439.294,438.941,439.294,438.941C439.294,438.941,439.294,292.676,439.294,292.676C439.294,292.676,439.294,146.265,439.294,146.265C439.294,146.265,439.294,0,439.294,0C439.294,0,585.559,0,585.559,0C585.559,0,585.559,146.265,585.559,146.265C585.559,146.265,731.824,146.265,731.824,146.265C731.824,146.265,731.824,292.676,731.824,292.676C731.824,292.676,878.089,292.676,878.089,292.676C878.089,292.676,878.089,438.941,878.089,438.941C878.089,438.941,1024.354,438.941,1024.354,438.941C1024.354,438.941,1024.354,585.206,1024.354,585.206C1024.354,585.206,878.089,585.206,878.089,585.206C878.089,585.206,878.089,731.47,878.089,731.47C878.089,731.47,731.824,731.47,731.824,731.47C731.824,731.47,731.824,877.735,731.824,877.735C731.824,877.735,585.559,877.735,585.559,877.735C585.559,877.735,585.559,1024,585.559,1024C585.559,1024,439.294,1024,439.294,1024C439.294,1024,439.294,877.735,439.294,877.735C439.294,877.735,439.294,731.47,439.294,731.47C439.294,731.47,439.294,585.206,439.294,585.206C439.294,585.206,293.03,585.206,293.03,585.206C293.03,585.206,146.765,585.206,146.765,585.206C146.765,585.206,0.5,585.206,0.5,585.206C0.5,585.206,0.5,438.941,0.5,438.941C0.5,438.941,146.765,438.941,146.765,438.941" class="icon-megafont-icon-arrow-right"/><glyph unicode="&#x0075;" d="M585.143,146.286C585.143,146.286,585.143,292.571,585.143,292.571C585.143,292.571,585.143,438.857,585.143,438.857C585.143,438.857,731.429,438.857,731.429,438.857C731.429,438.857,877.714,438.857,877.714,438.857C877.714,438.857,1024,438.857,1024,438.857C1024,438.857,1024,585.143,1024,585.143C1024,585.143,877.714,585.143,877.714,585.143C877.714,585.143,877.714,731.429,877.714,731.429C877.714,731.429,731.429,731.429,731.429,731.429C731.429,731.429,731.429,877.714,731.429,877.714C731.429,877.714,585.143,877.714,585.143,877.714C585.143,877.714,585.143,1024,585.143,1024C585.143,1024,438.857,1024,438.857,1024C438.857,1024,438.857,877.714,438.857,877.714C438.857,877.714,292.571,877.714,292.571,877.714C292.571,877.714,292.571,731.429,292.571,731.429C292.571,731.429,146.286,731.429,146.286,731.429C146.286,731.429,146.286,585.143,146.286,585.143C146.286,585.143,0,585.143,0,585.143C0,585.143,0,438.857,0,438.857C0,438.857,146.286,438.857,146.286,438.857C146.286,438.857,292.571,438.857,292.571,438.857C292.571,438.857,438.857,438.857,438.857,438.857C438.857,438.857,438.857,292.571,438.857,292.571C438.857,292.571,438.857,146.286,438.857,146.286C438.857,146.286,438.857,0,438.857,0C438.857,0,585.143,0,585.143,0C585.143,0,585.143,146.286,585.143,146.286" class="icon-megafont-icon-arrow-up"/><glyph unicode="&#x0030;" d="M292.786,438.857C292.786,438.857,292.786,585.143,292.786,585.143C292.786,585.143,292.786,731.429,292.786,731.429C292.786,731.429,292.786,877.714,292.786,877.714C292.786,877.714,146.5,877.714,146.5,877.714C146.5,877.714,146.5,731.429,146.5,731.429C146.5,731.429,146.5,585.143,146.5,585.143C146.5,585.143,146.5,438.857,146.5,438.857C146.5,438.857,146.5,292.571,146.5,292.571C146.5,292.571,146.5,146.286,146.5,146.286C146.5,146.286,292.786,146.286,292.786,146.286C292.786,146.286,292.786,292.571,292.786,292.571C292.786,292.571,292.786,438.857,292.786,438.857M439.071,146.286C439.071,146.286,292.786,146.286,292.786,146.286C292.786,146.286,292.786,0,292.786,0C292.786,0,439.071,0,439.071,0C439.071,0,585.357,0,585.357,0C585.357,0,731.643,0,731.643,0C731.643,0,731.643,146.286,731.643,146.286C731.643,146.286,585.357,146.286,585.357,146.286C585.357,146.286,439.071,146.286,439.071,146.286M731.643,877.714C731.643,877.714,731.643,731.429,731.643,731.429C731.643,731.429,731.643,585.143,731.643,585.143C731.643,585.143,731.643,438.857,731.643,438.857C731.643,438.857,731.643,292.571,731.643,292.571C731.643,292.571,731.643,146.286,731.643,146.286C731.643,146.286,877.929,146.286,877.929,146.286C877.929,146.286,877.929,292.571,877.929,292.571C877.929,292.571,877.929,438.857,877.929,438.857C877.929,438.857,877.929,585.143,877.929,585.143C877.929,585.143,877.929,731.429,877.929,731.429C877.929,731.429,877.929,877.714,877.929,877.714C877.929,877.714,731.643,877.714,731.643,877.714M585.357,877.714C585.357,877.714,731.643,877.714,731.643,877.714C731.643,877.714,731.643,1024,731.643,1024C731.643,1024,585.357,1024,585.357,1024C585.357,1024,439.071,1024,439.071,1024C439.071,1024,292.786,1024,292.786,1024C292.786,1024,292.786,877.714,292.786,877.714C292.786,877.714,439.071,877.714,439.071,877.714C439.071,877.714,585.357,877.714,585.357,877.714M439.071,585.143C439.071,585.143,439.071,438.857,439.071,438.857C439.071,438.857,585.357,438.857,585.357,438.857C585.357,438.857,585.357,585.143,585.357,585.143C585.357,585.143,439.071,585.143,439.071,585.143" class="icon-megafont-thin-0"/><glyph unicode="&#x0031;" d="M512.286,1024C512.286,1024,512.286,877.714,512.286,877.714C512.286,877.714,366,877.714,366,877.714C366,877.714,366,731.429,366,731.429C366,731.429,512.286,731.429,512.286,731.429C512.286,731.429,512.286,585.143,512.286,585.143C512.286,585.143,512.286,438.857,512.286,438.857C512.286,438.857,512.286,292.571,512.286,292.571C512.286,292.571,512.286,146.286,512.286,146.286C512.286,146.286,512.286,0,512.286,0C512.286,0,658.571,0,658.571,0C658.571,0,658.571,146.286,658.571,146.286C658.571,146.286,658.571,292.571,658.571,292.571C658.571,292.571,658.571,438.857,658.571,438.857C658.571,438.857,658.571,585.143,658.571,585.143C658.571,585.143,658.571,731.429,658.571,731.429C658.571,731.429,658.571,877.714,658.571,877.714C658.571,877.714,658.571,1024,658.571,1024C658.571,1024,512.286,1024,512.286,1024" class="icon-megafont-thin-1"/><glyph unicode="&#x0032;" d="M585.357,1024C585.357,1024,439.071,1024,439.071,1024C439.071,1024,292.786,1024,292.786,1024C292.786,1024,146.5,1024,146.5,1024C146.5,1024,146.5,877.714,146.5,877.714C146.5,877.714,292.786,877.714,292.786,877.714C292.786,877.714,439.071,877.714,439.071,877.714C439.071,877.714,585.357,877.714,585.357,877.714C585.357,877.714,731.643,877.714,731.643,877.714C731.643,877.714,731.643,1024,731.643,1024C731.643,1024,585.357,1024,585.357,1024M731.643,877.714C731.643,877.714,731.643,731.429,731.643,731.429C731.643,731.429,731.643,585.143,731.643,585.143C731.643,585.143,877.929,585.143,877.929,585.143C877.929,585.143,877.929,731.429,877.929,731.429C877.929,731.429,877.929,877.714,877.929,877.714C877.929,877.714,731.643,877.714,731.643,877.714M585.357,585.143C585.357,585.143,585.357,438.857,585.357,438.857C585.357,438.857,731.643,438.857,731.643,438.857C731.643,438.857,731.643,585.143,731.643,585.143C731.643,585.143,585.357,585.143,585.357,585.143M292.786,438.857C292.786,438.857,292.786,292.571,292.786,292.571C292.786,292.571,439.071,292.571,439.071,292.571C439.071,292.571,585.357,292.571,585.357,292.571C585.357,292.571,585.357,438.857,585.357,438.857C585.357,438.857,439.071,438.857,439.071,438.857C439.071,438.857,292.786,438.857,292.786,438.857M146.5,146.286C146.5,146.286,146.5,0,146.5,0C146.5,0,292.786,0,292.786,0C292.786,0,439.071,0,439.071,0C439.071,0,585.357,0,585.357,0C585.357,0,731.643,0,731.643,0C731.643,0,877.929,0,877.929,0C877.929,0,877.929,146.286,877.929,146.286C877.929,146.286,731.643,146.286,731.643,146.286C731.643,146.286,585.357,146.286,585.357,146.286C585.357,146.286,439.071,146.286,439.071,146.286C439.071,146.286,292.786,146.286,292.786,146.286C292.786,146.286,292.786,292.571,292.786,292.571C292.786,292.571,146.5,292.571,146.5,292.571C146.5,292.571,146.5,146.286,146.5,146.286" class="icon-megafont-thin-2"/><glyph unicode="&#x0033;" d="M585.357,1024C585.357,1024,439.071,1024,439.071,1024C439.071,1024,292.786,1024,292.786,1024C292.786,1024,146.5,1024,146.5,1024C146.5,1024,146.5,877.714,146.5,877.714C146.5,877.714,292.786,877.714,292.786,877.714C292.786,877.714,439.071,877.714,439.071,877.714C439.071,877.714,585.357,877.714,585.357,877.714C585.357,877.714,731.643,877.714,731.643,877.714C731.643,877.714,731.643,1024,731.643,1024C731.643,1024,585.357,1024,585.357,1024M731.643,877.714C731.643,877.714,731.643,731.429,731.643,731.429C731.643,731.429,731.643,585.143,731.643,585.143C731.643,585.143,877.929,585.143,877.929,585.143C877.929,585.143,877.929,731.429,877.929,731.429C877.929,731.429,877.929,877.714,877.929,877.714C877.929,877.714,731.643,877.714,731.643,877.714M439.071,585.143C439.071,585.143,439.071,438.857,439.071,438.857C439.071,438.857,585.357,438.857,585.357,438.857C585.357,438.857,731.643,438.857,731.643,438.857C731.643,438.857,731.643,585.143,731.643,585.143C731.643,585.143,585.357,585.143,585.357,585.143C585.357,585.143,439.071,585.143,439.071,585.143M731.643,146.286C731.643,146.286,877.929,146.286,877.929,146.286C877.929,146.286,877.929,292.571,877.929,292.571C877.929,292.571,877.929,438.857,877.929,438.857C877.929,438.857,731.643,438.857,731.643,438.857C731.643,438.857,731.643,292.571,731.643,292.571C731.643,292.571,731.643,146.286,731.643,146.286M439.071,146.286C439.071,146.286,292.786,146.286,292.786,146.286C292.786,146.286,146.5,146.286,146.5,146.286C146.5,146.286,146.5,0,146.5,0C146.5,0,292.786,0,292.786,0C292.786,0,439.071,0,439.071,0C439.071,0,585.357,0,585.357,0C585.357,0,731.643,0,731.643,0C731.643,0,731.643,146.286,731.643,146.286C731.643,146.286,585.357,146.286,585.357,146.286C585.357,146.286,439.071,146.286,439.071,146.286" class="icon-megafont-thin-3"/><glyph unicode="&#x0034;" d="M731.643,1024C731.643,1024,731.643,877.714,731.643,877.714C731.643,877.714,731.643,731.429,731.643,731.429C731.643,731.429,731.643,585.143,731.643,585.143C731.643,585.143,585.357,585.143,585.357,585.143C585.357,585.143,439.071,585.143,439.071,585.143C439.071,585.143,292.786,585.143,292.786,585.143C292.786,585.143,292.786,731.429,292.786,731.429C292.786,731.429,292.786,877.714,292.786,877.714C292.786,877.714,292.786,1024,292.786,1024C292.786,1024,146.5,1024,146.5,1024C146.5,1024,146.5,877.714,146.5,877.714C146.5,877.714,146.5,731.429,146.5,731.429C146.5,731.429,146.5,585.143,146.5,585.143C146.5,585.143,146.5,438.857,146.5,438.857C146.5,438.857,292.786,438.857,292.786,438.857C292.786,438.857,439.071,438.857,439.071,438.857C439.071,438.857,585.357,438.857,585.357,438.857C585.357,438.857,731.643,438.857,731.643,438.857C731.643,438.857,731.643,292.571,731.643,292.571C731.643,292.571,731.643,146.286,731.643,146.286C731.643,146.286,731.643,0,731.643,0C731.643,0,877.929,0,877.929,0C877.929,0,877.929,146.286,877.929,146.286C877.929,146.286,877.929,292.571,877.929,292.571C877.929,292.571,877.929,438.857,877.929,438.857C877.929,438.857,877.929,585.143,877.929,585.143C877.929,585.143,877.929,731.429,877.929,731.429C877.929,731.429,877.929,877.714,877.929,877.714C877.929,877.714,877.929,1024,877.929,1024C877.929,1024,731.643,1024,731.643,1024" class="icon-megafont-thin-4"/><glyph unicode="&#x0035;" d="M73.5,292.571C73.5,292.571,73.5,146.286,73.5,146.286C73.5,146.286,219.786,146.286,219.786,146.286C219.786,146.286,219.786,292.571,219.786,292.571C219.786,292.571,73.5,292.571,73.5,292.571M512.357,146.286C512.357,146.286,366.071,146.286,366.071,146.286C366.071,146.286,219.786,146.286,219.786,146.286C219.786,146.286,219.786,0,219.786,0C219.786,0,366.071,0,366.071,0C366.071,0,512.357,0,512.357,0C512.357,0,658.643,0,658.643,0C658.643,0,804.929,0,804.929,0C804.929,0,804.929,146.286,804.929,146.286C804.929,146.286,658.643,146.286,658.643,146.286C658.643,146.286,512.357,146.286,512.357,146.286M804.929,146.286C804.929,146.286,951.214,146.286,951.214,146.286C951.214,146.286,951.214,292.571,951.214,292.571C951.214,292.571,951.214,438.857,951.214,438.857C951.214,438.857,804.929,438.857,804.929,438.857C804.929,438.857,804.929,292.571,804.929,292.571C804.929,292.571,804.929,146.286,804.929,146.286M366.071,877.714C366.071,877.714,512.357,877.714,512.357,877.714C512.357,877.714,658.643,877.714,658.643,877.714C658.643,877.714,804.929,877.714,804.929,877.714C804.929,877.714,951.214,877.714,951.214,877.714C951.214,877.714,951.214,1024,951.214,1024C951.214,1024,804.929,1024,804.929,1024C804.929,1024,658.643,1024,658.643,1024C658.643,1024,512.357,1024,512.357,1024C512.357,1024,366.071,1024,366.071,1024C366.071,1024,219.786,1024,219.786,1024C219.786,1024,219.786,877.714,219.786,877.714C219.786,877.714,219.786,731.429,219.786,731.429C219.786,731.429,219.786,585.143,219.786,585.143C219.786,585.143,219.786,438.857,219.786,438.857C219.786,438.857,366.071,438.857,366.071,438.857C366.071,438.857,512.357,438.857,512.357,438.857C512.357,438.857,658.643,438.857,658.643,438.857C658.643,438.857,804.929,438.857,804.929,438.857C804.929,438.857,804.929,585.143,804.929,585.143C804.929,585.143,658.643,585.143,658.643,585.143C658.643,585.143,512.357,585.143,512.357,585.143C512.357,585.143,366.071,585.143,366.071,585.143C366.071,585.143,366.071,731.429,366.071,731.429C366.071,731.429,366.071,877.714,366.071,877.714" class="icon-megafont-thin-5"/><glyph unicode="&#x0036;" d="M439.071,146.286C439.071,146.286,292.786,146.286,292.786,146.286C292.786,146.286,292.786,0,292.786,0C292.786,0,439.071,0,439.071,0C439.071,0,585.357,0,585.357,0C585.357,0,731.643,0,731.643,0C731.643,0,731.643,146.286,731.643,146.286C731.643,146.286,585.357,146.286,585.357,146.286C585.357,146.286,439.071,146.286,439.071,146.286M731.643,438.857C731.643,438.857,731.643,292.571,731.643,292.571C731.643,292.571,731.643,146.286,731.643,146.286C731.643,146.286,877.929,146.286,877.929,146.286C877.929,146.286,877.929,292.571,877.929,292.571C877.929,292.571,877.929,438.857,877.929,438.857C877.929,438.857,731.643,438.857,731.643,438.857M292.786,438.857C292.786,438.857,439.071,438.857,439.071,438.857C439.071,438.857,585.357,438.857,585.357,438.857C585.357,438.857,731.643,438.857,731.643,438.857C731.643,438.857,731.643,585.143,731.643,585.143C731.643,585.143,585.357,585.143,585.357,585.143C585.357,585.143,439.071,585.143,439.071,585.143C439.071,585.143,292.786,585.143,292.786,585.143C292.786,585.143,292.786,731.429,292.786,731.429C292.786,731.429,292.786,877.714,292.786,877.714C292.786,877.714,146.5,877.714,146.5,877.714C146.5,877.714,146.5,731.429,146.5,731.429C146.5,731.429,146.5,585.143,146.5,585.143C146.5,585.143,146.5,438.857,146.5,438.857C146.5,438.857,146.5,292.571,146.5,292.571C146.5,292.571,146.5,146.286,146.5,146.286C146.5,146.286,292.786,146.286,292.786,146.286C292.786,146.286,292.786,292.571,292.786,292.571C292.786,292.571,292.786,438.857,292.786,438.857M585.357,877.714C585.357,877.714,731.643,877.714,731.643,877.714C731.643,877.714,731.643,1024,731.643,1024C731.643,1024,585.357,1024,585.357,1024C585.357,1024,439.071,1024,439.071,1024C439.071,1024,292.786,1024,292.786,1024C292.786,1024,292.786,877.714,292.786,877.714C292.786,877.714,439.071,877.714,439.071,877.714C439.071,877.714,585.357,877.714,585.357,877.714" class="icon-megafont-thin-6"/><glyph unicode="&#x0037;" d="M292.786,146.286C292.786,146.286,292.786,0,292.786,0C292.786,0,439.071,0,439.071,0C439.071,0,439.071,146.286,439.071,146.286C439.071,146.286,439.071,292.571,439.071,292.571C439.071,292.571,292.786,292.571,292.786,292.571C292.786,292.571,292.786,146.286,292.786,146.286M439.071,438.857C439.071,438.857,439.071,292.571,439.071,292.571C439.071,292.571,585.357,292.571,585.357,292.571C585.357,292.571,585.357,438.857,585.357,438.857C585.357,438.857,585.357,585.143,585.357,585.143C585.357,585.143,439.071,585.143,439.071,585.143C439.071,585.143,439.071,438.857,439.071,438.857M585.357,731.429C585.357,731.429,585.357,585.143,585.357,585.143C585.357,585.143,731.643,585.143,731.643,585.143C731.643,585.143,731.643,731.429,731.643,731.429C731.643,731.429,585.357,731.429,585.357,731.429M731.643,1024C731.643,1024,585.357,1024,585.357,1024C585.357,1024,439.071,1024,439.071,1024C439.071,1024,292.786,1024,292.786,1024C292.786,1024,146.5,1024,146.5,1024C146.5,1024,146.5,877.714,146.5,877.714C146.5,877.714,292.786,877.714,292.786,877.714C292.786,877.714,439.071,877.714,439.071,877.714C439.071,877.714,585.357,877.714,585.357,877.714C585.357,877.714,731.643,877.714,731.643,877.714C731.643,877.714,731.643,731.429,731.643,731.429C731.643,731.429,877.929,731.429,877.929,731.429C877.929,731.429,877.929,877.714,877.929,877.714C877.929,877.714,877.929,1024,877.929,1024C877.929,1024,731.643,1024,731.643,1024" class="icon-megafont-thin-7"/><glyph unicode="&#x0038;" d="M585.357,877.714C585.357,877.714,731.643,877.714,731.643,877.714C731.643,877.714,731.643,1024,731.643,1024C731.643,1024,585.357,1024,585.357,1024C585.357,1024,439.071,1024,439.071,1024C439.071,1024,292.786,1024,292.786,1024C292.786,1024,292.786,877.714,292.786,877.714C292.786,877.714,439.071,877.714,439.071,877.714C439.071,877.714,585.357,877.714,585.357,877.714M731.643,877.714C731.643,877.714,731.643,731.429,731.643,731.429C731.643,731.429,731.643,585.143,731.643,585.143C731.643,585.143,877.929,585.143,877.929,585.143C877.929,585.143,877.929,731.429,877.929,731.429C877.929,731.429,877.929,877.714,877.929,877.714C877.929,877.714,731.643,877.714,731.643,877.714M439.071,585.143C439.071,585.143,292.786,585.143,292.786,585.143C292.786,585.143,292.786,438.857,292.786,438.857C292.786,438.857,439.071,438.857,439.071,438.857C439.071,438.857,585.357,438.857,585.357,438.857C585.357,438.857,731.643,438.857,731.643,438.857C731.643,438.857,731.643,585.143,731.643,585.143C731.643,585.143,585.357,585.143,585.357,585.143C585.357,585.143,439.071,585.143,439.071,585.143M292.786,877.714C292.786,877.714,146.5,877.714,146.5,877.714C146.5,877.714,146.5,731.429,146.5,731.429C146.5,731.429,146.5,585.143,146.5,585.143C146.5,585.143,292.786,585.143,292.786,585.143C292.786,585.143,292.786,731.429,292.786,731.429C292.786,731.429,292.786,877.714,292.786,877.714M292.786,438.857C292.786,438.857,146.5,438.857,146.5,438.857C146.5,438.857,146.5,292.571,146.5,292.571C146.5,292.571,146.5,146.286,146.5,146.286C146.5,146.286,292.786,146.286,292.786,146.286C292.786,146.286,292.786,292.571,292.786,292.571C292.786,292.571,292.786,438.857,292.786,438.857M439.071,146.286C439.071,146.286,292.786,146.286,292.786,146.286C292.786,146.286,292.786,0,292.786,0C292.786,0,439.071,0,439.071,0C439.071,0,585.357,0,585.357,0C585.357,0,731.643,0,731.643,0C731.643,0,731.643,146.286,731.643,146.286C731.643,146.286,585.357,146.286,585.357,146.286C585.357,146.286,439.071,146.286,439.071,146.286M731.643,146.286C731.643,146.286,877.929,146.286,877.929,146.286C877.929,146.286,877.929,292.571,877.929,292.571C877.929,292.571,877.929,438.857,877.929,438.857C877.929,438.857,731.643,438.857,731.643,438.857C731.643,438.857,731.643,292.571,731.643,292.571C731.643,292.571,731.643,146.286,731.643,146.286" class="icon-megafont-thin-8"/><glyph unicode="&#x0039;" d="M731.643,877.714C731.643,877.714,731.643,731.429,731.643,731.429C731.643,731.429,731.643,585.143,731.643,585.143C731.643,585.143,585.357,585.143,585.357,585.143C585.357,585.143,439.071,585.143,439.071,585.143C439.071,585.143,292.786,585.143,292.786,585.143C292.786,585.143,292.786,438.857,292.786,438.857C292.786,438.857,439.071,438.857,439.071,438.857C439.071,438.857,585.357,438.857,585.357,438.857C585.357,438.857,731.643,438.857,731.643,438.857C731.643,438.857,731.643,292.571,731.643,292.571C731.643,292.571,731.643,146.286,731.643,146.286C731.643,146.286,877.929,146.286,877.929,146.286C877.929,146.286,877.929,292.571,877.929,292.571C877.929,292.571,877.929,438.857,877.929,438.857C877.929,438.857,877.929,585.143,877.929,585.143C877.929,585.143,877.929,731.429,877.929,731.429C877.929,731.429,877.929,877.714,877.929,877.714C877.929,877.714,731.643,877.714,731.643,877.714M585.357,877.714C585.357,877.714,731.643,877.714,731.643,877.714C731.643,877.714,731.643,1024,731.643,1024C731.643,1024,585.357,1024,585.357,1024C585.357,1024,439.071,1024,439.071,1024C439.071,1024,292.786,1024,292.786,1024C292.786,1024,292.786,877.714,292.786,877.714C292.786,877.714,439.071,877.714,439.071,877.714C439.071,877.714,585.357,877.714,585.357,877.714M292.786,877.714C292.786,877.714,146.5,877.714,146.5,877.714C146.5,877.714,146.5,731.429,146.5,731.429C146.5,731.429,146.5,585.143,146.5,585.143C146.5,585.143,292.786,585.143,292.786,585.143C292.786,585.143,292.786,731.429,292.786,731.429C292.786,731.429,292.786,877.714,292.786,877.714M439.071,146.286C439.071,146.286,292.786,146.286,292.786,146.286C292.786,146.286,292.786,0,292.786,0C292.786,0,439.071,0,439.071,0C439.071,0,585.357,0,585.357,0C585.357,0,731.643,0,731.643,0C731.643,0,731.643,146.286,731.643,146.286C731.643,146.286,585.357,146.286,585.357,146.286C585.357,146.286,439.071,146.286,439.071,146.286" class="icon-megafont-thin-9"/><glyph unicode="&#x0021;" d="M439,1024C439,1024,439,877.714,439,877.714C439,877.714,439,731.429,439,731.429C439,731.429,439,585.143,439,585.143C439,585.143,439,438.857,439,438.857C439,438.857,439,292.571,439,292.571C439,292.571,585.286,292.571,585.286,292.571C585.286,292.571,585.286,438.857,585.286,438.857C585.286,438.857,585.286,585.143,585.286,585.143C585.286,585.143,585.286,731.429,585.286,731.429C585.286,731.429,585.286,877.714,585.286,877.714C585.286,877.714,585.286,1024,585.286,1024C585.286,1024,439,1024,439,1024M439,146.286C439,146.286,439,0,439,0C439,0,585.286,0,585.286,0C585.286,0,585.286,146.286,585.286,146.286C585.286,146.286,439,146.286,439,146.286" class="icon-megafont-thin-!"/><glyph unicode="&#x0023;" d="M1024,614.4C1024,614.4,1024,819.2,1024,819.2C1024,819.2,819.2,819.2,819.2,819.2C819.2,819.2,819.2,1024,819.2,1024C819.2,1024,614.4,1024,614.4,1024C614.4,1024,614.4,819.2,614.4,819.2C614.4,819.2,409.6,819.2,409.6,819.2C409.6,819.2,409.6,1024,409.6,1024C409.6,1024,204.8,1024,204.8,1024C204.8,1024,204.8,819.2,204.8,819.2C204.8,819.2,0,819.2,0,819.2C0,819.2,0,614.4,0,614.4C0,614.4,204.8,614.4,204.8,614.4C204.8,614.4,204.8,409.6,204.8,409.6C204.8,409.6,0,409.6,0,409.6C0,409.6,0,204.8,0,204.8C0,204.8,204.8,204.8,204.8,204.8C204.8,204.8,204.8,0,204.8,0C204.8,0,409.6,0,409.6,0C409.6,0,409.6,204.8,409.6,204.8C409.6,204.8,614.4,204.8,614.4,204.8C614.4,204.8,614.4,0,614.4,0C614.4,0,819.2,0,819.2,0C819.2,0,819.2,204.8,819.2,204.8C819.2,204.8,1024,204.8,1024,204.8C1024,204.8,1024,409.6,1024,409.6C1024,409.6,819.2,409.6,819.2,409.6C819.2,409.6,819.2,614.4,819.2,614.4C819.2,614.4,1024,614.4,1024,614.4C1024,614.4,1024,614.4,1024,614.4M614.4,409.6C614.4,409.6,409.6,409.6,409.6,409.6C409.6,409.6,409.6,614.4,409.6,614.4C409.6,614.4,614.4,614.4,614.4,614.4C614.4,614.4,614.4,409.6,614.4,409.6C614.4,409.6,614.4,409.6,614.4,409.6" class="icon-megafont-thin-#"/><glyph unicode="&#x0026;" d="M585.357,877.714C585.357,877.714,585.357,1024,585.357,1024C585.357,1024,439.071,1024,439.071,1024C439.071,1024,292.786,1024,292.786,1024C292.786,1024,292.786,877.714,292.786,877.714C292.786,877.714,439.071,877.714,439.071,877.714C439.071,877.714,585.357,877.714,585.357,877.714M292.786,877.714C292.786,877.714,146.5,877.714,146.5,877.714C146.5,877.714,146.5,731.429,146.5,731.429C146.5,731.429,146.5,585.143,146.5,585.143C146.5,585.143,292.786,585.143,292.786,585.143C292.786,585.143,292.786,731.429,292.786,731.429C292.786,731.429,292.786,877.714,292.786,877.714M731.643,438.857C731.643,438.857,877.929,438.857,877.929,438.857C877.929,438.857,877.929,585.143,877.929,585.143C877.929,585.143,731.643,585.143,731.643,585.143C731.643,585.143,731.643,731.429,731.643,731.429C731.643,731.429,585.357,731.429,585.357,731.429C585.357,731.429,585.357,585.143,585.357,585.143C585.357,585.143,439.071,585.143,439.071,585.143C439.071,585.143,292.786,585.143,292.786,585.143C292.786,585.143,292.786,438.857,292.786,438.857C292.786,438.857,439.071,438.857,439.071,438.857C439.071,438.857,585.357,438.857,585.357,438.857C585.357,438.857,585.357,292.571,585.357,292.571C585.357,292.571,585.357,146.286,585.357,146.286C585.357,146.286,731.643,146.286,731.643,146.286C731.643,146.286,731.643,292.571,731.643,292.571C731.643,292.571,731.643,438.857,731.643,438.857M731.643,146.286C731.643,146.286,731.643,0,731.643,0C731.643,0,877.929,0,877.929,0C877.929,0,877.929,146.286,877.929,146.286C877.929,146.286,731.643,146.286,731.643,146.286M292.786,438.857C292.786,438.857,146.5,438.857,146.5,438.857C146.5,438.857,146.5,292.571,146.5,292.571C146.5,292.571,146.5,146.286,146.5,146.286C146.5,146.286,292.786,146.286,292.786,146.286C292.786,146.286,292.786,292.571,292.786,292.571C292.786,292.571,292.786,438.857,292.786,438.857M292.786,146.286C292.786,146.286,292.786,0,292.786,0C292.786,0,439.071,0,439.071,0C439.071,0,585.357,0,585.357,0C585.357,0,585.357,146.286,585.357,146.286C585.357,146.286,439.071,146.286,439.071,146.286C439.071,146.286,292.786,146.286,292.786,146.286" class="icon-megafont-thin-&"/><glyph unicode="&#x002a;" d="M614.4,614.4C614.4,614.4,614.4,819.2,614.4,819.2C614.4,819.2,614.4,1024,614.4,1024C614.4,1024,409.6,1024,409.6,1024C409.6,1024,409.6,819.2,409.6,819.2C409.6,819.2,409.6,614.4,409.6,614.4C409.6,614.4,204.8,614.4,204.8,614.4C204.8,614.4,204.8,409.6,204.8,409.6C204.8,409.6,409.6,409.6,409.6,409.6C409.6,409.6,409.6,204.8,409.6,204.8C409.6,204.8,409.6,0,409.6,0C409.6,0,614.4,0,614.4,0C614.4,0,614.4,204.8,614.4,204.8C614.4,204.8,614.4,409.6,614.4,409.6C614.4,409.6,819.2,409.6,819.2,409.6C819.2,409.6,819.2,614.4,819.2,614.4C819.2,614.4,614.4,614.4,614.4,614.4M0,819.2C0,819.2,0,614.4,0,614.4C0,614.4,204.8,614.4,204.8,614.4C204.8,614.4,204.8,819.2,204.8,819.2C204.8,819.2,0,819.2,0,819.2M0,409.6C0,409.6,0,204.8,0,204.8C0,204.8,204.8,204.8,204.8,204.8C204.8,204.8,204.8,409.6,204.8,409.6C204.8,409.6,0,409.6,0,409.6M819.2,819.2C819.2,819.2,819.2,614.4,819.2,614.4C819.2,614.4,1024,614.4,1024,614.4C1024,614.4,1024,819.2,1024,819.2C1024,819.2,819.2,819.2,819.2,819.2M819.2,409.6C819.2,409.6,819.2,204.8,819.2,204.8C819.2,204.8,1024,204.8,1024,204.8C1024,204.8,1024,409.6,1024,409.6C1024,409.6,819.2,409.6,819.2,409.6" class="icon-megafont-thin-*"/><glyph unicode="&#x002b;" d="M683.167,683.167C683.167,683.167,683.167,1024.5,683.167,1024.5C683.167,1024.5,341.833,1024.5,341.833,1024.5C341.833,1024.5,341.833,683.167,341.833,683.167C341.833,683.167,0.5,683.167,0.5,683.167C0.5,683.167,0.5,341.833,0.5,341.833C0.5,341.833,341.833,341.833,341.833,341.833C341.833,341.833,341.833,0.5,341.833,0.5C341.833,0.5,683.167,0.5,683.167,0.5C683.167,0.5,683.167,341.833,683.167,341.833C683.167,341.833,1024.5,341.833,1024.5,341.833C1024.5,341.833,1024.5,683.167,1024.5,683.167C1024.5,683.167,683.167,683.167,683.167,683.167" class="icon-megafont-thin-+"/><glyph unicode="&#x002d;" d="M683.167,682.833C683.167,682.833,341.833,682.833,341.833,682.833C341.833,682.833,0.5,682.833,0.5,682.833C0.5,682.833,0.5,341.5,0.5,341.5C0.5,341.5,341.833,341.5,341.833,341.5C341.833,341.5,683.167,341.5,683.167,341.5C683.167,341.5,1024.5,341.5,1024.5,341.5C1024.5,341.5,1024.5,682.833,1024.5,682.833C1024.5,682.833,683.167,682.833,683.167,682.833" class="icon-megafont-thin-dash"/><glyph unicode="&#x002e;" d="M614.4,614.4C614.4,614.4,614.4,819.2,614.4,819.2C614.4,819.2,614.4,1024,614.4,1024C614.4,1024,409.6,1024,409.6,1024C409.6,1024,409.6,819.2,409.6,819.2C409.6,819.2,409.6,614.4,409.6,614.4C409.6,614.4,204.8,614.4,204.8,614.4C204.8,614.4,204.8,409.6,204.8,409.6C204.8,409.6,409.6,409.6,409.6,409.6C409.6,409.6,409.6,204.8,409.6,204.8C409.6,204.8,409.6,0,409.6,0C409.6,0,614.4,0,614.4,0C614.4,0,614.4,204.8,614.4,204.8C614.4,204.8,614.4,409.6,614.4,409.6C614.4,409.6,819.2,409.6,819.2,409.6C819.2,409.6,819.2,614.4,819.2,614.4C819.2,614.4,614.4,614.4,614.4,614.4M0,819.2C0,819.2,0,614.4,0,614.4C0,614.4,204.8,614.4,204.8,614.4C204.8,614.4,204.8,819.2,204.8,819.2C204.8,819.2,0,819.2,0,819.2M0,409.6C0,409.6,0,204.8,0,204.8C0,204.8,204.8,204.8,204.8,204.8C204.8,204.8,204.8,409.6,204.8,409.6C204.8,409.6,0,409.6,0,409.6M819.2,819.2C819.2,819.2,819.2,614.4,819.2,614.4C819.2,614.4,1024,614.4,1024,614.4C1024,614.4,1024,819.2,1024,819.2C1024,819.2,819.2,819.2,819.2,819.2M819.2,409.6C819.2,409.6,819.2,204.8,819.2,204.8C819.2,204.8,1024,204.8,1024,204.8C1024,204.8,1024,409.6,1024,409.6C1024,409.6,819.2,409.6,819.2,409.6" class="icon-megafont-thin-*"/><glyph unicode="&#x003f;" d="M73.5,877.714C73.5,877.714,73.5,731.429,73.5,731.429C73.5,731.429,219.786,731.429,219.786,731.429C219.786,731.429,219.786,877.714,219.786,877.714C219.786,877.714,73.5,877.714,73.5,877.714M658.643,1024C658.643,1024,512.357,1024,512.357,1024C512.357,1024,366.071,1024,366.071,1024C366.071,1024,219.786,1024,219.786,1024C219.786,1024,219.786,877.714,219.786,877.714C219.786,877.714,366.071,877.714,366.071,877.714C366.071,877.714,512.357,877.714,512.357,877.714C512.357,877.714,658.643,877.714,658.643,877.714C658.643,877.714,804.929,877.714,804.929,877.714C804.929,877.714,804.929,1024,804.929,1024C804.929,1024,658.643,1024,658.643,1024M804.929,877.714C804.929,877.714,804.929,731.429,804.929,731.429C804.929,731.429,951.214,731.429,951.214,731.429C951.214,731.429,951.214,877.714,951.214,877.714C951.214,877.714,804.929,877.714,804.929,877.714M804.929,731.429C804.929,731.429,804.929,585.143,804.929,585.143C804.929,585.143,951.214,585.143,951.214,585.143C951.214,585.143,951.214,731.429,951.214,731.429C951.214,731.429,804.929,731.429,804.929,731.429M658.643,585.143C658.643,585.143,658.643,438.857,658.643,438.857C658.643,438.857,804.929,438.857,804.929,438.857C804.929,438.857,804.929,585.143,804.929,585.143C804.929,585.143,658.643,585.143,658.643,585.143M512.357,438.857C512.357,438.857,512.357,292.571,512.357,292.571C512.357,292.571,658.643,292.571,658.643,292.571C658.643,292.571,658.643,438.857,658.643,438.857C658.643,438.857,512.357,438.857,512.357,438.857M512.357,146.286C512.357,146.286,512.357,0,512.357,0C512.357,0,658.643,0,658.643,0C658.643,0,658.643,146.286,658.643,146.286C658.643,146.286,512.357,146.286,512.357,146.286" class="icon-megafont-thin-?"/></font>
</defs>
</svg>
