<?xml version="1.0" standalone="no"?>
<!DOCTYPE svg PUBLIC "-//W3C//DTD SVG 1.1//EN" "http://www.w3.org/Graphics/SVG/1.1/DTD/svg11.dtd" >
<svg xmlns="http://www.w3.org/2000/svg">
<metadata></metadata>
<defs>
<font id="edit_undo_line_brkregular" horiz-adv-x="1198" >
<font-face units-per-em="2048" ascent="1638" descent="-410" />
<missing-glyph horiz-adv-x="500" />
<glyph horiz-adv-x="2048" />
<glyph horiz-adv-x="2048" />
<glyph unicode="&#xd;" horiz-adv-x="2048" />
<glyph unicode=" " />
<glyph unicode="!" horiz-adv-x="460" d="M0 0h369v92h-369v-92zM0 184h369v92h-369v-92zM0 553h369v92h-369v-92zM0 737h369v92h-369v-92zM0 922h369v92h-369v-92zM0 1106h369v92h-369v-92zM0 1290h369v92h-369v-92z" />
<glyph unicode="&#x22;" horiz-adv-x="1013" d="M0 1106h369v92h-369v-92zM0 1290h369v92h-369v-92zM553 1106h369v92h-369v-92zM553 1290h369v92h-369v-92z" />
<glyph unicode="#" horiz-adv-x="1382" d="M0 184h1290v92h-1290v-92zM0 369h1290v92h-1290v-92zM0 922h1290v92h-1290v-92zM0 1106h1290v92h-1290v-92zM184 0h369v92h-369v-92zM184 553h369v92h-369v-92zM184 737h369v92h-369v-92zM184 1290h369v92h-369v-92zM737 0h369v92h-369v-92zM737 553h369v92h-369v-92z M737 737h369v92h-369v-92zM737 1290h369v92h-369v-92z" />
<glyph unicode="$" d="M0 0h922v92h-922v-92zM0 184h1106v92h-1106v-92zM0 737h922v92h-922v-92zM0 922h369v92h-369v-92zM0 1106h1106v92h-1106v-92zM184 553h922v92h-922v-92zM184 1290h922v92h-922v-92zM369 -92v-92h368v92h-368zM369 1475h368v92h-368v-92zM737 369h369v92h-369v-92z" />
<glyph unicode="%" horiz-adv-x="1566" d="M0 0h369v92h-369v-92zM0 184h553v92h-553v-92zM0 922h553v92h-553v-92zM0 1106h184v92h-184v-92zM0 1290h553v92h-553v-92zM184 369h553v92h-553v-92zM369 553h553v92h-553v-92zM369 1106h184v92h-184v-92zM553 737h553v92h-553v-92zM737 922h553v92h-553v-92zM922 0h553 v92h-553v-92zM922 184h184v92h-184v-92zM922 369h553v92h-553v-92zM922 1106h553v92h-553v-92zM1106 1290h369v92h-369v-92zM1290 184h185v92h-185v-92z" />
<glyph unicode="&#x26;" d="M0 184h1106v92h-1106v-92zM0 369h369v92h-369v-92zM0 553h737v92h-737v-92zM0 737h737v92h-737v-92zM0 922h369v92h-369v-92zM0 1106h1106v92h-1106v-92zM184 0h922v92h-922v-92zM184 1290h922v92h-922v-92zM369 -92v-92h368v92h-368zM369 1475h368v92h-368v-92z" />
<glyph unicode="'" horiz-adv-x="460" d="M0 1106h369v92h-369v-92zM0 1290h369v92h-369v-92z" />
<glyph unicode="(" horiz-adv-x="645" d="M0 184h553v92h-553v-92zM0 369h369v92h-369v-92zM0 553h369v92h-369v-92zM0 737h369v92h-369v-92zM0 922h369v92h-369v-92zM0 1106h553v92h-553v-92zM184 0h369v92h-369v-92zM184 1290h369v92h-369v-92z" />
<glyph unicode=")" horiz-adv-x="645" d="M0 0h369v92h-369v-92zM0 184h553v92h-553v-92zM0 1106h553v92h-553v-92zM0 1290h369v92h-369v-92zM184 369h369v92h-369v-92zM184 553h369v92h-369v-92zM184 737h369v92h-369v-92zM184 922h369v92h-369v-92z" />
<glyph unicode="*" d="M0 369h369v92h-369v-92zM0 553h1106v92h-1106v-92zM0 922h1106v92h-1106v-92zM0 1106h1106v92h-1106v-92zM184 737h738v92h-738v-92zM369 1290h368v92h-368v-92zM737 369h369v92h-369v-92z" />
<glyph unicode="+" d="M0 553h1106v92h-1106v-92zM0 737h1106v92h-1106v-92zM369 184h368v92h-368v-92zM369 369h368v92h-368v-92zM369 922h368v92h-368v-92zM369 1106h368v92h-368v-92z" />
<glyph unicode="," horiz-adv-x="460" d="M0 0h369v92h-369v-92zM0 -92v-92h369v92h-369zM0 184h369v92h-369v-92z" />
<glyph unicode="-" d="M0 553h1106v92h-1106v-92zM0 737h1106v92h-1106v-92z" />
<glyph unicode="." horiz-adv-x="460" d="M0 0h369v92h-369v-92zM0 184h369v92h-369v-92z" />
<glyph unicode="/" horiz-adv-x="1566" d="M0 0h369v92h-369v-92zM0 184h553v92h-553v-92zM184 369h553v92h-553v-92zM369 553h553v92h-553v-92zM553 737h553v92h-553v-92zM737 922h553v92h-553v-92zM922 1106h553v92h-553v-92zM1106 1290h369v92h-369v-92z" />
<glyph unicode="0" d="M0 184h1106v92h-1106v-92zM0 369h369v92h-369v-92zM0 553h369v92h-369v-92zM0 737h369v92h-369v-92zM0 922h369v92h-369v-92zM0 1106h1106v92h-1106v-92zM184 0h738v92h-738v-92zM184 1290h738v92h-738v-92zM737 369h369v92h-369v-92zM737 553h369v92h-369v-92zM737 737 h369v92h-369v-92zM737 922h369v92h-369v-92z" />
<glyph unicode="1" horiz-adv-x="460" d="M0 0h369v92h-369v-92zM0 184h369v92h-369v-92zM0 369h369v92h-369v-92zM0 553h369v92h-369v-92zM0 737h369v92h-369v-92zM0 922h369v92h-369v-92zM0 1106h369v92h-369v-92zM0 1290h369v92h-369v-92z" />
<glyph unicode="2" d="M0 0h1106v92h-1106v-92zM0 184h1106v92h-1106v-92zM0 369h369v92h-369v-92zM0 553h922v92h-922v-92zM0 1106h1106v92h-1106v-92zM0 1290h922v92h-922v-92zM184 737h922v92h-922v-92zM737 922h369v92h-369v-92z" />
<glyph unicode="3" d="M0 0h922v92h-922v-92zM0 184h1106v92h-1106v-92zM0 1106h1106v92h-1106v-92zM0 1290h922v92h-922v-92zM369 553h737v92h-737v-92zM369 737h737v92h-737v-92zM737 369h369v92h-369v-92zM737 922h369v92h-369v-92z" />
<glyph unicode="4" d="M0 737h1106v92h-1106v-92zM0 922h369v92h-369v-92zM0 1106h369v92h-369v-92zM0 1290h369v92h-369v-92zM184 553h922v92h-922v-92zM737 0h369v92h-369v-92zM737 184h369v92h-369v-92zM737 369h369v92h-369v-92zM737 922h369v92h-369v-92zM737 1106h369v92h-369v-92z M737 1290h369v92h-369v-92z" />
<glyph unicode="5" d="M0 0h922v92h-922v-92zM0 184h1106v92h-1106v-92zM0 737h922v92h-922v-92zM0 922h369v92h-369v-92zM0 1106h1106v92h-1106v-92zM0 1290h1106v92h-1106v-92zM184 553h922v92h-922v-92zM737 369h369v92h-369v-92z" />
<glyph unicode="6" d="M0 184h1106v92h-1106v-92zM0 369h369v92h-369v-92zM0 553h1106v92h-1106v-92zM0 737h922v92h-922v-92zM0 922h369v92h-369v-92zM0 1106h1106v92h-1106v-92zM184 0h738v92h-738v-92zM184 1290h922v92h-922v-92zM737 369h369v92h-369v-92z" />
<glyph unicode="7" d="M0 1106h1106v92h-1106v-92zM0 1290h922v92h-922v-92zM737 0h369v92h-369v-92zM737 184h369v92h-369v-92zM737 369h369v92h-369v-92zM737 553h369v92h-369v-92zM737 737h369v92h-369v-92zM737 922h369v92h-369v-92z" />
<glyph unicode="8" d="M0 184h1106v92h-1106v-92zM0 369h369v92h-369v-92zM0 553h1106v92h-1106v-92zM0 737h1106v92h-1106v-92zM0 922h369v92h-369v-92zM0 1106h1106v92h-1106v-92zM184 0h738v92h-738v-92zM184 1290h738v92h-738v-92zM737 369h369v92h-369v-92zM737 922h369v92h-369v-92z" />
<glyph unicode="9" d="M0 737h1106v92h-1106v-92zM0 922h369v92h-369v-92zM0 1106h1106v92h-1106v-92zM184 553h922v92h-922v-92zM184 1290h738v92h-738v-92zM737 0h369v92h-369v-92zM737 184h369v92h-369v-92zM737 369h369v92h-369v-92zM737 922h369v92h-369v-92z" />
<glyph unicode=":" horiz-adv-x="460" d="M0 0h369v92h-369v-92zM0 184h369v92h-369v-92zM0 1106h369v92h-369v-92zM0 1290h369v92h-369v-92z" />
<glyph unicode=";" horiz-adv-x="460" d="M0 0h369v92h-369v-92zM0 -92v-92h369v92h-369zM0 184h369v92h-369v-92zM0 1106h369v92h-369v-92zM0 1290h369v92h-369v-92z" />
<glyph unicode="&#x3c;" horiz-adv-x="1013" d="M0 553h553v92h-553v-92zM0 737h553v92h-553v-92zM184 369h553v92h-553v-92zM184 922h553v92h-553v-92zM369 184h553v92h-553v-92zM369 1106h553v92h-553v-92zM553 0h369v92h-369v-92zM553 1290h369v92h-369v-92z" />
<glyph unicode="=" d="M0 184h1106v92h-1106v-92zM0 369h1106v92h-1106v-92zM0 922h1106v92h-1106v-92zM0 1106h1106v92h-1106v-92z" />
<glyph unicode="&#x3e;" horiz-adv-x="1013" d="M0 0h369v92h-369v-92zM0 184h553v92h-553v-92zM0 1106h553v92h-553v-92zM0 1290h369v92h-369v-92zM184 369h553v92h-553v-92zM184 922h553v92h-553v-92zM369 553h553v92h-553v-92zM369 737h553v92h-553v-92z" />
<glyph unicode="?" d="M0 1106h1106v92h-1106v-92zM0 1290h922v92h-922v-92zM369 0h368v92h-368v-92zM369 184h368v92h-368v-92zM369 553h553v92h-553v-92zM369 737h737v92h-737v-92zM737 922h369v92h-369v-92z" />
<glyph unicode="@" horiz-adv-x="1566" d="M0 0h369v92h-369v-92zM0 184h369v92h-369v-92zM0 369h369v92h-369v-92zM0 553h369v92h-369v-92zM0 737h369v92h-369v-92zM0 922h369v92h-369v-92zM0 1106h1475v92h-1475v-92zM184 1290h1106v92h-1106v-92zM553 184h922v92h-922v-92zM553 369h369v92h-369v-92zM553 553 h922v92h-922v-92zM737 0h553v92h-553v-92zM737 737h738v92h-738v-92zM1106 369h369v92h-369v-92zM1106 922h369v92h-369v-92z" />
<glyph unicode="A" d="M0 0h369v92h-369v-92zM0 184h369v92h-369v-92zM0 369h369v92h-369v-92zM0 553h1106v92h-1106v-92zM0 737h1106v92h-1106v-92zM0 922h369v92h-369v-92zM0 1106h1106v92h-1106v-92zM184 1290h738v92h-738v-92zM737 0h369v92h-369v-92zM737 184h369v92h-369v-92zM737 369 h369v92h-369v-92zM737 922h369v92h-369v-92z" />
<glyph unicode="B" d="M0 0h922v92h-922v-92zM0 184h1106v92h-1106v-92zM0 369h369v92h-369v-92zM0 553h922v92h-922v-92zM0 737h922v92h-922v-92zM0 922h369v92h-369v-92zM0 1106h1106v92h-1106v-92zM0 1290h922v92h-922v-92zM737 369h369v92h-369v-92zM737 922h369v92h-369v-92z" />
<glyph unicode="C" d="M0 184h1106v92h-1106v-92zM0 369h369v92h-369v-92zM0 553h369v92h-369v-92zM0 737h369v92h-369v-92zM0 922h369v92h-369v-92zM0 1106h1106v92h-1106v-92zM184 0h922v92h-922v-92zM184 1290h922v92h-922v-92z" />
<glyph unicode="D" d="M0 0h737v92h-737v-92zM0 184h922v92h-922v-92zM0 369h369v92h-369v-92zM0 553h369v92h-369v-92zM0 737h369v92h-369v-92zM0 922h369v92h-369v-92zM0 1106h922v92h-922v-92zM0 1290h737v92h-737v-92zM553 369h553v92h-553v-92zM553 922h553v92h-553v-92zM737 553h369v92 h-369v-92zM737 737h369v92h-369v-92z" />
<glyph unicode="E" d="M0 184h1106v92h-1106v-92zM0 369h369v92h-369v-92zM0 553h737v92h-737v-92zM0 737h737v92h-737v-92zM0 922h369v92h-369v-92zM0 1106h1106v92h-1106v-92zM184 0h922v92h-922v-92zM184 1290h922v92h-922v-92z" />
<glyph unicode="F" d="M0 0h369v92h-369v-92zM0 184h369v92h-369v-92zM0 369h369v92h-369v-92zM0 553h737v92h-737v-92zM0 737h737v92h-737v-92zM0 922h369v92h-369v-92zM0 1106h1106v92h-1106v-92zM184 1290h922v92h-922v-92z" />
<glyph unicode="G" d="M0 184h1106v92h-1106v-92zM0 369h369v92h-369v-92zM0 553h369v92h-369v-92zM0 737h369v92h-369v-92zM0 922h369v92h-369v-92zM0 1106h1106v92h-1106v-92zM184 0h922v92h-922v-92zM184 1290h922v92h-922v-92zM553 553h553v92h-553v-92zM553 737h553v92h-553v-92zM737 369 h369v92h-369v-92z" />
<glyph unicode="H" d="M0 0h369v92h-369v-92zM0 184h369v92h-369v-92zM0 369h369v92h-369v-92zM0 553h1106v92h-1106v-92zM0 737h1106v92h-1106v-92zM0 922h369v92h-369v-92zM0 1106h369v92h-369v-92zM0 1290h369v92h-369v-92zM737 0h369v92h-369v-92zM737 184h369v92h-369v-92zM737 369h369v92 h-369v-92zM737 922h369v92h-369v-92zM737 1106h369v92h-369v-92zM737 1290h369v92h-369v-92z" />
<glyph unicode="I" d="M0 0h1106v92h-1106v-92zM0 184h1106v92h-1106v-92zM0 1106h1106v92h-1106v-92zM0 1290h1106v92h-1106v-92zM369 369h368v92h-368v-92zM369 553h368v92h-368v-92zM369 737h368v92h-368v-92zM369 922h368v92h-368v-92z" />
<glyph unicode="J" d="M0 184h1106v92h-1106v-92zM0 369h369v92h-369v-92zM184 0h738v92h-738v-92zM737 369h369v92h-369v-92zM737 553h369v92h-369v-92zM737 737h369v92h-369v-92zM737 922h369v92h-369v-92zM737 1106h369v92h-369v-92zM737 1290h369v92h-369v-92z" />
<glyph unicode="K" d="M0 0h369v92h-369v-92zM0 184h369v92h-369v-92zM0 369h922v92h-922v-92zM0 553h737v92h-737v-92zM0 737h737v92h-737v-92zM0 922h922v92h-922v-92zM0 1106h369v92h-369v-92zM0 1290h369v92h-369v-92zM553 184h553v92h-553v-92zM553 1106h553v92h-553v-92zM737 0h369v92 h-369v-92zM737 1290h369v92h-369v-92z" />
<glyph unicode="L" d="M0 184h1106v92h-1106v-92zM0 369h369v92h-369v-92zM0 553h369v92h-369v-92zM0 737h369v92h-369v-92zM0 922h369v92h-369v-92zM0 1106h369v92h-369v-92zM0 1290h369v92h-369v-92zM184 0h922v92h-922v-92z" />
<glyph unicode="M" horiz-adv-x="1382" d="M0 0h369v92h-369v-92zM0 184h369v92h-369v-92zM0 369h369v92h-369v-92zM0 553h369v92h-369v-92zM0 737h1290v92h-1290v-92zM0 922h1290v92h-1290v-92zM0 1106h553v92h-553v-92zM0 1290h369v92h-369v-92zM553 553h184v92h-184v-92zM737 1106h553v92h-553v-92zM922 0h368 v92h-368v-92zM922 184h368v92h-368v-92zM922 369h368v92h-368v-92zM922 553h368v92h-368v-92zM922 1290h368v92h-368v-92z" />
<glyph unicode="N" d="M0 0h369v92h-369v-92zM0 184h369v92h-369v-92zM0 369h369v92h-369v-92zM0 553h369v92h-369v-92zM0 737h1106v92h-1106v-92zM0 922h1106v92h-1106v-92zM0 1106h553v92h-553v-92zM0 1290h369v92h-369v-92zM553 553h553v92h-553v-92zM737 0h369v92h-369v-92zM737 184h369v92 h-369v-92zM737 369h369v92h-369v-92zM737 1106h369v92h-369v-92zM737 1290h369v92h-369v-92z" />
<glyph unicode="O" d="M0 184h1106v92h-1106v-92zM0 369h369v92h-369v-92zM0 553h369v92h-369v-92zM0 737h369v92h-369v-92zM0 922h369v92h-369v-92zM0 1106h1106v92h-1106v-92zM184 0h738v92h-738v-92zM184 1290h738v92h-738v-92zM737 369h369v92h-369v-92zM737 553h369v92h-369v-92zM737 737 h369v92h-369v-92zM737 922h369v92h-369v-92z" />
<glyph unicode="P" d="M0 0h369v92h-369v-92zM0 184h369v92h-369v-92zM0 369h369v92h-369v-92zM0 553h922v92h-922v-92zM0 737h1106v92h-1106v-92zM0 922h369v92h-369v-92zM0 1106h1106v92h-1106v-92zM0 1290h922v92h-922v-92zM737 922h369v92h-369v-92z" />
<glyph unicode="Q" d="M0 184h1106v92h-1106v-92zM0 369h369v92h-369v-92zM0 553h369v92h-369v-92zM0 737h369v92h-369v-92zM0 922h369v92h-369v-92zM0 1106h1106v92h-1106v-92zM184 0h922v92h-922v-92zM184 1290h738v92h-738v-92zM553 369h553v92h-553v-92zM737 553h369v92h-369v-92zM737 737 h369v92h-369v-92zM737 922h369v92h-369v-92z" />
<glyph unicode="R" d="M0 0h369v92h-369v-92zM0 184h369v92h-369v-92zM0 369h369v92h-369v-92zM0 553h922v92h-922v-92zM0 737h1106v92h-1106v-92zM0 922h369v92h-369v-92zM0 1106h1106v92h-1106v-92zM0 1290h922v92h-922v-92zM553 369h553v92h-553v-92zM737 0h369v92h-369v-92zM737 184h369v92 h-369v-92zM737 922h369v92h-369v-92z" />
<glyph unicode="S" d="M0 0h922v92h-922v-92zM0 184h1106v92h-1106v-92zM0 737h922v92h-922v-92zM0 922h369v92h-369v-92zM0 1106h1106v92h-1106v-92zM184 553h922v92h-922v-92zM184 1290h922v92h-922v-92zM737 369h369v92h-369v-92z" />
<glyph unicode="T" d="M0 1106h1106v92h-1106v-92zM0 1290h1106v92h-1106v-92zM369 0h368v92h-368v-92zM369 184h368v92h-368v-92zM369 369h368v92h-368v-92zM369 553h368v92h-368v-92zM369 737h368v92h-368v-92zM369 922h368v92h-368v-92z" />
<glyph unicode="U" d="M0 184h1106v92h-1106v-92zM0 369h369v92h-369v-92zM0 553h369v92h-369v-92zM0 737h369v92h-369v-92zM0 922h369v92h-369v-92zM0 1106h369v92h-369v-92zM0 1290h369v92h-369v-92zM184 0h738v92h-738v-92zM737 369h369v92h-369v-92zM737 553h369v92h-369v-92zM737 737h369 v92h-369v-92zM737 922h369v92h-369v-92zM737 1106h369v92h-369v-92zM737 1290h369v92h-369v-92z" />
<glyph unicode="V" d="M0 369h1106v92h-1106v-92zM0 553h369v92h-369v-92zM0 737h369v92h-369v-92zM0 922h369v92h-369v-92zM0 1106h369v92h-369v-92zM0 1290h369v92h-369v-92zM184 184h738v92h-738v-92zM369 0h368v92h-368v-92zM737 553h369v92h-369v-92zM737 737h369v92h-369v-92zM737 922 h369v92h-369v-92zM737 1106h369v92h-369v-92zM737 1290h369v92h-369v-92z" />
<glyph unicode="W" horiz-adv-x="1382" d="M0 0h369v92h-369v-92zM0 184h553v92h-553v-92zM0 369h1290v92h-1290v-92zM0 553h1290v92h-1290v-92zM0 737h369v92h-369v-92zM0 922h369v92h-369v-92zM0 1106h369v92h-369v-92zM0 1290h369v92h-369v-92zM553 737h184v92h-184v-92zM737 184h553v92h-553v-92zM922 0h368v92 h-368v-92zM922 737h368v92h-368v-92zM922 922h368v92h-368v-92zM922 1106h368v92h-368v-92zM922 1290h368v92h-368v-92z" />
<glyph unicode="X" d="M0 0h369v92h-369v-92zM0 184h369v92h-369v-92zM0 369h1106v92h-1106v-92zM0 922h1106v92h-1106v-92zM0 1106h369v92h-369v-92zM0 1290h369v92h-369v-92zM184 553h738v92h-738v-92zM184 737h738v92h-738v-92zM737 0h369v92h-369v-92zM737 184h369v92h-369v-92zM737 1106 h369v92h-369v-92zM737 1290h369v92h-369v-92z" />
<glyph unicode="Y" d="M0 737h1106v92h-1106v-92zM0 922h369v92h-369v-92zM0 1106h369v92h-369v-92zM0 1290h369v92h-369v-92zM184 553h738v92h-738v-92zM369 0h368v92h-368v-92zM369 184h368v92h-368v-92zM369 369h368v92h-368v-92zM737 922h369v92h-369v-92zM737 1106h369v92h-369v-92z M737 1290h369v92h-369v-92z" />
<glyph unicode="Z" d="M0 0h1106v92h-1106v-92zM0 184h1106v92h-1106v-92zM0 369h553v92h-553v-92zM0 1106h1106v92h-1106v-92zM0 1290h1106v92h-1106v-92zM184 553h553v92h-553v-92zM369 737h553v92h-553v-92zM553 922h553v92h-553v-92z" />
<glyph unicode="[" horiz-adv-x="645" d="M0 0h553v92h-553v-92zM0 184h553v92h-553v-92zM0 369h369v92h-369v-92zM0 553h369v92h-369v-92zM0 737h369v92h-369v-92zM0 922h369v92h-369v-92zM0 1106h553v92h-553v-92zM0 1290h553v92h-553v-92z" />
<glyph unicode="\" horiz-adv-x="1566" d="M0 1106h553v92h-553v-92zM0 1290h369v92h-369v-92zM184 922h553v92h-553v-92zM369 737h553v92h-553v-92zM553 553h553v92h-553v-92zM737 369h553v92h-553v-92zM922 184h553v92h-553v-92zM1106 0h369v92h-369v-92z" />
<glyph unicode="]" horiz-adv-x="645" d="M0 0h553v92h-553v-92zM0 184h553v92h-553v-92zM0 1106h553v92h-553v-92zM0 1290h553v92h-553v-92zM184 369h369v92h-369v-92zM184 553h369v92h-369v-92zM184 737h369v92h-369v-92zM184 922h369v92h-369v-92z" />
<glyph unicode="^" d="M0 737h369v92h-369v-92zM0 922h1106v92h-1106v-92zM184 1106h738v92h-738v-92zM369 1290h368v92h-368v-92zM737 737h369v92h-369v-92z" />
<glyph unicode="_" d="M0 0h1106v92h-1106v-92zM0 -92v-92h1106v92h-1106z" />
<glyph unicode="`" horiz-adv-x="460" d="M0 1106h369v92h-369v-92zM0 1290h369v92h-369v-92z" />
<glyph unicode="a" d="M0 0h369v92h-369v-92zM0 184h369v92h-369v-92zM0 369h369v92h-369v-92zM0 553h1106v92h-1106v-92zM0 737h1106v92h-1106v-92zM0 922h369v92h-369v-92zM0 1106h1106v92h-1106v-92zM184 1290h738v92h-738v-92zM737 0h369v92h-369v-92zM737 184h369v92h-369v-92zM737 369 h369v92h-369v-92zM737 922h369v92h-369v-92z" />
<glyph unicode="b" d="M0 0h922v92h-922v-92zM0 184h1106v92h-1106v-92zM0 369h369v92h-369v-92zM0 553h1106v92h-1106v-92zM0 737h1106v92h-1106v-92zM0 922h369v92h-369v-92zM0 1106h1106v92h-1106v-92zM0 1290h922v92h-922v-92zM737 369h369v92h-369v-92zM737 922h369v92h-369v-92z" />
<glyph unicode="c" d="M0 184h1106v92h-1106v-92zM0 369h369v92h-369v-92zM0 553h369v92h-369v-92zM0 737h369v92h-369v-92zM0 922h369v92h-369v-92zM0 1106h1106v92h-1106v-92zM184 0h738v92h-738v-92zM184 1290h738v92h-738v-92zM737 369h369v92h-369v-92zM737 922h369v92h-369v-92z" />
<glyph unicode="d" d="M0 0h922v92h-922v-92zM0 184h1106v92h-1106v-92zM0 369h369v92h-369v-92zM0 553h369v92h-369v-92zM0 737h369v92h-369v-92zM0 922h369v92h-369v-92zM0 1106h1106v92h-1106v-92zM0 1290h922v92h-922v-92zM737 369h369v92h-369v-92zM737 553h369v92h-369v-92zM737 737h369 v92h-369v-92zM737 922h369v92h-369v-92z" />
<glyph unicode="e" d="M0 184h1106v92h-1106v-92zM0 369h369v92h-369v-92zM0 553h737v92h-737v-92zM0 737h737v92h-737v-92zM0 922h369v92h-369v-92zM0 1106h1106v92h-1106v-92zM184 0h922v92h-922v-92zM184 1290h922v92h-922v-92z" />
<glyph unicode="f" d="M0 0h369v92h-369v-92zM0 184h369v92h-369v-92zM0 369h369v92h-369v-92zM0 553h737v92h-737v-92zM0 737h737v92h-737v-92zM0 922h369v92h-369v-92zM0 1106h1106v92h-1106v-92zM184 1290h922v92h-922v-92z" />
<glyph unicode="g" d="M0 184h1106v92h-1106v-92zM0 369h369v92h-369v-92zM0 553h369v92h-369v-92zM0 737h369v92h-369v-92zM0 922h369v92h-369v-92zM0 1106h1106v92h-1106v-92zM184 0h738v92h-738v-92zM184 1290h922v92h-922v-92zM553 553h553v92h-553v-92zM553 737h553v92h-553v-92zM737 369 h369v92h-369v-92z" />
<glyph unicode="h" d="M0 0h369v92h-369v-92zM0 184h369v92h-369v-92zM0 369h369v92h-369v-92zM0 553h1106v92h-1106v-92zM0 737h1106v92h-1106v-92zM0 922h369v92h-369v-92zM0 1106h369v92h-369v-92zM0 1290h369v92h-369v-92zM737 0h369v92h-369v-92zM737 184h369v92h-369v-92zM737 369h369v92 h-369v-92zM737 922h369v92h-369v-92zM737 1106h369v92h-369v-92zM737 1290h369v92h-369v-92z" />
<glyph unicode="i" horiz-adv-x="460" d="M0 0h369v92h-369v-92zM0 184h369v92h-369v-92zM0 369h369v92h-369v-92zM0 553h369v92h-369v-92zM0 737h369v92h-369v-92zM0 922h369v92h-369v-92zM0 1106h369v92h-369v-92zM0 1290h369v92h-369v-92z" />
<glyph unicode="j" d="M0 184h1106v92h-1106v-92zM0 369h369v92h-369v-92zM184 0h738v92h-738v-92zM737 369h369v92h-369v-92zM737 553h369v92h-369v-92zM737 737h369v92h-369v-92zM737 922h369v92h-369v-92zM737 1106h369v92h-369v-92zM737 1290h369v92h-369v-92z" />
<glyph unicode="k" d="M0 0h369v92h-369v-92zM0 184h369v92h-369v-92zM0 369h922v92h-922v-92zM0 553h737v92h-737v-92zM0 737h737v92h-737v-92zM0 922h922v92h-922v-92zM0 1106h369v92h-369v-92zM0 1290h369v92h-369v-92zM553 184h553v92h-553v-92zM553 1106h553v92h-553v-92zM737 0h369v92 h-369v-92zM737 1290h369v92h-369v-92z" />
<glyph unicode="l" d="M0 184h1106v92h-1106v-92zM0 369h369v92h-369v-92zM0 553h369v92h-369v-92zM0 737h369v92h-369v-92zM0 922h369v92h-369v-92zM0 1106h369v92h-369v-92zM0 1290h369v92h-369v-92zM184 0h922v92h-922v-92z" />
<glyph unicode="m" horiz-adv-x="1566" d="M0 0h369v92h-369v-92zM0 184h369v92h-369v-92zM0 369h369v92h-369v-92zM0 553h369v92h-369v-92zM0 737h369v92h-369v-92zM0 922h369v92h-369v-92zM0 1106h1475v92h-1475v-92zM184 1290h1106v92h-1106v-92zM553 0h369v92h-369v-92zM553 184h369v92h-369v-92zM553 369h369 v92h-369v-92zM553 553h369v92h-369v-92zM553 737h369v92h-369v-92zM553 922h369v92h-369v-92zM1106 0h369v92h-369v-92zM1106 184h369v92h-369v-92zM1106 369h369v92h-369v-92zM1106 553h369v92h-369v-92zM1106 737h369v92h-369v-92zM1106 922h369v92h-369v-92z" />
<glyph unicode="n" d="M0 0h369v92h-369v-92zM0 184h369v92h-369v-92zM0 369h369v92h-369v-92zM0 553h369v92h-369v-92zM0 737h369v92h-369v-92zM0 922h369v92h-369v-92zM0 1106h1106v92h-1106v-92zM184 1290h738v92h-738v-92zM737 0h369v92h-369v-92zM737 184h369v92h-369v-92zM737 369h369v92 h-369v-92zM737 553h369v92h-369v-92zM737 737h369v92h-369v-92zM737 922h369v92h-369v-92z" />
<glyph unicode="o" d="M0 184h1106v92h-1106v-92zM0 369h369v92h-369v-92zM0 553h369v92h-369v-92zM0 737h369v92h-369v-92zM0 922h369v92h-369v-92zM0 1106h1106v92h-1106v-92zM184 0h738v92h-738v-92zM184 1290h738v92h-738v-92zM737 369h369v92h-369v-92zM737 553h369v92h-369v-92zM737 737 h369v92h-369v-92zM737 922h369v92h-369v-92z" />
<glyph unicode="p" d="M0 0h369v92h-369v-92zM0 184h369v92h-369v-92zM0 369h369v92h-369v-92zM0 553h922v92h-922v-92zM0 737h1106v92h-1106v-92zM0 922h369v92h-369v-92zM0 1106h1106v92h-1106v-92zM184 1290h738v92h-738v-92zM737 922h369v92h-369v-92z" />
<glyph unicode="q" d="M0 184h1106v92h-1106v-92zM0 369h369v92h-369v-92zM0 553h369v92h-369v-92zM0 737h369v92h-369v-92zM0 922h369v92h-369v-92zM0 1106h1106v92h-1106v-92zM184 0h738v92h-738v-92zM184 1290h738v92h-738v-92zM369 -92v-92h368v92h-368zM737 369h369v92h-369v-92zM737 553 h369v92h-369v-92zM737 737h369v92h-369v-92zM737 922h369v92h-369v-92z" />
<glyph unicode="r" d="M0 0h369v92h-369v-92zM0 184h369v92h-369v-92zM0 369h369v92h-369v-92zM0 553h922v92h-922v-92zM0 737h1106v92h-1106v-92zM0 922h369v92h-369v-92zM0 1106h1106v92h-1106v-92zM184 1290h738v92h-738v-92zM553 369h553v92h-553v-92zM737 0h369v92h-369v-92zM737 184h369 v92h-369v-92zM737 922h369v92h-369v-92z" />
<glyph unicode="s" d="M0 0h922v92h-922v-92zM0 184h1106v92h-1106v-92zM0 737h922v92h-922v-92zM0 922h369v92h-369v-92zM0 1106h1106v92h-1106v-92zM184 553h922v92h-922v-92zM184 1290h922v92h-922v-92zM737 369h369v92h-369v-92z" />
<glyph unicode="t" d="M0 1106h1106v92h-1106v-92zM0 1290h1106v92h-1106v-92zM369 0h368v92h-368v-92zM369 184h368v92h-368v-92zM369 369h368v92h-368v-92zM369 553h368v92h-368v-92zM369 737h368v92h-368v-92zM369 922h368v92h-368v-92z" />
<glyph unicode="u" d="M0 184h1106v92h-1106v-92zM0 369h369v92h-369v-92zM0 553h369v92h-369v-92zM0 737h369v92h-369v-92zM0 922h369v92h-369v-92zM0 1106h369v92h-369v-92zM0 1290h369v92h-369v-92zM184 0h738v92h-738v-92zM737 369h369v92h-369v-92zM737 553h369v92h-369v-92zM737 737h369 v92h-369v-92zM737 922h369v92h-369v-92zM737 1106h369v92h-369v-92zM737 1290h369v92h-369v-92z" />
<glyph unicode="v" d="M0 0h553v92h-553v-92zM0 184h737v92h-737v-92zM0 369h922v92h-922v-92zM0 553h369v92h-369v-92zM0 737h369v92h-369v-92zM0 922h369v92h-369v-92zM0 1106h369v92h-369v-92zM0 1290h369v92h-369v-92zM553 553h553v92h-553v-92zM737 737h369v92h-369v-92zM737 922h369v92 h-369v-92zM737 1106h369v92h-369v-92zM737 1290h369v92h-369v-92z" />
<glyph unicode="w" horiz-adv-x="1566" d="M0 184h1475v92h-1475v-92zM0 369h369v92h-369v-92zM0 553h369v92h-369v-92zM0 737h369v92h-369v-92zM0 922h369v92h-369v-92zM0 1106h369v92h-369v-92zM0 1290h369v92h-369v-92zM184 0h1106v92h-1106v-92zM553 369h369v92h-369v-92zM553 553h369v92h-369v-92zM553 737 h369v92h-369v-92zM553 922h369v92h-369v-92zM553 1106h369v92h-369v-92zM553 1290h369v92h-369v-92zM1106 369h369v92h-369v-92zM1106 553h369v92h-369v-92zM1106 737h369v92h-369v-92zM1106 922h369v92h-369v-92zM1106 1106h369v92h-369v-92zM1106 1290h369v92h-369v-92z " />
<glyph unicode="x" d="M0 0h369v92h-369v-92zM0 184h369v92h-369v-92zM0 369h1106v92h-1106v-92zM0 922h1106v92h-1106v-92zM0 1106h369v92h-369v-92zM0 1290h369v92h-369v-92zM184 553h738v92h-738v-92zM184 737h738v92h-738v-92zM737 0h369v92h-369v-92zM737 184h369v92h-369v-92zM737 1106 h369v92h-369v-92zM737 1290h369v92h-369v-92z" />
<glyph unicode="y" d="M0 737h1106v92h-1106v-92zM0 922h369v92h-369v-92zM0 1106h369v92h-369v-92zM0 1290h369v92h-369v-92zM184 553h738v92h-738v-92zM369 0h368v92h-368v-92zM369 184h368v92h-368v-92zM369 369h368v92h-368v-92zM737 922h369v92h-369v-92zM737 1106h369v92h-369v-92z M737 1290h369v92h-369v-92z" />
<glyph unicode="z" d="M0 0h1106v92h-1106v-92zM0 184h1106v92h-1106v-92zM0 369h553v92h-553v-92zM0 1106h1106v92h-1106v-92zM0 1290h1106v92h-1106v-92zM184 553h553v92h-553v-92zM369 737h553v92h-553v-92zM553 922h553v92h-553v-92z" />
<glyph unicode="{" horiz-adv-x="829" d="M0 553h553v92h-553v-92zM0 737h553v92h-553v-92zM184 184h553v92h-553v-92zM184 369h369v92h-369v-92zM184 922h369v92h-369v-92zM184 1106h553v92h-553v-92zM369 0h368v92h-368v-92zM369 1290h368v92h-368v-92z" />
<glyph unicode="|" horiz-adv-x="460" d="M0 0h369v92h-369v-92zM0 -92v-92h369v92h-369zM0 184h369v92h-369v-92zM0 369h369v92h-369v-92zM0 553h369v92h-369v-92zM0 737h369v92h-369v-92zM0 922h369v92h-369v-92zM0 1106h369v92h-369v-92zM0 1290h369v92h-369v-92zM0 1475h369v92h-369v-92z" />
<glyph unicode="}" horiz-adv-x="829" d="M0 0h369v92h-369v-92zM0 184h553v92h-553v-92zM0 1106h553v92h-553v-92zM0 1290h369v92h-369v-92zM184 369h369v92h-369v-92zM184 553h553v92h-553v-92zM184 737h553v92h-553v-92zM184 922h369v92h-369v-92z" />
<glyph unicode="~" horiz-adv-x="1382" d="M0 553h369v92h-369v-92zM0 737h737v92h-737v-92zM184 922h553v92h-553v-92zM553 369h553v92h-553v-92zM553 553h737v92h-737v-92zM922 737h368v92h-368v-92z" />
<glyph d="M0 0h1106v92h-1106v-92zM0 184h1106v92h-1106v-92zM0 369h1106v92h-1106v-92zM0 553h1106v92h-1106v-92zM0 737h1106v92h-1106v-92zM0 922h1106v92h-1106v-92zM0 1106h1106v92h-1106v-92zM0 1290h1106v92h-1106v-92z" />
<glyph d="M0 0h1106v92h-1106v-92zM0 184h1106v92h-1106v-92zM0 369h1106v92h-1106v-92zM0 553h1106v92h-1106v-92zM0 737h1106v92h-1106v-92zM0 922h1106v92h-1106v-92zM0 1106h1106v92h-1106v-92zM0 1290h1106v92h-1106v-92z" />
<glyph d="M0 0h1106v92h-1106v-92zM0 184h1106v92h-1106v-92zM0 369h1106v92h-1106v-92zM0 553h1106v92h-1106v-92zM0 737h1106v92h-1106v-92zM0 922h1106v92h-1106v-92zM0 1106h1106v92h-1106v-92zM0 1290h1106v92h-1106v-92z" />
<glyph d="M0 0h1106v92h-1106v-92zM0 184h1106v92h-1106v-92zM0 369h1106v92h-1106v-92zM0 553h1106v92h-1106v-92zM0 737h1106v92h-1106v-92zM0 922h1106v92h-1106v-92zM0 1106h1106v92h-1106v-92zM0 1290h1106v92h-1106v-92z" />
<glyph d="M0 0h1106v92h-1106v-92zM0 184h1106v92h-1106v-92zM0 369h1106v92h-1106v-92zM0 553h1106v92h-1106v-92zM0 737h1106v92h-1106v-92zM0 922h1106v92h-1106v-92zM0 1106h1106v92h-1106v-92zM0 1290h1106v92h-1106v-92z" />
<glyph d="M0 0h1106v92h-1106v-92zM0 184h1106v92h-1106v-92zM0 369h1106v92h-1106v-92zM0 553h1106v92h-1106v-92zM0 737h1106v92h-1106v-92zM0 922h1106v92h-1106v-92zM0 1106h1106v92h-1106v-92zM0 1290h1106v92h-1106v-92z" />
<glyph d="M0 0h1106v92h-1106v-92zM0 184h1106v92h-1106v-92zM0 369h1106v92h-1106v-92zM0 553h1106v92h-1106v-92zM0 737h1106v92h-1106v-92zM0 922h1106v92h-1106v-92zM0 1106h1106v92h-1106v-92zM0 1290h1106v92h-1106v-92z" />
<glyph d="M0 0h1106v92h-1106v-92zM0 184h1106v92h-1106v-92zM0 369h1106v92h-1106v-92zM0 553h1106v92h-1106v-92zM0 737h1106v92h-1106v-92zM0 922h1106v92h-1106v-92zM0 1106h1106v92h-1106v-92zM0 1290h1106v92h-1106v-92z" />
<glyph d="M0 0h1106v92h-1106v-92zM0 184h1106v92h-1106v-92zM0 369h1106v92h-1106v-92zM0 553h1106v92h-1106v-92zM0 737h1106v92h-1106v-92zM0 922h1106v92h-1106v-92zM0 1106h1106v92h-1106v-92zM0 1290h1106v92h-1106v-92z" />
<glyph unicode="&#xa0;" />
<glyph unicode="&#xa1;" horiz-adv-x="460" d="M0 0h369v92h-369v-92zM0 184h369v92h-369v-92zM0 369h369v92h-369v-92zM0 553h369v92h-369v-92zM0 737h369v92h-369v-92zM0 1106h369v92h-369v-92zM0 1290h369v92h-369v-92z" />
<glyph unicode="&#xa2;" d="M0 184h1106v92h-1106v-92zM0 369h369v92h-369v-92zM0 553h369v92h-369v-92zM0 737h369v92h-369v-92zM0 922h369v92h-369v-92zM0 1106h1106v92h-1106v-92zM184 0h738v92h-738v-92zM184 1290h738v92h-738v-92zM369 -92v-92h368v92h-368zM369 -276v-93h368v93h-368z M369 1475h368v92h-368v-92zM369 1659h368v92h-368v-92zM737 369h369v92h-369v-92zM737 922h369v92h-369v-92z" />
<glyph unicode="&#xa3;" horiz-adv-x="1382" d="M0 0h1106v92h-1106v-92zM0 184h1290v92h-1290v-92zM0 553h737v92h-737v-92zM0 737h737v92h-737v-92zM184 369h369v92h-369v-92zM184 922h369v92h-369v-92zM184 1106h1106v92h-1106v-92zM369 1290h737v92h-737v-92zM922 369h368v92h-368v-92zM922 922h368v92h-368v-92z " />
<glyph unicode="&#xa4;" horiz-adv-x="1566" d="M0 0h369v92h-369v-92zM0 184h184v92h-184v-92zM0 1106h184v92h-184v-92zM0 1290h369v92h-369v-92zM184 369h1106v92h-1106v-92zM184 553h369v92h-369v-92zM184 737h369v92h-369v-92zM184 922h1106v92h-1106v-92zM369 184h737v92h-737v-92zM369 1106h737v92h-737v-92z M922 553h368v92h-368v-92zM922 737h368v92h-368v-92zM1106 0h369v92h-369v-92zM1106 1290h369v92h-369v-92zM1290 184h185v92h-185v-92zM1290 1106h185v92h-185v-92z" />
<glyph unicode="&#xa5;" d="M0 0h1106v92h-1106v-92zM0 369h1106v92h-1106v-92zM0 737h1106v92h-1106v-92zM0 922h369v92h-369v-92zM0 1106h369v92h-369v-92zM0 1290h369v92h-369v-92zM184 553h738v92h-738v-92zM369 184h368v92h-368v-92zM737 922h369v92h-369v-92zM737 1106h369v92h-369v-92z M737 1290h369v92h-369v-92z" />
<glyph unicode="&#xa6;" horiz-adv-x="460" d="M0 0h369v92h-369v-92zM0 -92v-92h369v92h-369zM0 184h369v92h-369v-92zM0 369h369v92h-369v-92zM0 922h369v92h-369v-92zM0 1106h369v92h-369v-92zM0 1290h369v92h-369v-92zM0 1475h369v92h-369v-92z" />
<glyph unicode="&#xa7;" d="M0 0h1106v92h-1106v-92zM0 -92v-92h922v92h-922zM0 553h1106v92h-1106v-92zM0 737h369v92h-369v-92zM0 922h1106v92h-1106v-92zM0 1106h922v92h-922v-92zM0 1290h369v92h-369v-92zM0 1475h1106v92h-1106v-92zM184 369h922v92h-922v-92zM184 1659h922v92h-922v-92z M737 184h369v92h-369v-92zM737 737h369v92h-369v-92z" />
<glyph unicode="&#xa8;" horiz-adv-x="829" d="M0 1659h184v92h-184v-92zM553 1659h184v92h-184v-92z" />
<glyph unicode="&#xa9;" horiz-adv-x="1751" d="M0 0h1659v92h-1659v-92zM0 184h369v92h-369v-92zM0 369h369v92h-369v-92zM0 553h369v92h-369v-92zM0 737h369v92h-369v-92zM0 922h369v92h-369v-92zM0 1106h369v92h-369v-92zM0 1290h1659v92h-1659v-92zM184 -92v-92h1291v92h-1291zM184 1475h1291v92h-1291v-92zM553 553 h184v92h-184v-92zM553 737h184v92h-184v-92zM737 369h369v92h-369v-92zM737 922h369v92h-369v-92zM1290 184h369v92h-369v-92zM1290 369h369v92h-369v-92zM1290 553h369v92h-369v-92zM1290 737h369v92h-369v-92zM1290 922h369v92h-369v-92zM1290 1106h369v92h-369v-92z" />
<glyph unicode="&#xaa;" d="M0 553h1106v92h-1106v-92zM0 737h369v92h-369v-92zM0 922h1106v92h-1106v-92zM184 369h922v92h-922v-92zM184 1106h922v92h-922v-92zM369 1475h737v92h-737v-92zM369 1659h553v92h-553v-92zM737 737h369v92h-369v-92zM737 1290h369v92h-369v-92z" />
<glyph unicode="&#xab;" horiz-adv-x="1566" d="M0 553h553v92h-553v-92zM0 737h553v92h-553v-92zM184 369h553v92h-553v-92zM184 922h553v92h-553v-92zM369 184h368v92h-368v-92zM369 1106h368v92h-368v-92zM737 553h553v92h-553v-92zM737 737h553v92h-553v-92zM922 369h553v92h-553v-92zM922 922h553v92h-553v-92z M1106 184h369v92h-369v-92zM1106 1106h369v92h-369v-92z" />
<glyph unicode="&#xac;" d="M0 553h1106v92h-1106v-92zM0 737h1106v92h-1106v-92zM737 184h369v92h-369v-92zM737 369h369v92h-369v-92z" />
<glyph unicode="&#xad;" horiz-adv-x="829" d="M0 553h737v92h-737v-92zM0 737h737v92h-737v-92z" />
<glyph unicode="&#xae;" horiz-adv-x="1751" d="M0 0h1659v92h-1659v-92zM0 184h369v92h-369v-92zM0 369h369v92h-369v-92zM0 553h369v92h-369v-92zM0 737h369v92h-369v-92zM0 922h369v92h-369v-92zM0 1106h369v92h-369v-92zM0 1290h1659v92h-1659v-92zM184 -92v-92h1291v92h-1291zM184 1475h1291v92h-1291v-92zM553 369 h184v92h-184v-92zM553 553h369v92h-369v-92zM553 737h184v92h-184v-92zM553 922h553v92h-553v-92zM922 369h184v92h-184v-92zM922 737h184v92h-184v-92zM1290 184h369v92h-369v-92zM1290 369h369v92h-369v-92zM1290 553h369v92h-369v-92zM1290 737h369v92h-369v-92z M1290 922h369v92h-369v-92zM1290 1106h369v92h-369v-92z" />
<glyph unicode="&#xaf;" d="M0 1475h1106v92h-1106v-92zM0 1659h1106v92h-1106v-92z" />
<glyph unicode="&#xb0;" horiz-adv-x="645" d="M0 1290h553v92h-553v-92zM0 1475h184v92h-184v-92zM0 1659h553v92h-553v-92zM369 1475h184v92h-184v-92z" />
<glyph unicode="&#xb1;" d="M0 0h1106v92h-1106v-92zM0 184h1106v92h-1106v-92zM0 737h1106v92h-1106v-92zM0 922h1106v92h-1106v-92zM369 369h368v92h-368v-92zM369 553h368v92h-368v-92zM369 1106h368v92h-368v-92zM369 1290h368v92h-368v-92z" />
<glyph unicode="&#xb2;" horiz-adv-x="645" d="M0 922h553v92h-553v-92zM0 1106h184v92h-184v-92zM0 1290h553v92h-553v-92zM0 1659h553v92h-553v-92zM369 1475h184v92h-184v-92z" />
<glyph unicode="&#xb3;" horiz-adv-x="645" d="M0 922h553v92h-553v-92zM0 1659h553v92h-553v-92zM184 1290h369v92h-369v-92zM369 1106h184v92h-184v-92zM369 1475h184v92h-184v-92z" />
<glyph unicode="&#xb4;" horiz-adv-x="460" d="M0 1475h184v92h-184v-92zM184 1659h185v92h-185v-92z" />
<glyph unicode="&#xb5;" d="M0 0h922v92h-922v-92zM0 -92v-92h369v92h-369zM0 184h1106v92h-1106v-92zM0 -276v-93h369v93h-369zM0 369h369v92h-369v-92zM0 553h369v92h-369v-92zM0 737h369v92h-369v-92zM0 922h369v92h-369v-92zM0 1106h369v92h-369v-92zM0 1290h369v92h-369v-92zM737 369h369v92 h-369v-92zM737 553h369v92h-369v-92zM737 737h369v92h-369v-92zM737 922h369v92h-369v-92zM737 1106h369v92h-369v-92zM737 1290h369v92h-369v-92z" />
<glyph unicode="&#xb6;" horiz-adv-x="1566" d="M0 737h737v92h-737v-92zM0 922h737v92h-737v-92zM0 1106h1475v92h-1475v-92zM184 553h553v92h-553v-92zM184 1290h1291v92h-1291v-92zM369 0h368v92h-368v-92zM369 184h368v92h-368v-92zM369 369h368v92h-368v-92zM922 0h368v92h-368v-92zM922 184h368v92h-368v-92z M922 369h368v92h-368v-92zM922 553h368v92h-368v-92zM922 737h368v92h-368v-92zM922 922h368v92h-368v-92z" />
<glyph unicode="&#xb7;" horiz-adv-x="460" d="M0 553h369v92h-369v-92zM0 737h369v92h-369v-92z" />
<glyph unicode="&#xb8;" horiz-adv-x="460" d="M0 -276v-93h369v93h-369zM184 -92v-92h185v92h-185z" />
<glyph unicode="&#xb9;" horiz-adv-x="276" d="M0 922h184v92h-184v-92zM0 1106h184v92h-184v-92zM0 1290h184v92h-184v-92zM0 1475h184v92h-184v-92zM0 1659h184v92h-184v-92z" />
<glyph unicode="&#xba;" horiz-adv-x="645" d="M0 922h553v92h-553v-92zM0 1106h184v92h-184v-92zM0 1290h184v92h-184v-92zM0 1475h184v92h-184v-92zM0 1659h553v92h-553v-92zM369 1106h184v92h-184v-92zM369 1290h184v92h-184v-92zM369 1475h184v92h-184v-92z" />
<glyph unicode="&#xbb;" horiz-adv-x="1566" d="M0 184h369v92h-369v-92zM0 369h553v92h-553v-92zM0 922h553v92h-553v-92zM0 1106h369v92h-369v-92zM184 553h553v92h-553v-92zM184 737h553v92h-553v-92zM737 184h369v92h-369v-92zM737 369h553v92h-553v-92zM737 922h553v92h-553v-92zM737 1106h369v92h-369v-92z M922 553h553v92h-553v-92zM922 737h553v92h-553v-92z" />
<glyph unicode="&#xbc;" horiz-adv-x="1566" d="M0 0h369v92h-369v-92zM0 184h553v92h-553v-92zM184 369h553v92h-553v-92zM184 737h185v92h-185v-92zM184 922h185v92h-185v-92zM184 1106h185v92h-185v-92zM184 1290h185v92h-185v-92zM184 1475h185v92h-185v-92zM369 553h737v92h-737v-92zM553 737h553v92h-553v-92z M737 922h553v92h-553v-92zM922 184h553v92h-553v-92zM922 369h184v92h-184v-92zM922 1106h553v92h-553v-92zM1106 1290h369v92h-369v-92zM1290 0h185v92h-185v-92zM1290 -92v-92h185v92h-185zM1290 369h185v92h-185v-92zM1290 553h185v92h-185v-92z" />
<glyph unicode="&#xbd;" horiz-adv-x="1566" d="M0 0h369v92h-369v-92zM0 184h553v92h-553v-92zM184 369h553v92h-553v-92zM184 737h185v92h-185v-92zM184 922h185v92h-185v-92zM184 1106h185v92h-185v-92zM184 1290h185v92h-185v-92zM184 1475h185v92h-185v-92zM369 553h1106v92h-1106v-92zM553 737h553v92h-553v-92z M737 922h553v92h-553v-92zM922 0h184v92h-184v-92zM922 -92v-92h553v92h-553zM922 184h553v92h-553v-92zM922 1106h553v92h-553v-92zM1106 1290h369v92h-369v-92zM1290 369h185v92h-185v-92z" />
<glyph unicode="&#xbe;" horiz-adv-x="1566" d="M0 0h369v92h-369v-92zM0 184h553v92h-553v-92zM0 737h1106v92h-1106v-92zM0 1475h553v92h-553v-92zM184 369h553v92h-553v-92zM184 1106h369v92h-369v-92zM369 553h737v92h-737v-92zM369 922h184v92h-184v-92zM369 1290h184v92h-184v-92zM737 922h553v92h-553v-92z M922 184h553v92h-553v-92zM922 369h184v92h-184v-92zM922 1106h553v92h-553v-92zM1106 1290h369v92h-369v-92zM1290 0h185v92h-185v-92zM1290 -92v-92h185v92h-185zM1290 369h185v92h-185v-92zM1290 553h185v92h-185v-92z" />
<glyph unicode="&#xbf;" d="M0 184h1106v92h-1106v-92zM0 369h369v92h-369v-92zM0 553h737v92h-737v-92zM184 0h922v92h-922v-92zM184 737h553v92h-553v-92zM369 1106h368v92h-368v-92zM369 1290h368v92h-368v-92z" />
<glyph unicode="&#xc0;" d="M0 0h369v92h-369v-92zM0 184h369v92h-369v-92zM0 369h369v92h-369v-92zM0 553h1106v92h-1106v-92zM0 737h1106v92h-1106v-92zM0 922h369v92h-369v-92zM0 1106h1106v92h-1106v-92zM184 1290h738v92h-738v-92zM369 1659h184v92h-184v-92zM553 1475h184v92h-184v-92zM737 0 h369v92h-369v-92zM737 184h369v92h-369v-92zM737 369h369v92h-369v-92zM737 922h369v92h-369v-92z" />
<glyph unicode="&#xc1;" d="M0 0h369v92h-369v-92zM0 184h369v92h-369v-92zM0 369h369v92h-369v-92zM0 553h1106v92h-1106v-92zM0 737h1106v92h-1106v-92zM0 922h369v92h-369v-92zM0 1106h1106v92h-1106v-92zM184 1290h738v92h-738v-92zM369 1475h184v92h-184v-92zM553 1659h184v92h-184v-92zM737 0 h369v92h-369v-92zM737 184h369v92h-369v-92zM737 369h369v92h-369v-92zM737 922h369v92h-369v-92z" />
<glyph unicode="&#xc2;" d="M0 0h369v92h-369v-92zM0 184h369v92h-369v-92zM0 369h369v92h-369v-92zM0 553h1106v92h-1106v-92zM0 737h1106v92h-1106v-92zM0 922h369v92h-369v-92zM0 1106h1106v92h-1106v-92zM184 1290h738v92h-738v-92zM184 1475h185v92h-185v-92zM369 1659h368v92h-368v-92zM737 0 h369v92h-369v-92zM737 184h369v92h-369v-92zM737 369h369v92h-369v-92zM737 922h369v92h-369v-92zM737 1475h185v92h-185v-92z" />
<glyph unicode="&#xc3;" d="M0 0h369v92h-369v-92zM0 184h369v92h-369v-92zM0 369h369v92h-369v-92zM0 553h1106v92h-1106v-92zM0 737h1106v92h-1106v-92zM0 922h369v92h-369v-92zM0 1106h1106v92h-1106v-92zM184 1290h738v92h-738v-92zM184 1475h185v92h-185v-92zM184 1659h369v92h-369v-92z M553 1475h369v92h-369v-92zM737 0h369v92h-369v-92zM737 184h369v92h-369v-92zM737 369h369v92h-369v-92zM737 922h369v92h-369v-92zM737 1659h185v92h-185v-92z" />
<glyph unicode="&#xc4;" d="M0 0h369v92h-369v-92zM0 184h369v92h-369v-92zM0 369h369v92h-369v-92zM0 553h1106v92h-1106v-92zM0 737h1106v92h-1106v-92zM0 922h369v92h-369v-92zM0 1106h1106v92h-1106v-92zM184 1290h738v92h-738v-92zM184 1659h185v92h-185v-92zM737 0h369v92h-369v-92zM737 184 h369v92h-369v-92zM737 369h369v92h-369v-92zM737 922h369v92h-369v-92zM737 1659h185v92h-185v-92z" />
<glyph unicode="&#xc5;" d="M0 0h369v92h-369v-92zM0 184h369v92h-369v-92zM0 369h369v92h-369v-92zM0 553h1106v92h-1106v-92zM0 737h1106v92h-1106v-92zM0 922h369v92h-369v-92zM0 1106h1106v92h-1106v-92zM184 1290h738v92h-738v-92zM184 1475h185v92h-185v-92zM184 1659h738v92h-738v-92zM737 0 h369v92h-369v-92zM737 184h369v92h-369v-92zM737 369h369v92h-369v-92zM737 922h369v92h-369v-92zM737 1475h185v92h-185v-92z" />
<glyph unicode="&#xc6;" horiz-adv-x="1935" d="M0 0h369v92h-369v-92zM0 184h369v92h-369v-92zM0 369h369v92h-369v-92zM0 553h1475v92h-1475v-92zM0 737h1475v92h-1475v-92zM0 922h369v92h-369v-92zM0 1106h1843v92h-1843v-92zM184 1290h1659v92h-1659v-92zM737 184h1106v92h-1106v-92zM737 369h369v92h-369v-92z M737 922h369v92h-369v-92zM922 0h921v92h-921v-92z" />
<glyph unicode="&#xc7;" d="M0 184h1106v92h-1106v-92zM0 369h369v92h-369v-92zM0 553h369v92h-369v-92zM0 737h369v92h-369v-92zM0 922h369v92h-369v-92zM0 1106h1106v92h-1106v-92zM184 0h922v92h-922v-92zM184 1290h922v92h-922v-92zM369 -276v-93h368v93h-368zM553 -92v-92h184v92h-184z" />
<glyph unicode="&#xc8;" d="M0 184h1106v92h-1106v-92zM0 369h369v92h-369v-92zM0 553h737v92h-737v-92zM0 737h737v92h-737v-92zM0 922h369v92h-369v-92zM0 1106h1106v92h-1106v-92zM184 0h922v92h-922v-92zM184 1290h922v92h-922v-92zM369 1659h184v92h-184v-92zM553 1475h184v92h-184v-92z" />
<glyph unicode="&#xc9;" d="M0 184h1106v92h-1106v-92zM0 369h369v92h-369v-92zM0 553h737v92h-737v-92zM0 737h737v92h-737v-92zM0 922h369v92h-369v-92zM0 1106h1106v92h-1106v-92zM184 0h922v92h-922v-92zM184 1290h922v92h-922v-92zM369 1475h184v92h-184v-92zM553 1659h184v92h-184v-92z" />
<glyph unicode="&#xca;" d="M0 184h1106v92h-1106v-92zM0 369h369v92h-369v-92zM0 553h737v92h-737v-92zM0 737h737v92h-737v-92zM0 922h369v92h-369v-92zM0 1106h1106v92h-1106v-92zM184 0h922v92h-922v-92zM184 1290h922v92h-922v-92zM184 1475h185v92h-185v-92zM369 1659h368v92h-368v-92z M737 1475h185v92h-185v-92z" />
<glyph unicode="&#xcb;" d="M0 184h1106v92h-1106v-92zM0 369h369v92h-369v-92zM0 553h737v92h-737v-92zM0 737h737v92h-737v-92zM0 922h369v92h-369v-92zM0 1106h1106v92h-1106v-92zM184 0h922v92h-922v-92zM184 1290h922v92h-922v-92zM184 1659h185v92h-185v-92zM737 1659h185v92h-185v-92z" />
<glyph unicode="&#xcc;" d="M0 0h1106v92h-1106v-92zM0 184h1106v92h-1106v-92zM0 1106h1106v92h-1106v-92zM0 1290h1106v92h-1106v-92zM369 369h368v92h-368v-92zM369 553h368v92h-368v-92zM369 737h368v92h-368v-92zM369 922h368v92h-368v-92zM369 1659h184v92h-184v-92zM553 1475h184v92h-184v-92 z" />
<glyph unicode="&#xcd;" d="M0 0h1106v92h-1106v-92zM0 184h1106v92h-1106v-92zM0 1106h1106v92h-1106v-92zM0 1290h1106v92h-1106v-92zM369 369h368v92h-368v-92zM369 553h368v92h-368v-92zM369 737h368v92h-368v-92zM369 922h368v92h-368v-92zM369 1475h184v92h-184v-92zM553 1659h184v92h-184v-92 z" />
<glyph unicode="&#xce;" d="M0 0h1106v92h-1106v-92zM0 184h1106v92h-1106v-92zM0 1106h1106v92h-1106v-92zM0 1290h1106v92h-1106v-92zM184 1475h185v92h-185v-92zM369 369h368v92h-368v-92zM369 553h368v92h-368v-92zM369 737h368v92h-368v-92zM369 922h368v92h-368v-92zM369 1659h368v92h-368v-92 zM737 1475h185v92h-185v-92z" />
<glyph unicode="&#xcf;" d="M0 0h1106v92h-1106v-92zM0 184h1106v92h-1106v-92zM0 1106h1106v92h-1106v-92zM0 1290h1106v92h-1106v-92zM184 1659h185v92h-185v-92zM369 369h368v92h-368v-92zM369 553h368v92h-368v-92zM369 737h368v92h-368v-92zM369 922h368v92h-368v-92zM737 1659h185v92h-185v-92 z" />
<glyph unicode="&#xd0;" horiz-adv-x="1382" d="M0 553h737v92h-737v-92zM0 737h737v92h-737v-92zM184 0h922v92h-922v-92zM184 184h1106v92h-1106v-92zM184 369h369v92h-369v-92zM184 922h369v92h-369v-92zM184 1106h1106v92h-1106v-92zM184 1290h922v92h-922v-92zM922 369h368v92h-368v-92zM922 553h368v92h-368v-92z M922 737h368v92h-368v-92zM922 922h368v92h-368v-92z" />
<glyph unicode="&#xd1;" d="M0 0h369v92h-369v-92zM0 184h369v92h-369v-92zM0 369h369v92h-369v-92zM0 553h369v92h-369v-92zM0 737h1106v92h-1106v-92zM0 922h1106v92h-1106v-92zM0 1106h553v92h-553v-92zM0 1290h369v92h-369v-92zM184 1475h185v92h-185v-92zM184 1659h369v92h-369v-92zM553 553 h553v92h-553v-92zM553 1475h369v92h-369v-92zM737 0h369v92h-369v-92zM737 184h369v92h-369v-92zM737 369h369v92h-369v-92zM737 1106h369v92h-369v-92zM737 1290h369v92h-369v-92zM737 1659h185v92h-185v-92z" />
<glyph unicode="&#xd2;" d="M0 184h1106v92h-1106v-92zM0 369h369v92h-369v-92zM0 553h369v92h-369v-92zM0 737h369v92h-369v-92zM0 922h369v92h-369v-92zM0 1106h1106v92h-1106v-92zM184 0h738v92h-738v-92zM184 1290h738v92h-738v-92zM369 1659h184v92h-184v-92zM553 1475h184v92h-184v-92z M737 369h369v92h-369v-92zM737 553h369v92h-369v-92zM737 737h369v92h-369v-92zM737 922h369v92h-369v-92z" />
<glyph unicode="&#xd3;" d="M0 184h1106v92h-1106v-92zM0 369h369v92h-369v-92zM0 553h369v92h-369v-92zM0 737h369v92h-369v-92zM0 922h369v92h-369v-92zM0 1106h1106v92h-1106v-92zM184 0h738v92h-738v-92zM184 1290h738v92h-738v-92zM369 1475h184v92h-184v-92zM553 1659h184v92h-184v-92z M737 369h369v92h-369v-92zM737 553h369v92h-369v-92zM737 737h369v92h-369v-92zM737 922h369v92h-369v-92z" />
<glyph unicode="&#xd4;" d="M0 184h1106v92h-1106v-92zM0 369h369v92h-369v-92zM0 553h369v92h-369v-92zM0 737h369v92h-369v-92zM0 922h369v92h-369v-92zM0 1106h1106v92h-1106v-92zM184 0h738v92h-738v-92zM184 1290h738v92h-738v-92zM184 1475h185v92h-185v-92zM369 1659h368v92h-368v-92z M737 369h369v92h-369v-92zM737 553h369v92h-369v-92zM737 737h369v92h-369v-92zM737 922h369v92h-369v-92zM737 1475h185v92h-185v-92z" />
<glyph unicode="&#xd5;" d="M0 184h1106v92h-1106v-92zM0 369h369v92h-369v-92zM0 553h369v92h-369v-92zM0 737h369v92h-369v-92zM0 922h369v92h-369v-92zM0 1106h1106v92h-1106v-92zM184 0h738v92h-738v-92zM184 1290h738v92h-738v-92zM184 1475h185v92h-185v-92zM184 1659h369v92h-369v-92z M553 1475h369v92h-369v-92zM737 369h369v92h-369v-92zM737 553h369v92h-369v-92zM737 737h369v92h-369v-92zM737 922h369v92h-369v-92zM737 1659h185v92h-185v-92z" />
<glyph unicode="&#xd6;" d="M0 184h1106v92h-1106v-92zM0 369h369v92h-369v-92zM0 553h369v92h-369v-92zM0 737h369v92h-369v-92zM0 922h369v92h-369v-92zM0 1106h1106v92h-1106v-92zM184 0h738v92h-738v-92zM184 1290h738v92h-738v-92zM184 1659h185v92h-185v-92zM737 369h369v92h-369v-92zM737 553 h369v92h-369v-92zM737 737h369v92h-369v-92zM737 922h369v92h-369v-92zM737 1659h185v92h-185v-92z" />
<glyph unicode="&#xd7;" horiz-adv-x="1013" d="M0 369h369v92h-369v-92zM0 553h922v92h-922v-92zM0 922h922v92h-922v-92zM0 1106h369v92h-369v-92zM184 737h553v92h-553v-92zM553 369h369v92h-369v-92zM553 1106h369v92h-369v-92z" />
<glyph unicode="&#xd8;" d="M0 0h922v92h-922v-92zM0 -92v-92h184v92h-184zM0 184h1106v92h-1106v-92zM0 369h369v92h-369v-92zM0 553h553v92h-553v-92zM0 737h369v92h-369v-92zM0 922h369v92h-369v-92zM0 1106h1106v92h-1106v-92zM184 1290h922v92h-922v-92zM553 737h553v92h-553v-92zM737 369h369 v92h-369v-92zM737 553h369v92h-369v-92zM737 922h369v92h-369v-92zM922 1475h184v92h-184v-92z" />
<glyph unicode="&#xd9;" d="M0 184h1106v92h-1106v-92zM0 369h369v92h-369v-92zM0 553h369v92h-369v-92zM0 737h369v92h-369v-92zM0 922h369v92h-369v-92zM0 1106h369v92h-369v-92zM0 1290h369v92h-369v-92zM184 0h738v92h-738v-92zM369 1659h184v92h-184v-92zM553 1475h184v92h-184v-92zM737 369 h369v92h-369v-92zM737 553h369v92h-369v-92zM737 737h369v92h-369v-92zM737 922h369v92h-369v-92zM737 1106h369v92h-369v-92zM737 1290h369v92h-369v-92z" />
<glyph unicode="&#xda;" d="M0 184h1106v92h-1106v-92zM0 369h369v92h-369v-92zM0 553h369v92h-369v-92zM0 737h369v92h-369v-92zM0 922h369v92h-369v-92zM0 1106h369v92h-369v-92zM0 1290h369v92h-369v-92zM184 0h738v92h-738v-92zM369 1475h184v92h-184v-92zM553 1659h184v92h-184v-92zM737 369 h369v92h-369v-92zM737 553h369v92h-369v-92zM737 737h369v92h-369v-92zM737 922h369v92h-369v-92zM737 1106h369v92h-369v-92zM737 1290h369v92h-369v-92z" />
<glyph unicode="&#xdb;" d="M0 184h1106v92h-1106v-92zM0 369h369v92h-369v-92zM0 553h369v92h-369v-92zM0 737h369v92h-369v-92zM0 922h369v92h-369v-92zM0 1106h369v92h-369v-92zM0 1290h369v92h-369v-92zM184 0h738v92h-738v-92zM184 1475h185v92h-185v-92zM369 1659h368v92h-368v-92zM737 369 h369v92h-369v-92zM737 553h369v92h-369v-92zM737 737h369v92h-369v-92zM737 922h369v92h-369v-92zM737 1106h369v92h-369v-92zM737 1290h369v92h-369v-92zM737 1475h185v92h-185v-92z" />
<glyph unicode="&#xdc;" d="M0 184h1106v92h-1106v-92zM0 369h369v92h-369v-92zM0 553h369v92h-369v-92zM0 737h369v92h-369v-92zM0 922h369v92h-369v-92zM0 1106h369v92h-369v-92zM0 1290h369v92h-369v-92zM184 0h738v92h-738v-92zM184 1659h185v92h-185v-92zM737 369h369v92h-369v-92zM737 553h369 v92h-369v-92zM737 737h369v92h-369v-92zM737 922h369v92h-369v-92zM737 1106h369v92h-369v-92zM737 1290h369v92h-369v-92zM737 1659h185v92h-185v-92z" />
<glyph unicode="&#xdd;" d="M0 737h1106v92h-1106v-92zM0 922h369v92h-369v-92zM0 1106h369v92h-369v-92zM0 1290h369v92h-369v-92zM184 553h738v92h-738v-92zM369 0h368v92h-368v-92zM369 184h368v92h-368v-92zM369 369h368v92h-368v-92zM369 1475h184v92h-184v-92zM553 1659h184v92h-184v-92z M737 922h369v92h-369v-92zM737 1106h369v92h-369v-92zM737 1290h369v92h-369v-92z" />
<glyph unicode="&#xde;" d="M0 0h369v92h-369v-92zM0 184h922v92h-922v-92zM0 369h1106v92h-1106v-92zM0 553h369v92h-369v-92zM0 737h369v92h-369v-92zM0 922h1106v92h-1106v-92zM0 1106h922v92h-922v-92zM0 1290h369v92h-369v-92zM737 553h369v92h-369v-92zM737 737h369v92h-369v-92z" />
<glyph unicode="&#xdf;" d="M0 0h369v92h-369v-92zM0 184h369v92h-369v-92zM0 369h369v92h-369v-92zM0 553h369v92h-369v-92zM0 737h369v92h-369v-92zM0 922h369v92h-369v-92zM0 1106h1106v92h-1106v-92zM0 1290h922v92h-922v-92zM553 0h369v92h-369v-92zM553 184h553v92h-553v-92zM553 553h369v92 h-369v-92zM553 737h369v92h-369v-92zM737 369h369v92h-369v-92zM737 922h369v92h-369v-92z" />
<glyph unicode="&#xe0;" d="M0 0h369v92h-369v-92zM0 184h369v92h-369v-92zM0 369h369v92h-369v-92zM0 553h1106v92h-1106v-92zM0 737h1106v92h-1106v-92zM0 922h369v92h-369v-92zM0 1106h1106v92h-1106v-92zM184 1290h738v92h-738v-92zM369 1659h184v92h-184v-92zM553 1475h184v92h-184v-92zM737 0 h369v92h-369v-92zM737 184h369v92h-369v-92zM737 369h369v92h-369v-92zM737 922h369v92h-369v-92z" />
<glyph unicode="&#xe1;" d="M0 0h369v92h-369v-92zM0 184h369v92h-369v-92zM0 369h369v92h-369v-92zM0 553h1106v92h-1106v-92zM0 737h1106v92h-1106v-92zM0 922h369v92h-369v-92zM0 1106h1106v92h-1106v-92zM184 1290h738v92h-738v-92zM369 1475h184v92h-184v-92zM553 1659h184v92h-184v-92zM737 0 h369v92h-369v-92zM737 184h369v92h-369v-92zM737 369h369v92h-369v-92zM737 922h369v92h-369v-92z" />
<glyph unicode="&#xe2;" d="M0 0h369v92h-369v-92zM0 184h369v92h-369v-92zM0 369h369v92h-369v-92zM0 553h1106v92h-1106v-92zM0 737h1106v92h-1106v-92zM0 922h369v92h-369v-92zM0 1106h1106v92h-1106v-92zM184 1290h738v92h-738v-92zM184 1475h185v92h-185v-92zM369 1659h368v92h-368v-92zM737 0 h369v92h-369v-92zM737 184h369v92h-369v-92zM737 369h369v92h-369v-92zM737 922h369v92h-369v-92zM737 1475h185v92h-185v-92z" />
<glyph unicode="&#xe3;" d="M0 0h369v92h-369v-92zM0 184h369v92h-369v-92zM0 369h369v92h-369v-92zM0 553h1106v92h-1106v-92zM0 737h1106v92h-1106v-92zM0 922h369v92h-369v-92zM0 1106h1106v92h-1106v-92zM184 1290h738v92h-738v-92zM184 1475h185v92h-185v-92zM184 1659h369v92h-369v-92z M553 1475h369v92h-369v-92zM737 0h369v92h-369v-92zM737 184h369v92h-369v-92zM737 369h369v92h-369v-92zM737 922h369v92h-369v-92zM737 1659h185v92h-185v-92z" />
<glyph unicode="&#xe4;" d="M0 0h369v92h-369v-92zM0 184h369v92h-369v-92zM0 369h369v92h-369v-92zM0 553h1106v92h-1106v-92zM0 737h1106v92h-1106v-92zM0 922h369v92h-369v-92zM0 1106h1106v92h-1106v-92zM184 1290h738v92h-738v-92zM184 1659h185v92h-185v-92zM737 0h369v92h-369v-92zM737 184 h369v92h-369v-92zM737 369h369v92h-369v-92zM737 922h369v92h-369v-92zM737 1659h185v92h-185v-92z" />
<glyph unicode="&#xe5;" d="M0 0h369v92h-369v-92zM0 184h369v92h-369v-92zM0 369h369v92h-369v-92zM0 553h1106v92h-1106v-92zM0 737h1106v92h-1106v-92zM0 922h369v92h-369v-92zM0 1106h1106v92h-1106v-92zM184 1290h738v92h-738v-92zM184 1475h185v92h-185v-92zM184 1659h738v92h-738v-92zM737 0 h369v92h-369v-92zM737 184h369v92h-369v-92zM737 369h369v92h-369v-92zM737 922h369v92h-369v-92zM737 1475h185v92h-185v-92z" />
<glyph unicode="&#xe6;" horiz-adv-x="1935" d="M0 0h369v92h-369v-92zM0 184h369v92h-369v-92zM0 369h369v92h-369v-92zM0 553h1475v92h-1475v-92zM0 737h1475v92h-1475v-92zM0 922h369v92h-369v-92zM0 1106h1843v92h-1843v-92zM184 1290h1659v92h-1659v-92zM737 184h1106v92h-1106v-92zM737 369h369v92h-369v-92z M737 922h369v92h-369v-92zM922 0h921v92h-921v-92z" />
<glyph unicode="&#xe7;" d="M0 184h1106v92h-1106v-92zM0 369h369v92h-369v-92zM0 553h369v92h-369v-92zM0 737h369v92h-369v-92zM0 922h369v92h-369v-92zM0 1106h1106v92h-1106v-92zM184 0h738v92h-738v-92zM184 1290h738v92h-738v-92zM369 -276v-93h368v93h-368zM553 -92v-92h184v92h-184zM737 369 h369v92h-369v-92zM737 922h369v92h-369v-92z" />
<glyph unicode="&#xe8;" d="M0 184h1106v92h-1106v-92zM0 369h369v92h-369v-92zM0 553h737v92h-737v-92zM0 737h737v92h-737v-92zM0 922h369v92h-369v-92zM0 1106h1106v92h-1106v-92zM184 0h922v92h-922v-92zM184 1290h922v92h-922v-92zM369 1659h184v92h-184v-92zM553 1475h184v92h-184v-92z" />
<glyph unicode="&#xe9;" d="M0 184h1106v92h-1106v-92zM0 369h369v92h-369v-92zM0 553h737v92h-737v-92zM0 737h737v92h-737v-92zM0 922h369v92h-369v-92zM0 1106h1106v92h-1106v-92zM184 0h922v92h-922v-92zM184 1290h922v92h-922v-92zM369 1475h184v92h-184v-92zM553 1659h184v92h-184v-92z" />
<glyph unicode="&#xea;" d="M0 184h1106v92h-1106v-92zM0 369h369v92h-369v-92zM0 553h737v92h-737v-92zM0 737h737v92h-737v-92zM0 922h369v92h-369v-92zM0 1106h1106v92h-1106v-92zM184 0h922v92h-922v-92zM184 1290h922v92h-922v-92zM184 1475h185v92h-185v-92zM369 1659h368v92h-368v-92z M737 1475h185v92h-185v-92z" />
<glyph unicode="&#xeb;" d="M0 184h1106v92h-1106v-92zM0 369h369v92h-369v-92zM0 553h737v92h-737v-92zM0 737h737v92h-737v-92zM0 922h369v92h-369v-92zM0 1106h1106v92h-1106v-92zM184 0h922v92h-922v-92zM184 1290h922v92h-922v-92zM184 1659h185v92h-185v-92zM737 1659h185v92h-185v-92z" />
<glyph unicode="&#xec;" horiz-adv-x="460" d="M0 0h369v92h-369v-92zM0 184h369v92h-369v-92zM0 369h369v92h-369v-92zM0 553h369v92h-369v-92zM0 737h369v92h-369v-92zM0 922h369v92h-369v-92zM0 1106h369v92h-369v-92zM0 1290h369v92h-369v-92zM0 1659h184v92h-184v-92zM184 1475h185v92h-185v-92z" />
<glyph unicode="&#xed;" horiz-adv-x="460" d="M0 0h369v92h-369v-92zM0 184h369v92h-369v-92zM0 369h369v92h-369v-92zM0 553h369v92h-369v-92zM0 737h369v92h-369v-92zM0 922h369v92h-369v-92zM0 1106h369v92h-369v-92zM0 1290h369v92h-369v-92zM0 1475h184v92h-184v-92zM184 1659h185v92h-185v-92z" />
<glyph unicode="&#xee;" horiz-adv-x="460" d="M-184 1475h184v92h-184v-92zM0 0h369v92h-369v-92zM0 184h369v92h-369v-92zM0 369h369v92h-369v-92zM0 553h369v92h-369v-92zM0 737h369v92h-369v-92zM0 922h369v92h-369v-92zM0 1106h369v92h-369v-92zM0 1290h369v92h-369v-92zM0 1659h369v92h-369v-92zM369 1475h184v92 h-184v-92z" />
<glyph unicode="&#xef;" horiz-adv-x="460" d="M-184 1659h184v92h-184v-92zM0 0h369v92h-369v-92zM0 184h369v92h-369v-92zM0 369h369v92h-369v-92zM0 553h369v92h-369v-92zM0 737h369v92h-369v-92zM0 922h369v92h-369v-92zM0 1106h369v92h-369v-92zM0 1290h369v92h-369v-92zM369 1659h184v92h-184v-92z" />
<glyph unicode="&#xf0;" d="M0 184h1106v92h-1106v-92zM0 369h369v92h-369v-92zM0 553h1106v92h-1106v-92zM184 0h922v92h-922v-92zM184 737h922v92h-922v-92zM184 1106h185v92h-185v-92zM369 1290h553v92h-553v-92zM369 1475h368v92h-368v-92zM553 1106h553v92h-553v-92zM737 369h369v92h-369v-92z M737 922h369v92h-369v-92zM737 1659h185v92h-185v-92z" />
<glyph unicode="&#xf1;" d="M0 0h369v92h-369v-92zM0 184h369v92h-369v-92zM0 369h369v92h-369v-92zM0 553h369v92h-369v-92zM0 737h369v92h-369v-92zM0 922h369v92h-369v-92zM0 1106h1106v92h-1106v-92zM184 1290h738v92h-738v-92zM184 1475h185v92h-185v-92zM184 1659h369v92h-369v-92zM553 1475 h369v92h-369v-92zM737 0h369v92h-369v-92zM737 184h369v92h-369v-92zM737 369h369v92h-369v-92zM737 553h369v92h-369v-92zM737 737h369v92h-369v-92zM737 922h369v92h-369v-92zM737 1659h185v92h-185v-92z" />
<glyph unicode="&#xf2;" d="M0 184h1106v92h-1106v-92zM0 369h369v92h-369v-92zM0 553h369v92h-369v-92zM0 737h369v92h-369v-92zM0 922h369v92h-369v-92zM0 1106h1106v92h-1106v-92zM184 0h738v92h-738v-92zM184 1290h738v92h-738v-92zM369 1659h184v92h-184v-92zM553 1475h184v92h-184v-92z M737 369h369v92h-369v-92zM737 553h369v92h-369v-92zM737 737h369v92h-369v-92zM737 922h369v92h-369v-92z" />
<glyph unicode="&#xf3;" d="M0 184h1106v92h-1106v-92zM0 369h369v92h-369v-92zM0 553h369v92h-369v-92zM0 737h369v92h-369v-92zM0 922h369v92h-369v-92zM0 1106h1106v92h-1106v-92zM184 0h738v92h-738v-92zM184 1290h738v92h-738v-92zM369 1475h184v92h-184v-92zM553 1659h184v92h-184v-92z M737 369h369v92h-369v-92zM737 553h369v92h-369v-92zM737 737h369v92h-369v-92zM737 922h369v92h-369v-92z" />
<glyph unicode="&#xf4;" d="M0 184h1106v92h-1106v-92zM0 369h369v92h-369v-92zM0 553h369v92h-369v-92zM0 737h369v92h-369v-92zM0 922h369v92h-369v-92zM0 1106h1106v92h-1106v-92zM184 0h738v92h-738v-92zM184 1290h738v92h-738v-92zM184 1475h185v92h-185v-92zM369 1659h368v92h-368v-92z M737 369h369v92h-369v-92zM737 553h369v92h-369v-92zM737 737h369v92h-369v-92zM737 922h369v92h-369v-92zM737 1475h185v92h-185v-92z" />
<glyph unicode="&#xf5;" d="M0 184h1106v92h-1106v-92zM0 369h369v92h-369v-92zM0 553h369v92h-369v-92zM0 737h369v92h-369v-92zM0 922h369v92h-369v-92zM0 1106h1106v92h-1106v-92zM184 0h738v92h-738v-92zM184 1290h738v92h-738v-92zM184 1475h185v92h-185v-92zM184 1659h369v92h-369v-92z M553 1475h369v92h-369v-92zM737 369h369v92h-369v-92zM737 553h369v92h-369v-92zM737 737h369v92h-369v-92zM737 922h369v92h-369v-92zM737 1659h185v92h-185v-92z" />
<glyph unicode="&#xf6;" d="M0 184h1106v92h-1106v-92zM0 369h369v92h-369v-92zM0 553h369v92h-369v-92zM0 737h369v92h-369v-92zM0 922h369v92h-369v-92zM0 1106h1106v92h-1106v-92zM184 0h738v92h-738v-92zM184 1290h738v92h-738v-92zM184 1659h185v92h-185v-92zM737 369h369v92h-369v-92zM737 553 h369v92h-369v-92zM737 737h369v92h-369v-92zM737 922h369v92h-369v-92zM737 1659h185v92h-185v-92z" />
<glyph unicode="&#xf7;" d="M0 553h1106v92h-1106v-92zM0 737h1106v92h-1106v-92zM369 0h368v92h-368v-92zM369 184h368v92h-368v-92zM369 1106h368v92h-368v-92zM369 1290h368v92h-368v-92z" />
<glyph unicode="&#xf8;" d="M0 0h922v92h-922v-92zM0 -92v-92h184v92h-184zM0 184h1106v92h-1106v-92zM0 369h369v92h-369v-92zM0 553h553v92h-553v-92zM0 737h369v92h-369v-92zM0 922h369v92h-369v-92zM0 1106h1106v92h-1106v-92zM184 1290h922v92h-922v-92zM553 737h553v92h-553v-92zM737 369h369 v92h-369v-92zM737 553h369v92h-369v-92zM737 922h369v92h-369v-92zM922 1475h184v92h-184v-92z" />
<glyph unicode="&#xf9;" d="M0 184h1106v92h-1106v-92zM0 369h369v92h-369v-92zM0 553h369v92h-369v-92zM0 737h369v92h-369v-92zM0 922h369v92h-369v-92zM0 1106h369v92h-369v-92zM0 1290h369v92h-369v-92zM184 0h738v92h-738v-92zM369 1659h184v92h-184v-92zM553 1475h184v92h-184v-92zM737 369 h369v92h-369v-92zM737 553h369v92h-369v-92zM737 737h369v92h-369v-92zM737 922h369v92h-369v-92zM737 1106h369v92h-369v-92zM737 1290h369v92h-369v-92z" />
<glyph unicode="&#xfa;" d="M0 184h1106v92h-1106v-92zM0 369h369v92h-369v-92zM0 553h369v92h-369v-92zM0 737h369v92h-369v-92zM0 922h369v92h-369v-92zM0 1106h369v92h-369v-92zM0 1290h369v92h-369v-92zM184 0h738v92h-738v-92zM369 1475h184v92h-184v-92zM553 1659h184v92h-184v-92zM737 369 h369v92h-369v-92zM737 553h369v92h-369v-92zM737 737h369v92h-369v-92zM737 922h369v92h-369v-92zM737 1106h369v92h-369v-92zM737 1290h369v92h-369v-92z" />
<glyph unicode="&#xfb;" d="M0 184h1106v92h-1106v-92zM0 369h369v92h-369v-92zM0 553h369v92h-369v-92zM0 737h369v92h-369v-92zM0 922h369v92h-369v-92zM0 1106h369v92h-369v-92zM0 1290h369v92h-369v-92zM184 0h738v92h-738v-92zM184 1475h185v92h-185v-92zM369 1659h368v92h-368v-92zM737 369 h369v92h-369v-92zM737 553h369v92h-369v-92zM737 737h369v92h-369v-92zM737 922h369v92h-369v-92zM737 1106h369v92h-369v-92zM737 1290h369v92h-369v-92zM737 1475h185v92h-185v-92z" />
<glyph unicode="&#xfc;" d="M0 184h1106v92h-1106v-92zM0 369h369v92h-369v-92zM0 553h369v92h-369v-92zM0 737h369v92h-369v-92zM0 922h369v92h-369v-92zM0 1106h369v92h-369v-92zM0 1290h369v92h-369v-92zM184 0h738v92h-738v-92zM184 1659h185v92h-185v-92zM737 369h369v92h-369v-92zM737 553h369 v92h-369v-92zM737 737h369v92h-369v-92zM737 922h369v92h-369v-92zM737 1106h369v92h-369v-92zM737 1290h369v92h-369v-92zM737 1659h185v92h-185v-92z" />
<glyph unicode="&#xfd;" d="M0 737h1106v92h-1106v-92zM0 922h369v92h-369v-92zM0 1106h369v92h-369v-92zM0 1290h369v92h-369v-92zM184 553h738v92h-738v-92zM369 0h368v92h-368v-92zM369 184h368v92h-368v-92zM369 369h368v92h-368v-92zM369 1475h184v92h-184v-92zM553 1659h184v92h-184v-92z M737 922h369v92h-369v-92zM737 1106h369v92h-369v-92zM737 1290h369v92h-369v-92z" />
<glyph unicode="&#xfe;" d="M0 0h369v92h-369v-92zM0 -92v-92h369v92h-369zM0 184h922v92h-922v-92zM0 369h1106v92h-1106v-92zM0 553h369v92h-369v-92zM0 737h369v92h-369v-92zM0 922h1106v92h-1106v-92zM0 1106h922v92h-922v-92zM0 1290h369v92h-369v-92zM0 1475h369v92h-369v-92zM737 553h369v92 h-369v-92zM737 737h369v92h-369v-92z" />
<glyph unicode="&#xff;" d="M0 737h1106v92h-1106v-92zM0 922h369v92h-369v-92zM0 1106h369v92h-369v-92zM0 1290h369v92h-369v-92zM184 553h738v92h-738v-92zM184 1659h185v92h-185v-92zM369 0h368v92h-368v-92zM369 184h368v92h-368v-92zM369 369h368v92h-368v-92zM737 922h369v92h-369v-92z M737 1106h369v92h-369v-92zM737 1290h369v92h-369v-92zM737 1659h185v92h-185v-92z" />
<glyph unicode="&#x152;" horiz-adv-x="1935" d="M0 184h1843v92h-1843v-92zM0 369h369v92h-369v-92zM0 553h369v92h-369v-92zM0 737h369v92h-369v-92zM0 922h369v92h-369v-92zM0 1106h1843v92h-1843v-92zM184 0h1659v92h-1659v-92zM184 1290h1659v92h-1659v-92zM737 369h369v92h-369v-92zM737 553h738v92h-738v-92z M737 737h738v92h-738v-92zM737 922h369v92h-369v-92z" />
<glyph unicode="&#x153;" horiz-adv-x="1935" d="M0 184h1843v92h-1843v-92zM0 369h369v92h-369v-92zM0 553h369v92h-369v-92zM0 737h369v92h-369v-92zM0 922h369v92h-369v-92zM0 1106h1843v92h-1843v-92zM184 0h1659v92h-1659v-92zM184 1290h1659v92h-1659v-92zM737 369h369v92h-369v-92zM737 553h738v92h-738v-92z M737 737h738v92h-738v-92zM737 922h369v92h-369v-92z" />
<glyph unicode="&#x178;" d="M0 737h1106v92h-1106v-92zM0 922h369v92h-369v-92zM0 1106h369v92h-369v-92zM0 1290h369v92h-369v-92zM184 553h738v92h-738v-92zM184 1659h185v92h-185v-92zM369 0h368v92h-368v-92zM369 184h368v92h-368v-92zM369 369h368v92h-368v-92zM737 922h369v92h-369v-92z M737 1106h369v92h-369v-92zM737 1290h369v92h-369v-92zM737 1659h185v92h-185v-92z" />
<glyph unicode="&#x2c6;" horiz-adv-x="829" d="M0 1475h184v92h-184v-92zM184 1659h369v92h-369v-92zM553 1475h184v92h-184v-92z" />
<glyph unicode="&#x2dc;" horiz-adv-x="829" d="M0 1475h184v92h-184v-92zM0 1659h369v92h-369v-92zM369 1475h368v92h-368v-92zM553 1659h184v92h-184v-92z" />
<glyph unicode="&#x2000;" horiz-adv-x="875" />
<glyph unicode="&#x2001;" horiz-adv-x="1751" />
<glyph unicode="&#x2002;" horiz-adv-x="875" />
<glyph unicode="&#x2003;" horiz-adv-x="1751" />
<glyph unicode="&#x2004;" horiz-adv-x="583" />
<glyph unicode="&#x2005;" horiz-adv-x="437" />
<glyph unicode="&#x2006;" horiz-adv-x="291" />
<glyph unicode="&#x2007;" horiz-adv-x="291" />
<glyph unicode="&#x2008;" horiz-adv-x="218" />
<glyph unicode="&#x2009;" horiz-adv-x="350" />
<glyph unicode="&#x200a;" horiz-adv-x="97" />
<glyph unicode="&#x2010;" d="M0 553h1106v92h-1106v-92zM0 737h1106v92h-1106v-92z" />
<glyph unicode="&#x2011;" d="M0 553h1106v92h-1106v-92zM0 737h1106v92h-1106v-92z" />
<glyph unicode="&#x2012;" d="M0 553h1106v92h-1106v-92zM0 737h1106v92h-1106v-92z" />
<glyph unicode="&#x2013;" horiz-adv-x="829" d="M0 553h737v92h-737v-92zM0 737h737v92h-737v-92z" />
<glyph unicode="&#x2014;" horiz-adv-x="1566" d="M0 553h1475v92h-1475v-92zM0 737h1475v92h-1475v-92z" />
<glyph unicode="&#x2018;" horiz-adv-x="460" d="M0 1106h369v92h-369v-92zM0 1290h369v92h-369v-92zM0 1475h184v92h-184v-92z" />
<glyph unicode="&#x2019;" horiz-adv-x="460" d="M0 1106h369v92h-369v-92zM0 1290h369v92h-369v-92zM184 922h185v92h-185v-92z" />
<glyph unicode="&#x201a;" horiz-adv-x="460" d="M0 0h369v92h-369v-92zM0 -92v-92h369v92h-369zM0 184h369v92h-369v-92z" />
<glyph unicode="&#x201c;" horiz-adv-x="1013" d="M0 1106h369v92h-369v-92zM0 1290h369v92h-369v-92zM0 1475h184v92h-184v-92zM553 1106h369v92h-369v-92zM553 1290h369v92h-369v-92zM553 1475h184v92h-184v-92z" />
<glyph unicode="&#x201d;" horiz-adv-x="1013" d="M0 1106h369v92h-369v-92zM0 1290h369v92h-369v-92zM184 922h185v92h-185v-92zM553 1106h369v92h-369v-92zM553 1290h369v92h-369v-92zM737 922h185v92h-185v-92z" />
<glyph unicode="&#x201e;" horiz-adv-x="1013" d="M0 0h369v92h-369v-92zM0 -92v-92h369v92h-369zM0 184h369v92h-369v-92zM553 0h369v92h-369v-92zM553 -92v-92h369v92h-369zM553 184h369v92h-369v-92z" />
<glyph unicode="&#x2022;" horiz-adv-x="829" d="M0 553h737v92h-737v-92zM0 737h737v92h-737v-92zM184 369h369v92h-369v-92zM184 922h369v92h-369v-92z" />
<glyph unicode="&#x2026;" horiz-adv-x="1566" d="M0 0h369v92h-369v-92zM0 184h369v92h-369v-92zM553 0h369v92h-369v-92zM553 184h369v92h-369v-92zM1106 0h369v92h-369v-92zM1106 184h369v92h-369v-92z" />
<glyph unicode="&#x202f;" horiz-adv-x="350" />
<glyph unicode="&#x2039;" horiz-adv-x="829" d="M0 553h553v92h-553v-92zM0 737h553v92h-553v-92zM184 369h553v92h-553v-92zM184 922h553v92h-553v-92zM369 184h368v92h-368v-92zM369 1106h368v92h-368v-92z" />
<glyph unicode="&#x203a;" horiz-adv-x="829" d="M0 184h369v92h-369v-92zM0 369h553v92h-553v-92zM0 922h553v92h-553v-92zM0 1106h369v92h-369v-92zM184 553h553v92h-553v-92zM184 737h553v92h-553v-92z" />
<glyph unicode="&#x205f;" horiz-adv-x="437" />
<glyph unicode="&#x2122;" horiz-adv-x="1566" d="M0 0h369v92h-369v-92zM0 184h369v92h-369v-92zM0 369h1475v92h-1475v-92zM184 553h1106v92h-1106v-92zM184 1106h1106v92h-1106v-92zM184 1290h1106v92h-1106v-92zM553 0h369v92h-369v-92zM553 184h369v92h-369v-92zM553 737h369v92h-369v-92zM553 922h369v92h-369v-92z M1106 0h369v92h-369v-92zM1106 184h369v92h-369v-92z" />
<glyph unicode="&#x25fc;" horiz-adv-x="1382" d="M0 0v1382h1382v-1382h-1382z" />
</font>
</defs>
</svg>
